<?xml version="1.0" encoding="UTF-8" standalone="no"?>
<!DOCTYPE svg PUBLIC "-//W3C//DTD SVG 1.1//EN"
 "http://www.w3.org/Graphics/SVG/1.1/DTD/svg11.dtd">
<!-- Generated by graphviz version 2.26.3 (20100126.1600)
 -->
<!-- Title: ??? Pages: 1 -->
<svg width="863.8pt" height="590.8pt"
 viewBox="0.00 0.00 1233.82 844.28" xmlns="http://www.w3.org/2000/svg" xmlns:xlink="http://www.w3.org/1999/xlink">
<g id="graph1" class="graph" transform="scale(1 1) rotate(0) translate(4 840.279)">
<polygon fill="white" stroke="white" points="-4,5 -4,-840.279 1230.82,-840.279 1230.82,5 -4,5"/>
<!-- ??? -->
<g id="node1" class="node"><title>soldier</title>
<ellipse fill="brown" stroke="black" cx="594.163" cy="-356.318" rx="39.0774" ry="18"/>
<text text-anchor="middle" x="594.163" y="-351.718" font-family="Helvetica,sans-Serif" font-size="14.00" fill="white">???</text>

</g>
<!-- wounded -->
<g id="node3" class="node"><title>wounded</title>
<ellipse fill="white" stroke="black" cx="732.611" cy="-384.359" rx="49.1393" ry="18"/>
<text text-anchor="middle" x="732.611" y="-379.759" font-family="Helvetica,sans-Serif" font-size="14.00">wounded</text>
</g>
<!-- ???&#45;&gt;wounded -->
<g id="edge2" class="edge"><title>???&#45;&gt;wounded</title>
<path fill="none" stroke="black" d="M630.177,-363.612C645.239,-366.663 663.049,-370.27 679.559,-373.614"/>
<polygon fill="black" stroke="black" points="679.139,-377.1 689.635,-375.655 680.529,-370.239 679.139,-377.1"/>
</g>
<!-- trucker -->
<g id="node5" class="node"><title>trucker</title>
<ellipse fill="white" stroke="black" cx="418.192" cy="-342.204" rx="41.0898" ry="18"/>
<text text-anchor="middle" x="418.192" y="-337.604" font-family="Helvetica,sans-Serif" font-size="14.00">trucker</text>
</g>
<!-- ???&#45;&gt;trucker -->
<g id="edge4" class="edge"><title>???&#45;&gt;trucker</title>
<path fill="none" stroke="black" d="M555.546,-353.22C530.068,-351.177 496.424,-348.478 468.811,-346.264"/>
<polygon fill="black" stroke="black" points="468.801,-342.752 458.553,-345.441 468.241,-349.729 468.801,-342.752"/>
</g>
<!-- meet -->
<g id="node7" class="node"><title>meet</title>

<ellipse fill="white" stroke="black" cx="980.222" cy="-311.852" rx="33.0404" ry="18"/>
<text text-anchor="middle" x="980.222" y="-307.252" font-family="Helvetica,sans-Serif" font-size="14.00">meet</text>

</g>
<!-- ???&#45;&gt;meet -->
<g id="edge6" class="edge"><title>???&#45;&gt;meet</title>
<path fill="none" stroke="black" d="M633.435,-356.082C707.133,-350.906 865.426,-332.704 939.911,-320.872"/>
<polygon fill="black" stroke="black" points="940.544,-324.316 949.848,-319.247 939.414,-317.407 940.544,-324.316"/>
</g>
<!-- return -->
<g id="node26" class="node"><title>return</title>

<ellipse fill="white" stroke="black" cx="500.714" cy="-227.548" rx="37.0651" ry="18"/>
<text text-anchor="middle" x="500.714" y="-222.948" font-family="Helvetica,sans-Serif" font-size="14.00">return</text>

</g>
<!-- ???&#45;&gt;return -->
<g id="edge26" class="edge"><title>???&#45;&gt;return</title>
<path fill="none" stroke="black" d="M586.763,-338.365C573.412,-315.706 545.651,-276.835 525.163,-251.632"/>
<polygon fill="black" stroke="black" points="527.611,-249.102 518.525,-243.652 522.229,-253.578 527.611,-249.102"/>
</g>
<!-- veteran -->
<g id="node35" class="node"><title>veteran</title>

<ellipse fill="white" stroke="black" cx="269.227" cy="-270.914" rx="43.7767" ry="18"/>
<text text-anchor="middle" x="269.227" y="-266.314" font-family="Helvetica,sans-Serif" font-size="14.00">veteran</text>

</g>
<!-- ???&#45;&gt;veteran -->
<g id="edge46" class="edge"><title>???&#45;&gt;veteran</title>
<path fill="none" stroke="black" d="M564.936,-344.366C509.727,-326.588 389.51,-294.679 320.56,-279.199"/>
<polygon fill="black" stroke="black" points="321.292,-275.777 310.773,-277.038 319.783,-282.612 321.292,-275.777"/>
</g>
<!-- Iraq -->
<g id="node39" class="node"><title>Iraq</title>

<ellipse fill="white" stroke="black" cx="516.264" cy="-591.125" rx="28.1745" ry="18"/>
<text text-anchor="middle" x="516.264" y="-586.525" font-family="Helvetica,sans-Serif" font-size="14.00">Iraq</text>

</g>
<!-- ???&#45;&gt;Iraq -->
<g id="edge66" class="edge"><title>???&#45;&gt;Iraq</title>
<path fill="none" stroke="black" d="M588.18,-374.353C574.609,-415.258 541.427,-515.277 525.325,-563.814"/>
<polygon fill="black" stroke="black" points="521.988,-562.757 522.161,-573.35 528.632,-564.961 521.988,-562.757"/>
</g>
<!-- meet&#45;&gt;??? -->
<g id="edge10" class="edge"><title>meet&#45;&gt;???</title>
<path fill="none" stroke="black" d="M947.186,-311.668C877.978,-316.105 717.701,-334.37 639.169,-346.56"/>
<polygon fill="black" stroke="black" points="638.426,-343.134 629.101,-348.164 639.527,-350.047 638.426,-343.134"/>
</g>
<!-- challenge -->
<g id="node9" class="node"><title>challenge</title>

<ellipse fill="white" stroke="black" cx="1096.3" cy="-483.693" rx="51.8257" ry="18"/>
<text text-anchor="middle" x="1096.3" y="-479.093" font-family="Helvetica,sans-Serif" font-size="14.00">challenge</text>

</g>
<!-- meet&#45;&gt;challenge -->
<g id="edge8" class="edge"><title>meet&#45;&gt;challenge</title>
<path fill="none" stroke="black" d="M991.776,-328.957C1012.18,-359.166 1054.71,-422.127 1078.75,-457.722"/>
<polygon fill="black" stroke="black" points="1075.95,-459.818 1084.44,-466.145 1081.75,-455.9 1075.95,-459.818"/>
</g>
<!-- standard -->
<g id="node12" class="node"><title>standard</title>

<ellipse fill="white" stroke="black" cx="969.082" cy="-462.667" rx="49.1393" ry="18"/>
<text text-anchor="middle" x="969.082" y="-458.067" font-family="Helvetica,sans-Serif" font-size="14.00">standard</text>

</g>
<!-- meet&#45;&gt;standard -->
<g id="edge12" class="edge"><title>meet&#45;&gt;standard</title>
<path fill="none" stroke="black" d="M978.878,-330.044C976.963,-355.974 973.43,-403.8 971.172,-434.378"/>
<polygon fill="black" stroke="black" points="967.677,-434.18 970.431,-444.41 974.658,-434.695 967.677,-434.18"/>
</g>
<!-- people -->
<g id="node14" class="node"><title>people</title>

<ellipse fill="white" stroke="black" cx="1086.71" cy="-363.149" rx="39.0774" ry="18"/>
<text text-anchor="middle" x="1086.71" y="-358.549" font-family="Helvetica,sans-Serif" font-size="14.00">people</text>

</g>
<!-- meet&#45;&gt;people -->
<g id="edge14" class="edge"><title>meet&#45;&gt;people</title>
<path fill="none" stroke="black" d="M1005.19,-323.879C1018.6,-330.341 1035.39,-338.427 1050.24,-345.58"/>
<polygon fill="black" stroke="black" points="1049.13,-348.933 1059.66,-350.119 1052.17,-342.626 1049.13,-348.933"/>
</g>
<!-- seize -->
<g id="node16" class="node"><title>seize</title>

<ellipse fill="white" stroke="black" cx="930.329" cy="-184.924" rx="33.0404" ry="18"/>
<text text-anchor="middle" x="930.329" y="-180.324" font-family="Helvetica,sans-Serif" font-size="14.00">seize</text>

</g>
<!-- meet&#45;&gt;seize -->
<g id="edge16" class="edge"><title>meet&#45;&gt;seize</title>
<path fill="none" stroke="black" d="M973.285,-294.203C964.954,-273.01 950.885,-237.22 941.129,-212.4"/>
<polygon fill="black" stroke="black" points="944.284,-210.859 937.368,-202.832 937.769,-213.419 944.284,-210.859"/>
</g>
<!-- woman -->
<g id="node18" class="node"><title>woman</title>

<ellipse fill="white" stroke="black" cx="1116.49" cy="-175.411" rx="41.0898" ry="18"/>
<text text-anchor="middle" x="1116.49" y="-170.811" font-family="Helvetica,sans-Serif" font-size="14.00">woman</text>

</g>
<!-- meet&#45;&gt;woman -->
<g id="edge18" class="edge"><title>meet&#45;&gt;woman</title>
<path fill="none" stroke="black" d="M996.12,-295.934C1019.86,-272.159 1064.76,-227.206 1092.5,-199.426"/>
<polygon fill="black" stroke="black" points="1095.25,-201.627 1099.84,-192.079 1090.3,-196.681 1095.25,-201.627"/>
</g>
<!-- expense -->
<g id="node20" class="node"><title>expense</title>

<ellipse fill="white" stroke="black" cx="1025.85" cy="-117.525" rx="46.9574" ry="18"/>
<text text-anchor="middle" x="1025.85" y="-112.925" font-family="Helvetica,sans-Serif" font-size="14.00">expense</text>

</g>
<!-- meet&#45;&gt;expense -->
<g id="edge20" class="edge"><title>meet&#45;&gt;expense</title>
<path fill="none" stroke="black" d="M984.433,-293.919C992.409,-259.95 1009.77,-186.004 1019.29,-145.474"/>
<polygon fill="black" stroke="black" points="1022.71,-146.233 1021.59,-135.698 1015.89,-144.633 1022.71,-146.233"/>
</g>
<!-- Iowa -->
<g id="node22" class="node"><title>Iowa</title>

<ellipse fill="white" stroke="black" cx="1193.32" cy="-377.346" rx="31.0281" ry="18"/>
<text text-anchor="middle" x="1193.32" y="-372.746" font-family="Helvetica,sans-Serif" font-size="14.00">Iowa</text>

</g>
<!-- meet&#45;&gt;Iowa -->
<g id="edge22" class="edge"><title>meet&#45;&gt;Iowa</title>
<path fill="none" stroke="black" d="M1009.41,-320.822C1047.53,-332.538 1114.31,-353.064 1156.05,-365.893"/>
<polygon fill="black" stroke="black" points="1155.25,-369.308 1165.84,-368.9 1157.31,-362.616 1155.25,-369.308"/>
</g>
<!-- City -->
<g id="node24" class="node"><title>City</title>

<ellipse fill="white" stroke="black" cx="1180.94" cy="-257.724" rx="28.1745" ry="18"/>
<text text-anchor="middle" x="1180.94" y="-253.124" font-family="Helvetica,sans-Serif" font-size="14.00">City</text>

</g>
<!-- meet&#45;&gt;City -->
<g id="edge24" class="edge"><title>meet&#45;&gt;City</title>
<path fill="none" stroke="black" d="M1009.84,-303.865C1045.88,-294.147 1106.67,-277.752 1145.26,-267.347"/>
<polygon fill="black" stroke="black" points="1146.29,-270.694 1155.03,-264.711 1144.47,-263.935 1146.29,-270.694"/>
</g>
<!-- return&#45;&gt;??? -->
<g id="edge30" class="edge"><title>return&#45;&gt;???</title>
<path fill="none" stroke="black" d="M507.955,-245.229C521.222,-267.813 549.06,-306.811 569.621,-332.118"/>
<polygon fill="black" stroke="black" points="567.199,-334.68 576.283,-340.133 572.582,-330.205 567.199,-334.68"/>
</g>
<!-- fiscal -->
<g id="node28" class="node"><title>fiscal</title>

<ellipse fill="white" stroke="black" cx="492.735" cy="-19" rx="33.0404" ry="18"/>
<text text-anchor="middle" x="492.735" y="-14.4" font-family="Helvetica,sans-Serif" font-size="14.00">fiscal</text>

</g>
<!-- return&#45;&gt;fiscal -->
<g id="edge28" class="edge"><title>return&#45;&gt;fiscal</title>
<path fill="none" stroke="black" d="M500.02,-209.405C498.629,-173.045 495.491,-91.0177 493.824,-47.4466"/>
<polygon fill="black" stroke="black" points="497.313,-47.1078 493.434,-37.249 490.318,-47.3755 497.313,-47.1078"/>
</g>
<!-- responsibility -->
<g id="node31" class="node"><title>responsibility</title>

<ellipse fill="white" stroke="black" cx="411.592" cy="-147.551" rx="65.2386" ry="18"/>
<text text-anchor="middle" x="411.592" y="-142.951" font-family="Helvetica,sans-Serif" font-size="14.00">responsibility</text>

</g>
<!-- return&#45;&gt;responsibility -->
<g id="edge32" class="edge"><title>return&#45;&gt;responsibility</title>
<path fill="none" stroke="black" d="M482.678,-211.359C469.976,-199.957 452.751,-184.496 438.438,-171.649"/>
<polygon fill="black" stroke="black" points="440.613,-168.898 430.834,-164.823 435.938,-174.108 440.613,-168.898"/>
</g>
<!-- investment -->
<g id="node33" class="node"><title>investment</title>

<ellipse fill="white" stroke="black" cx="392.833" cy="-39.7681" rx="57.8626" ry="18"/>
<text text-anchor="middle" x="392.833" y="-35.1681" font-family="Helvetica,sans-Serif" font-size="14.00">investment</text>

</g>
<!-- return&#45;&gt;investment -->
<g id="edge34" class="edge"><title>return&#45;&gt;investment</title>
<path fill="none" stroke="black" d="M490.565,-209.882C471.529,-176.749 430.378,-105.12 408.026,-66.2135"/>
<polygon fill="black" stroke="black" points="411.05,-64.4511 403.034,-57.5238 404.98,-67.9382 411.05,-64.4511"/>
</g>
<!-- return&#45;&gt;veteran -->
<g id="edge36" class="edge"><title>return&#45;&gt;veteran</title>
<path fill="none" stroke="black" d="M466.058,-234.04C427.21,-241.318 363.87,-253.184 319.564,-261.484"/>
<polygon fill="black" stroke="black" points="318.762,-258.073 309.578,-263.355 320.051,-264.954 318.762,-258.073"/>
</g>
<!-- rate -->
<g id="node37" class="node"><title>rate</title>

<ellipse fill="white" stroke="black" cx="637.972" cy="-213.849" rx="29.0158" ry="18"/>
<text text-anchor="middle" x="637.972" y="-209.249" font-family="Helvetica,sans-Serif" font-size="14.00">rate</text>

</g>
<!-- return&#45;&gt;rate -->
<g id="edge38" class="edge"><title>return&#45;&gt;rate</title>
<path fill="none" stroke="black" d="M537.136,-223.913C556.255,-222.005 579.688,-219.666 599.15,-217.724"/>
<polygon fill="black" stroke="black" points="599.608,-221.195 609.211,-216.72 598.913,-214.23 599.608,-221.195"/>
</g>
<!-- return&#45;&gt;Iraq -->
<g id="edge40" class="edge"><title>return&#45;&gt;Iraq</title>
<path fill="none" stroke="black" d="M501.485,-245.578C504.003,-304.455 511.999,-491.391 515.058,-562.917"/>
<polygon fill="black" stroke="black" points="511.564,-563.145 515.489,-572.986 518.558,-562.846 511.564,-563.145"/>
</g>
<!-- income -->
<g id="node41" class="node"><title>income</title>

<ellipse fill="white" stroke="black" cx="587.183" cy="-34.3245" rx="41.7645" ry="18"/>
<text text-anchor="middle" x="587.183" y="-29.7245" font-family="Helvetica,sans-Serif" font-size="14.00">income</text>

</g>
<!-- return&#45;&gt;income -->
<g id="edge42" class="edge"><title>return&#45;&gt;income</title>
<path fill="none" stroke="black" d="M508.693,-209.716C523.911,-175.71 557.16,-101.412 575.112,-61.2969"/>
<polygon fill="black" stroke="black" points="578.332,-62.6704 579.222,-52.1131 571.943,-59.8111 578.332,-62.6704"/>
</g>
<!-- get -->
<g id="node43" class="node"><title>get</title>

<ellipse fill="white" stroke="black" cx="655.081" cy="-108.275" rx="27" ry="18"/>
<text text-anchor="middle" x="655.081" y="-103.675" font-family="Helvetica,sans-Serif" font-size="14.00">get</text>

</g>
<!-- return&#45;&gt;get -->
<g id="edge44" class="edge"><title>return&#45;&gt;get</title>
<path fill="none" stroke="black" d="M520.578,-212.199C548.267,-190.805 598.502,-151.991 629.124,-128.331"/>
<polygon fill="black" stroke="black" points="631.433,-130.97 637.206,-122.086 627.153,-125.431 631.433,-130.97"/>
</g>
<!-- veteran&#45;&gt;??? -->
<g id="edge62" class="edge"><title>veteran&#45;&gt;???</title>
<path fill="none" stroke="black" d="M300.788,-283.614C358.094,-301.878 479.505,-334.004 546.791,-348.916"/>
<polygon fill="black" stroke="black" points="546.194,-352.368 556.709,-351.072 547.681,-345.528 546.194,-352.368"/>
</g>
<!-- veteran&#45;&gt;trucker -->
<g id="edge50" class="edge"><title>veteran&#45;&gt;trucker</title>
<path fill="none" stroke="black" d="M297.949,-284.66C321.668,-296.011 355.496,-312.2 381.232,-324.516"/>
<polygon fill="black" stroke="black" points="379.783,-327.703 390.315,-328.863 382.805,-321.389 379.783,-327.703"/>
</g>
<!-- care -->
<g id="node46" class="node"><title>care</title>

<ellipse fill="white" stroke="black" cx="120.958" cy="-312.754" rx="30.8577" ry="18"/>
<text text-anchor="middle" x="120.958" y="-308.154" font-family="Helvetica,sans-Serif" font-size="14.00">care</text>

</g>
<!-- veteran&#45;&gt;care -->
<g id="edge48" class="edge"><title>veteran&#45;&gt;care</title>
<path fill="none" stroke="black" d="M232.956,-281.149C210.403,-287.514 181.458,-295.682 158.644,-302.119"/>
<polygon fill="black" stroke="black" points="157.633,-298.768 148.959,-304.852 159.534,-305.505 157.633,-298.768"/>
</g>
<!-- serve -->
<g id="node49" class="node"><title>serve</title>

<ellipse fill="white" stroke="black" cx="226.623" cy="-407.061" rx="34.8827" ry="18"/>
<text text-anchor="middle" x="226.623" y="-402.461" font-family="Helvetica,sans-Serif" font-size="14.00">serve</text>

</g>
<!-- veteran&#45;&gt;serve -->
<g id="edge52" class="edge"><title>veteran&#45;&gt;serve</title>
<path fill="none" stroke="black" d="M263.57,-288.994C256.344,-312.084 243.767,-352.277 235.32,-379.271"/>
<polygon fill="black" stroke="black" points="231.95,-378.318 232.304,-388.907 238.631,-380.409 231.95,-378.318"/>
</g>
<!-- officer -->
<g id="node51" class="node"><title>officer</title>

<ellipse fill="white" stroke="black" cx="113.758" cy="-424.681" rx="39.0774" ry="18"/>
<text text-anchor="middle" x="113.758" y="-420.081" font-family="Helvetica,sans-Serif" font-size="14.00">officer</text>

</g>
<!-- veteran&#45;&gt;officer -->
<g id="edge54" class="edge"><title>veteran&#45;&gt;officer</title>
<path fill="none" stroke="black" d="M252.293,-287.663C224.607,-315.046 169.564,-369.487 137.828,-400.875"/>
<polygon fill="black" stroke="black" points="135.32,-398.433 130.671,-407.953 140.242,-403.41 135.32,-398.433"/>
</g>
<!-- War -->
<g id="node53" class="node"><title>War</title>

<ellipse fill="white" stroke="black" cx="235.43" cy="-138.46" rx="29.0158" ry="18"/>
<text text-anchor="middle" x="235.43" y="-133.86" font-family="Helvetica,sans-Serif" font-size="14.00">War</text>

</g>
<!-- veteran&#45;&gt;War -->
<g id="edge56" class="edge"><title>veteran&#45;&gt;War</title>
<path fill="none" stroke="black" d="M264.599,-252.775C258.91,-230.482 249.197,-192.416 242.555,-166.383"/>
<polygon fill="black" stroke="black" points="245.866,-165.205 240.002,-156.38 239.084,-166.935 245.866,-165.205"/>
</g>
<!-- give -->
<g id="node55" class="node"><title>give</title>

<ellipse fill="white" stroke="black" cx="96.6417" cy="-165.197" rx="28.8453" ry="18"/>
<text text-anchor="middle" x="96.6417" y="-160.597" font-family="Helvetica,sans-Serif" font-size="14.00">give</text>

</g>
<!-- veteran&#45;&gt;give -->
<g id="edge58" class="edge"><title>veteran&#45;&gt;give</title>
<path fill="none" stroke="black" d="M244.5,-255.768C213.318,-236.667 159.758,-203.859 126.377,-183.411"/>
<polygon fill="black" stroke="black" points="127.888,-180.232 117.532,-177.993 124.231,-186.201 127.888,-180.232"/>
</g>
<!-- Brown -->
<g id="node57" class="node"><title>Brown</title>
<ellipse fill="white" stroke="black" cx="38.5" cy="-257.171" rx="37.0651" ry="18"/>
<text text-anchor="middle" x="38.5" y="-252.571" font-family="Helvetica,sans-Serif" font-size="14.00">Brown</text>
</g>
<!-- veteran&#45;&gt;Brown -->
<g id="edge60" class="edge"><title>veteran&#45;&gt;Brown</title>
<path fill="none" stroke="black" d="M225.558,-268.313C185.572,-265.931 126.549,-262.416 85.5365,-259.973"/>
<polygon fill="black" stroke="black" points="85.7107,-256.477 75.5203,-259.376 85.2945,-263.465 85.7107,-256.477"/>
</g>
<!-- attention -->
<g id="node60" class="node"><title>attention</title>

<ellipse fill="white" stroke="black" cx="158.88" cy="-70.1652" rx="49.8134" ry="18"/>
<text text-anchor="middle" x="158.88" y="-65.5652" font-family="Helvetica,sans-Serif" font-size="14.00">attention</text>

</g>
<!-- veteran&#45;&gt;attention -->
<g id="edge64" class="edge"><title>veteran&#45;&gt;attention</title>
<path fill="none" stroke="black" d="M259.435,-253.099C240.008,-217.757 196.496,-138.598 173.604,-96.9514"/>
<polygon fill="black" stroke="black" points="176.535,-95.0178 168.651,-87.9404 170.401,-98.3897 176.535,-95.0178"/>
</g>
<!-- war -->
<g id="node63" class="node"><title>war</title>

<ellipse fill="white" stroke="black" cx="708.229" cy="-661.61" rx="27" ry="18"/>
<text text-anchor="middle" x="708.229" y="-657.01" font-family="Helvetica,sans-Serif" font-size="14.00">war</text>

</g>
<!-- Iraq&#45;&gt;war -->
<g id="edge68" class="edge"><title>Iraq&#45;&gt;war</title>
<path fill="none" stroke="black" d="M540.968,-600.195C575.082,-612.722 636.72,-635.354 674.89,-649.369"/>
<polygon fill="black" stroke="black" points="673.931,-652.745 684.525,-652.906 676.344,-646.174 673.931,-652.745"/>
</g>
<!-- troop -->
<g id="node65" class="node"><title>troop</title>

<ellipse fill="white" stroke="black" cx="636.288" cy="-732.5" rx="34.2118" ry="18"/>
<text text-anchor="middle" x="636.288" y="-727.9" font-family="Helvetica,sans-Serif" font-size="14.00">troop</text>

</g>
<!-- Iraq&#45;&gt;troop -->
<g id="edge70" class="edge"><title>Iraq&#45;&gt;troop</title>
<path fill="none" stroke="black" d="M529.799,-607.068C550.758,-631.754 591.203,-679.394 615.768,-708.33"/>
<polygon fill="black" stroke="black" points="613.107,-710.603 622.247,-715.961 618.443,-706.073 613.107,-710.603"/>
</g>
<!-- end -->
<g id="node67" class="node"><title>end</title>

<ellipse fill="white" stroke="black" cx="642.443" cy="-562.596" rx="27.0036" ry="18"/>
<text text-anchor="middle" x="642.443" y="-557.996" font-family="Helvetica,sans-Serif" font-size="14.00">end</text>

</g>
<!-- Iraq&#45;&gt;end -->
<g id="edge72" class="edge"><title>Iraq&#45;&gt;end</title>
<path fill="none" stroke="black" d="M542.716,-585.145C561.262,-580.951 586.272,-575.296 606.607,-570.699"/>
<polygon fill="black" stroke="black" points="607.477,-574.091 616.459,-568.471 605.933,-567.263 607.477,-574.091"/>
</g>
<!-- Afghanistan -->
<g id="node69" class="node"><title>Afghanistan</title>

<ellipse fill="white" stroke="black" cx="482.132" cy="-705.688" rx="61.8872" ry="18"/>
<text text-anchor="middle" x="482.132" y="-701.088" font-family="Helvetica,sans-Serif" font-size="14.00">Afghanistan</text>

</g>
<!-- Iraq&#45;&gt;Afghanistan -->
<g id="edge74" class="edge"><title>Iraq&#45;&gt;Afghanistan</title>
<path fill="none" stroke="black" d="M510.931,-609.026C505.453,-627.413 496.848,-656.295 490.469,-677.704"/>
<polygon fill="black" stroke="black" points="487.041,-676.952 487.54,-687.535 493.75,-678.951 487.041,-676.952"/>
</g>
<!-- bring -->
<g id="node71" class="node"><title>bring</title>

<ellipse fill="white" stroke="black" cx="569.229" cy="-803.705" rx="32.1994" ry="18"/>
<text text-anchor="middle" x="569.229" y="-799.105" font-family="Helvetica,sans-Serif" font-size="14.00">bring</text>

</g>
<!-- Iraq&#45;&gt;bring -->
<g id="edge76" class="edge"><title>Iraq&#45;&gt;bring</title>
<path fill="none" stroke="black" d="M520.78,-609.25C530.044,-646.431 551.252,-731.551 562.28,-775.814"/>
<polygon fill="black" stroke="black" points="558.911,-776.769 564.725,-785.627 565.703,-775.077 558.911,-776.769"/>
</g>
<!-- stable -->
<g id="node73" class="node"><title>stable</title>
<ellipse fill="white" stroke="black" cx="458.906" cy="-817.279" rx="37.0651" ry="18"/>
<text text-anchor="middle" x="458.906" y="-812.679" font-family="Helvetica,sans-Serif" font-size="14.00">stable</text>
</g>
<!-- Iraq&#45;&gt;stable -->
<g id="edge78" class="edge"><title>Iraq&#45;&gt;stable</title>
<path fill="none" stroke="black" d="M511.668,-609.25C501.658,-648.715 477.837,-742.639 465.931,-789.581"/>
<polygon fill="black" stroke="black" points="462.511,-788.828 463.445,-799.382 469.296,-790.549 462.511,-788.828"/>
</g>
<!-- withdraw -->
<g id="node75" class="node"><title>withdraw</title>
<ellipse fill="white" stroke="black" cx="325.271" cy="-649.474" rx="49.1393" ry="18"/>
<text text-anchor="middle" x="325.271" y="-644.874" font-family="Helvetica,sans-Serif" font-size="14.00">withdraw</text>
</g>
<!-- Iraq&#45;&gt;withdraw -->
<g id="edge80" class="edge"><title>Iraq&#45;&gt;withdraw</title>
<path fill="none" stroke="black" d="M490.902,-598.873C460.908,-608.037 410.342,-623.485 372.954,-634.907"/>
<polygon fill="black" stroke="black" points="371.812,-631.596 363.271,-637.865 373.857,-638.291 371.812,-631.596"/>
</g>
<!-- home -->
<g id="node77" class="node"><title>home</title>

<ellipse fill="white" stroke="black" cx="393.128" cy="-553.64" rx="35.0527" ry="18"/>
<text text-anchor="middle" x="393.128" y="-549.04" font-family="Helvetica,sans-Serif" font-size="14.00">home</text>

</g>
<!-- Iraq&#45;&gt;home -->
<g id="edge82" class="edge"><title>Iraq&#45;&gt;home</title>
<path fill="none" stroke="black" d="M490.751,-583.358C474.074,-578.282 451.949,-571.546 432.978,-565.771"/>
<polygon fill="black" stroke="black" points="433.977,-562.417 423.391,-562.853 431.938,-569.113 433.977,-562.417"/>
</g>
<!-- situation -->
<g id="node79" class="node"><title>situation</title>

<ellipse fill="white" stroke="black" cx="363.813" cy="-751.18" rx="47.1269" ry="18"/>
<text text-anchor="middle" x="363.813" y="-746.58" font-family="Helvetica,sans-Serif" font-size="14.00">situation</text>

</g>
<!-- Iraq&#45;&gt;situation -->
<g id="edge84" class="edge"><title>Iraq&#45;&gt;situation</title>
<path fill="none" stroke="black" d="M501.369,-606.763C474.873,-634.581 419.352,-692.871 387.544,-726.265"/>
<polygon fill="black" stroke="black" points="384.741,-724.133 380.378,-733.788 389.81,-728.961 384.741,-724.133"/>
</g>
</g>
</svg>
