<?xml version="1.0" encoding="UTF-8" standalone="no"?>
<!DOCTYPE svg PUBLIC "-//W3C//DTD SVG 1.1//EN"
 "http://www.w3.org/Graphics/SVG/1.1/DTD/svg11.dtd">
<!-- Generated by graphviz version 2.26.3 (20100126.1600)
 -->
<!-- Title: ??? Pages: 1 -->
<svg width="767.2pt" height="525pt"
 viewBox="0.00 0.00 1095.91 749.92" xmlns="http://www.w3.org/2000/svg" xmlns:xlink="http://www.w3.org/1999/xlink">
<g id="graph1" class="graph" transform="scale(1 1) rotate(0) translate(4 745.923)">
<title>???</title>
<polygon fill="white" stroke="white" points="-4,5 -4,-745.923 1092.91,-745.923 1092.91,5 -4,5"/>
<!-- ??? -->
<g id="node1" class="node"><title>God</title>

<ellipse fill="brown" stroke="black" cx="569.825" cy="-310.829" rx="29.0158" ry="18"/>
<text text-anchor="middle" x="569.825" y="-306.229" font-family="Helvetica,sans-Serif" font-size="14.00" fill="white">???</text>

</g>
<!-- bless -->
<g id="node3" class="node"><title>bless</title>

<ellipse fill="white" stroke="black" cx="486.94" cy="-352.944" rx="32.8702" ry="18"/>
<text text-anchor="middle" x="486.94" y="-348.344" font-family="Helvetica,sans-Serif" font-size="14.00">bless</text>

</g>
<!-- ???&#45;&gt;bless -->
<g id="edge2" class="edge"><title>???&#45;&gt;bless</title>
<path fill="none" stroke="black" d="M542.59,-317.695C533.146,-321.812 522.592,-327.075 513.226,-332.317"/>
<polygon fill="black" stroke="black" points="511.21,-329.441 504.342,-337.508 514.742,-335.485 511.21,-329.441"/>
</g>
<!-- thank -->
<g id="node6" class="node"><title>thank</title>

<ellipse fill="white" stroke="black" cx="528.787" cy="-547.53" rx="34.8827" ry="18"/>
<text text-anchor="middle" x="528.787" y="-542.93" font-family="Helvetica,sans-Serif" font-size="14.00">thank</text>

</g>
<!-- ???&#45;&gt;thank -->
<g id="edge12" class="edge"><title>???&#45;&gt;thank</title>
<path fill="none" stroke="black" d="M562.921,-328.359C552.153,-368.981 534.43,-469.824 529.102,-519.279"/>
<polygon fill="black" stroke="black" points="525.613,-519.001 528.137,-529.291 532.581,-519.673 525.613,-519.001"/>
</g>
<!-- believe -->
<g id="node27" class="node"><title>believe</title>

<ellipse fill="white" stroke="black" cx="260.982" cy="-209.457" rx="41.0898" ry="18"/>
<text text-anchor="middle" x="260.982" y="-204.857" font-family="Helvetica,sans-Serif" font-size="14.00">believe</text>

</g>
<!-- ???&#45;&gt;believe -->
<g id="edge30" class="edge"><title>???&#45;&gt;believe</title>
<path fill="none" stroke="black" d="M544.025,-302.36C490.935,-284.935 368.994,-244.91 303.851,-223.528"/>
<polygon fill="black" stroke="black" points="304.878,-220.181 294.285,-220.388 302.695,-226.832 304.878,-220.181"/>
</g>
<!-- faith -->
<g id="node46" class="node"><title>faith</title>

<ellipse fill="white" stroke="black" cx="875.566" cy="-224.466" rx="30.8577" ry="18"/>
<text text-anchor="middle" x="875.566" y="-219.866" font-family="Helvetica,sans-Serif" font-size="14.00">faith</text>

</g>
<!-- ???&#45;&gt;faith -->
<g id="edge50" class="edge"><title>???&#45;&gt;faith</title>
<path fill="none" stroke="black" d="M596.423,-303.316C650.783,-287.961 774.772,-252.937 837.588,-235.193"/>
<polygon fill="black" stroke="black" points="838.816,-238.484 847.488,-232.397 836.913,-231.747 838.816,-238.484"/>
</g>
<!-- bless&#45;&gt;??? -->
<g id="edge4" class="edge"><title>bless&#45;&gt;???</title>
<path fill="none" stroke="black" d="M516.97,-344.841C525.92,-340.821 535.634,-335.91 544.272,-331.044"/>
<polygon fill="black" stroke="black" points="546.294,-333.916 553.135,-325.826 542.742,-327.884 546.294,-333.916"/>
</g>
<!-- bless&#45;&gt;thank -->
<g id="edge6" class="edge"><title>bless&#45;&gt;thank</title>
<path fill="none" stroke="black" d="M486.697,-371.063C490.709,-405.292 506.385,-479.61 517.815,-520.026"/>
<polygon fill="black" stroke="black" points="514.501,-521.164 520.693,-529.761 521.214,-519.179 514.501,-521.164"/>
</g>
<!-- America -->
<g id="node8" class="node"><title>America</title>

<ellipse fill="white" stroke="black" cx="393.089" cy="-234.183" rx="46.9574" ry="18"/>
<text text-anchor="middle" x="393.089" y="-229.583" font-family="Helvetica,sans-Serif" font-size="14.00">America</text>

</g>
<!-- bless&#45;&gt;America -->
<g id="edge8" class="edge"><title>bless&#45;&gt;America</title>
<path fill="none" stroke="black" d="M473.693,-336.18C457.942,-316.249 431.493,-282.78 413.211,-259.645"/>
<polygon fill="black" stroke="black" points="415.826,-257.31 406.88,-251.634 410.334,-261.65 415.826,-257.31"/>
</g>
<!-- Israel -->
<g id="node10" class="node"><title>Israel</title>

<ellipse fill="white" stroke="black" cx="534.305" cy="-203.169" rx="34.8827" ry="18"/>
<text text-anchor="middle" x="534.305" y="-198.569" font-family="Helvetica,sans-Serif" font-size="14.00">Israel</text>

</g>
<!-- bless&#45;&gt;Israel -->
<g id="edge10" class="edge"><title>bless&#45;&gt;Israel</title>
<path fill="none" stroke="black" d="M492.56,-335.174C500.706,-309.416 515.871,-261.46 525.508,-230.988"/>
<polygon fill="black" stroke="black" points="528.867,-231.972 528.545,-221.382 522.193,-229.861 528.867,-231.972"/>
</g>
<!-- thank&#45;&gt;??? -->
<g id="edge16" class="edge"><title>thank&#45;&gt;???</title>
<path fill="none" stroke="black" d="M535.794,-529.613C546.58,-488.707 564.228,-388.216 569.523,-338.96"/>
<polygon fill="black" stroke="black" points="573.009,-339.278 570.481,-328.989 566.041,-338.608 573.009,-339.278"/>
</g>
<!-- thank&#45;&gt;bless -->
<g id="edge18" class="edge"><title>thank&#45;&gt;bless</title>
<path fill="none" stroke="black" d="M529.03,-529.411C525.008,-495.093 509.262,-420.484 497.825,-380.138"/>
<polygon fill="black" stroke="black" points="501.145,-379.023 494.947,-370.43 494.434,-381.013 501.145,-379.023"/>
</g>
<!-- want -->
<g id="node13" class="node"><title>want</title>

<ellipse fill="white" stroke="black" cx="608.92" cy="-593.257" rx="31.0281" ry="18"/>
<text text-anchor="middle" x="608.92" y="-588.657" font-family="Helvetica,sans-Serif" font-size="14.00">want</text>

</g>
<!-- thank&#45;&gt;want -->
<g id="edge14" class="edge"><title>thank&#45;&gt;want</title>
<path fill="none" stroke="black" d="M552.396,-561.002C560.33,-565.529 569.305,-570.651 577.729,-575.458"/>
<polygon fill="black" stroke="black" points="576.159,-578.592 586.579,-580.508 579.628,-572.512 576.159,-578.592"/>
</g>
<!-- much -->
<g id="node17" class="node"><title>much</title>

<ellipse fill="white" stroke="black" cx="702.509" cy="-591.703" rx="34.2118" ry="18"/>
<text text-anchor="middle" x="702.509" y="-587.103" font-family="Helvetica,sans-Serif" font-size="14.00">much</text>

</g>
<!-- thank&#45;&gt;much -->
<g id="edge20" class="edge"><title>thank&#45;&gt;much</title>
<path fill="none" stroke="black" d="M560.247,-555.529C588.621,-562.744 630.533,-573.401 661.521,-581.281"/>
<polygon fill="black" stroke="black" points="661.021,-584.765 671.575,-583.838 662.746,-577.981 661.021,-584.765"/>
</g>
<!-- friend -->
<g id="node19" class="node"><title>friend</title>

<ellipse fill="white" stroke="black" cx="611.265" cy="-715.274" rx="36.2243" ry="18"/>
<text text-anchor="middle" x="611.265" y="-710.674" font-family="Helvetica,sans-Serif" font-size="14.00">friend</text>

</g>
<!-- thank&#45;&gt;friend -->
<g id="edge22" class="edge"><title>thank&#45;&gt;friend</title>
<path fill="none" stroke="black" d="M537.458,-565.164C551.937,-594.612 581.123,-653.97 598.134,-688.568"/>
<polygon fill="black" stroke="black" points="595.034,-690.194 602.587,-697.624 601.316,-687.106 595.034,-690.194"/>
</g>
<!-- Clinton -->
<g id="node21" class="node"><title>Clinton</title>

<ellipse fill="white" stroke="black" cx="391.416" cy="-562.205" rx="41.0898" ry="18"/>
<text text-anchor="middle" x="391.416" y="-557.605" font-family="Helvetica,sans-Serif" font-size="14.00">Clinton</text>

</g>
<!-- thank&#45;&gt;Clinton -->
<g id="edge24" class="edge"><title>thank&#45;&gt;Clinton</title>
<path fill="none" stroke="black" d="M494.477,-551.195C478.533,-552.898 459.26,-554.957 441.715,-556.831"/>
<polygon fill="black" stroke="black" points="441.194,-553.367 431.623,-557.91 441.938,-560.328 441.194,-553.367"/>
</g>
<!-- staff -->
<g id="node23" class="node"><title>staff</title>

<ellipse fill="white" stroke="black" cx="498.553" cy="-722.923" rx="31.0281" ry="18"/>
<text text-anchor="middle" x="498.553" y="-718.323" font-family="Helvetica,sans-Serif" font-size="14.00">staff</text>

</g>
<!-- thank&#45;&gt;staff -->
<g id="edge26" class="edge"><title>thank&#45;&gt;staff</title>
<path fill="none" stroke="black" d="M525.665,-565.639C520.378,-596.309 509.629,-658.669 503.37,-694.977"/>
<polygon fill="black" stroke="black" points="499.907,-694.463 501.657,-704.912 506.805,-695.652 499.907,-694.463"/>
</g>
<!-- Senator -->
<g id="node25" class="node"><title>Senator</title>

<ellipse fill="white" stroke="black" cx="399.13" cy="-672.778" rx="45.7889" ry="18"/>
<text text-anchor="middle" x="399.13" y="-668.178" font-family="Helvetica,sans-Serif" font-size="14.00">Senator</text>

</g>
<!-- thank&#45;&gt;Senator -->
<g id="edge28" class="edge"><title>thank&#45;&gt;Senator</title>
<path fill="none" stroke="black" d="M512.102,-563.647C489.692,-585.295 449.698,-623.929 423.804,-648.943"/>
<polygon fill="black" stroke="black" points="421.339,-646.458 416.578,-655.923 426.202,-651.492 421.339,-646.458"/>
</g>
<!-- believe&#45;&gt;America -->
<g id="edge38" class="edge"><title>believe&#45;&gt;America</title>
<path fill="none" stroke="black" d="M298.839,-216.543C311.846,-218.977 326.648,-221.748 340.606,-224.36"/>
<polygon fill="black" stroke="black" points="340.109,-227.828 350.583,-226.227 341.397,-220.947 340.109,-227.828"/>
</g>
<!-- race -->
<g id="node29" class="node"><title>race</title>

<ellipse fill="white" stroke="black" cx="157.89" cy="-259.621" rx="30.8577" ry="18"/>
<text text-anchor="middle" x="157.89" y="-255.021" font-family="Helvetica,sans-Serif" font-size="14.00">race</text>

</g>
<!-- believe&#45;&gt;race -->
<g id="edge32" class="edge"><title>believe&#45;&gt;race</title>
<path fill="none" stroke="black" d="M233.355,-222.9C220.271,-229.267 204.545,-236.919 190.843,-243.587"/>
<polygon fill="black" stroke="black" points="189.198,-240.495 181.738,-248.017 192.261,-246.789 189.198,-240.495"/>
</g>
<!-- go -->
<g id="node31" class="node"><title>go</title>

<ellipse fill="white" stroke="black" cx="266.205" cy="-344.349" rx="27" ry="18"/>
<text text-anchor="middle" x="266.205" y="-339.749" font-family="Helvetica,sans-Serif" font-size="14.00">go</text>

</g>
<!-- believe&#45;&gt;go -->
<g id="edge34" class="edge"><title>believe&#45;&gt;go</title>
<path fill="none" stroke="black" d="M261.687,-227.649C262.563,-250.277 264.069,-289.167 265.099,-315.785"/>
<polygon fill="black" stroke="black" points="261.611,-316.157 265.495,-326.014 268.606,-315.886 261.611,-316.157"/>
</g>
<!-- progressive -->
<g id="node33" class="node"><title>progressive</title>

<ellipse fill="white" stroke="black" cx="148.518" cy="-367.355" rx="61.0447" ry="18"/>
<text text-anchor="middle" x="148.518" y="-362.755" font-family="Helvetica,sans-Serif" font-size="14.00">progressive</text>

</g>
<!-- believe&#45;&gt;progressive -->
<g id="edge36" class="edge"><title>believe&#45;&gt;progressive</title>
<path fill="none" stroke="black" d="M248.732,-226.656C229.062,-254.272 190.302,-308.69 167.175,-341.16"/>
<polygon fill="black" stroke="black" points="164.047,-339.52 161.096,-349.696 169.748,-343.581 164.047,-339.52"/>
</g>
<!-- do -->
<g id="node36" class="node"><title>do</title>

<ellipse fill="white" stroke="black" cx="77.6591" cy="-136.182" rx="27" ry="18"/>
<text text-anchor="middle" x="77.6591" y="-131.582" font-family="Helvetica,sans-Serif" font-size="14.00">do</text>

</g>
<!-- believe&#45;&gt;do -->
<g id="edge40" class="edge"><title>believe&#45;&gt;do</title>
<path fill="none" stroke="black" d="M230.298,-197.193C197.086,-183.918 144.327,-162.83 110.351,-149.249"/>
<polygon fill="black" stroke="black" points="111.46,-145.924 100.876,-145.462 108.862,-152.424 111.46,-145.924"/>
</g>
<!-- everyone -->
<g id="node38" class="node"><title>everyone</title>

<ellipse fill="white" stroke="black" cx="165.802" cy="-92.2324" rx="50.9823" ry="18"/>
<text text-anchor="middle" x="165.802" y="-87.6324" font-family="Helvetica,sans-Serif" font-size="14.00">everyone</text>

</g>
<!-- believe&#45;&gt;everyone -->
<g id="edge42" class="edge"><title>believe&#45;&gt;everyone</title>
<path fill="none" stroke="black" d="M247.142,-192.412C231.162,-172.731 204.723,-140.167 186.342,-117.53"/>
<polygon fill="black" stroke="black" points="188.99,-115.238 179.97,-109.681 183.556,-119.651 188.99,-115.238"/>
</g>
<!-- Democrats -->
<g id="node40" class="node"><title>Democrats</title>

<ellipse fill="white" stroke="black" cx="60" cy="-253.193" rx="59.0322" ry="18"/>
<text text-anchor="middle" x="60" y="-248.593" font-family="Helvetica,sans-Serif" font-size="14.00">Democrats</text>

</g>
<!-- believe&#45;&gt;Democrats -->
<g id="edge44" class="edge"><title>believe&#45;&gt;Democrats</title>
<path fill="none" stroke="black" d="M224.119,-217.479C194.517,-223.921 152.402,-233.085 118.246,-240.518"/>
<polygon fill="black" stroke="black" points="117.411,-237.118 108.384,-242.664 118.9,-243.958 117.411,-237.118"/>
</g>
<!-- party -->
<g id="node42" class="node"><title>party</title>

<ellipse fill="white" stroke="black" cx="229.088" cy="-19" rx="33.0404" ry="18"/>
<text text-anchor="middle" x="229.088" y="-14.4" font-family="Helvetica,sans-Serif" font-size="14.00">party</text>

</g>
<!-- believe&#45;&gt;party -->
<g id="edge46" class="edge"><title>believe&#45;&gt;party</title>
<path fill="none" stroke="black" d="M257.924,-191.195C252.325,-157.763 240.396,-86.5294 233.77,-46.9601"/>
<polygon fill="black" stroke="black" points="237.194,-46.213 232.09,-36.9285 230.29,-47.3692 237.194,-46.213"/>
</g>
<!-- escalation -->
<g id="node44" class="node"><title>escalation</title>
<ellipse fill="white" stroke="black" cx="336.363" cy="-69.7131" rx="55.1765" ry="18"/>
<text text-anchor="middle" x="336.363" y="-65.1131" font-family="Helvetica,sans-Serif" font-size="14.00">escalation</text>
</g>
<!-- believe&#45;&gt;escalation -->
<g id="edge48" class="edge"><title>believe&#45;&gt;escalation</title>
<path fill="none" stroke="black" d="M270.529,-191.759C283.485,-167.74 306.75,-124.612 321.868,-96.5858"/>
<polygon fill="black" stroke="black" points="324.989,-98.1723 326.656,-87.7095 318.828,-94.849 324.989,-98.1723"/>
</g>
<!-- keep -->
<g id="node48" class="node"><title>keep</title>

<ellipse fill="white" stroke="black" cx="936.757" cy="-381.028" rx="31.0281" ry="18"/>
<text text-anchor="middle" x="936.757" y="-376.428" font-family="Helvetica,sans-Serif" font-size="14.00">keep</text>

</g>
<!-- faith&#45;&gt;keep -->
<g id="edge52" class="edge"><title>faith&#45;&gt;keep</title>
<path fill="none" stroke="black" d="M882.467,-242.121C893.071,-269.254 913.461,-321.423 926.011,-353.533"/>
<polygon fill="black" stroke="black" points="922.888,-355.157 929.788,-363.197 929.408,-352.609 922.888,-355.157"/>
</g>
<!-- community -->
<g id="node50" class="node"><title>community</title>

<ellipse fill="white" stroke="black" cx="824.712" cy="-329.126" rx="57.1889" ry="18"/>
<text text-anchor="middle" x="824.712" y="-324.526" font-family="Helvetica,sans-Serif" font-size="14.00">community</text>

</g>
<!-- faith&#45;&gt;community -->
<g id="edge54" class="edge"><title>faith&#45;&gt;community</title>
<path fill="none" stroke="black" d="M866.939,-242.22C858.94,-258.684 846.924,-283.413 837.753,-302.288"/>
<polygon fill="black" stroke="black" points="834.604,-300.761 833.381,-311.285 840.9,-303.82 834.604,-300.761"/>
</g>
<!-- dead -->
<g id="node52" class="node"><title>dead</title>
<ellipse fill="white" stroke="black" cx="1029.96" cy="-328.079" rx="33.0404" ry="18"/>
<text text-anchor="middle" x="1029.96" y="-323.479" font-family="Helvetica,sans-Serif" font-size="14.00">dead</text>
</g>
<!-- faith&#45;&gt;dead -->
<g id="edge56" class="edge"><title>faith&#45;&gt;dead</title>
<path fill="none" stroke="black" d="M896.069,-238.225C922.796,-256.162 969.732,-287.66 1000.33,-308.194"/>
<polygon fill="black" stroke="black" points="998.625,-311.265 1008.88,-313.931 1002.53,-305.452 998.625,-311.265"/>
</g>
<!-- bitter -->
<g id="node54" class="node"><title>bitter</title>
<ellipse fill="white" stroke="black" cx="954.706" cy="-107.049" rx="34.2118" ry="18"/>
<text text-anchor="middle" x="954.706" y="-102.449" font-family="Helvetica,sans-Serif" font-size="14.00">bitter</text>
</g>
<!-- faith&#45;&gt;bitter -->
<g id="edge58" class="edge"><title>faith&#45;&gt;bitter</title>
<path fill="none" stroke="black" d="M886.905,-207.643C900.111,-188.05 922.07,-155.469 937.409,-132.713"/>
<polygon fill="black" stroke="black" points="940.444,-134.471 943.131,-124.223 934.639,-130.559 940.444,-134.471"/>
</g>
<!-- people -->
<g id="node56" class="node"><title>people</title>

<ellipse fill="white" stroke="black" cx="783.872" cy="-123.749" rx="39.0774" ry="18"/>
<text text-anchor="middle" x="783.872" y="-119.149" font-family="Helvetica,sans-Serif" font-size="14.00">people</text>

</g>
<!-- faith&#45;&gt;people -->
<g id="edge60" class="edge"><title>faith&#45;&gt;people</title>
<path fill="none" stroke="black" d="M860.834,-208.284C846.039,-192.033 823.059,-166.792 806.058,-148.118"/>
<polygon fill="black" stroke="black" points="808.5,-145.601 799.18,-140.563 803.324,-150.314 808.5,-145.601"/>
</g>
<!-- walk -->
<g id="node58" class="node"><title>walk</title>

<ellipse fill="white" stroke="black" cx="873.136" cy="-40.9562" rx="29.0158" ry="18"/>
<text text-anchor="middle" x="873.136" y="-36.3562" font-family="Helvetica,sans-Serif" font-size="14.00">walk</text>

</g>
<!-- faith&#45;&gt;walk -->
<g id="edge62" class="edge"><title>faith&#45;&gt;walk</title>
<path fill="none" stroke="black" d="M875.324,-206.199C874.9,-174.185 874.02,-107.723 873.515,-69.562"/>
<polygon fill="black" stroke="black" points="877.009,-69.1016 873.377,-59.1489 870.01,-69.1944 877.009,-69.1016"/>
</g>
<!-- labor -->
<g id="node60" class="node"><title>labor</title>

<ellipse fill="white" stroke="black" cx="1041.32" cy="-230.179" rx="32.8702" ry="18"/>
<text text-anchor="middle" x="1041.32" y="-225.579" font-family="Helvetica,sans-Serif" font-size="14.00">labor</text>

</g>
<!-- faith&#45;&gt;labor -->
<g id="edge64" class="edge"><title>faith&#45;&gt;labor</title>
<path fill="none" stroke="black" d="M906.744,-225.54C932.552,-226.43 969.498,-227.703 998.151,-228.691"/>
<polygon fill="black" stroke="black" points="998.182,-232.194 1008.3,-229.041 998.424,-225.198 998.182,-232.194"/>
</g>
<!-- King&#39;s -->
<g id="node62" class="node"><title>King&#39;s</title>
<ellipse fill="white" stroke="black" cx="1050.91" cy="-127.82" rx="36.2243" ry="18"/>
<text text-anchor="middle" x="1050.91" y="-123.22" font-family="Helvetica,sans-Serif" font-size="14.00">King&#39;s</text>
</g>
<!-- faith&#45;&gt;King&#39;s -->
<g id="edge66" class="edge"><title>faith&#45;&gt;King&#39;s</title>
<path fill="none" stroke="black" d="M898.131,-212.029C928.444,-195.322 982.546,-165.503 1017.56,-146.202"/>
<polygon fill="black" stroke="black" points="1019.4,-149.188 1026.46,-141.296 1016.02,-143.058 1019.4,-149.188"/>
</g>
</g>
</svg>
