<?xml version="1.0" encoding="UTF-8" standalone="no"?>
<!DOCTYPE svg PUBLIC "-//W3C//DTD SVG 1.1//EN"
 "http://www.w3.org/Graphics/SVG/1.1/DTD/svg11.dtd">
<!-- Generated by graphviz version 2.26.3 (20100126.1600)
 -->
<!-- Title: ??? Pages: 1 -->
<svg width="793.1pt" height="662.9pt"
 viewBox="0.00 0.00 1133.05 946.91" xmlns="http://www.w3.org/2000/svg" xmlns:xlink="http://www.w3.org/1999/xlink">
<g id="graph1" class="graph" transform="scale(1 1) rotate(0) translate(4 942.914)">
<title>???</title>
<polygon fill="white" stroke="white" points="-4,5 -4,-942.914 1130.05,-942.914 1130.05,5 -4,5"/>
<!-- ??? -->
<g id="node1" class="node"><title>Barack</title>

<ellipse fill="brown" stroke="black" cx="613.688" cy="-452.338" rx="41.0898" ry="18"/>
<text text-anchor="middle" x="613.688" y="-447.738" font-family="Helvetica,sans-Serif" font-size="14.00" fill="white">???</text>

</g>
<!-- Obama -->
<g id="node3" class="node"><title>Obama</title>

<ellipse fill="white" stroke="black" cx="507.688" cy="-612.102" rx="42.9325" ry="18"/>
<text text-anchor="middle" x="507.688" y="-607.502" font-family="Helvetica,sans-Serif" font-size="14.00">Obama</text>

</g>
<!-- ???&#45;&gt;Obama -->
<g id="edge2" class="edge"><title>???&#45;&gt;Obama</title>
<path fill="none" stroke="black" d="M597.082,-469.075C575.454,-496.717 538.652,-551.932 519.58,-585.124"/>
<polygon fill="black" stroke="black" points="516.298,-583.824 514.483,-594.262 522.411,-587.234 516.298,-583.824"/>
</g>
<!-- elect -->
<g id="node12" class="node"><title>elect</title>

<ellipse fill="white" stroke="black" cx="545.398" cy="-303.653" rx="32.8702" ry="18"/>
<text text-anchor="middle" x="545.398" y="-299.053" font-family="Helvetica,sans-Serif" font-size="14.00">elect</text>

</g>
<!-- ???&#45;&gt;elect -->
<g id="edge22" class="edge"><title>???&#45;&gt;elect</title>
<path fill="none" stroke="black" d="M610.25,-434.306C601.258,-408.171 579.386,-359.724 563.349,-329.714"/>
<polygon fill="black" stroke="black" points="566.259,-327.742 558.371,-320.669 560.127,-331.118 566.259,-327.742"/>
</g>
<!-- President -->
<g id="node18" class="node"><title>President</title>

<ellipse fill="white" stroke="black" cx="284.957" cy="-410.098" rx="52.9948" ry="18"/>
<text text-anchor="middle" x="284.957" y="-405.498" font-family="Helvetica,sans-Serif" font-size="14.00">President</text>

</g>
<!-- ???&#45;&gt;President -->
<g id="edge60" class="edge"><title>???&#45;&gt;President</title>
<path fill="none" stroke="black" d="M574.036,-447.243C516.942,-439.906 411.147,-426.312 344.6,-417.761"/>
<polygon fill="black" stroke="black" points="345.038,-414.289 334.673,-416.486 344.146,-421.232 345.038,-414.289"/>
</g>
<!-- help -->
<g id="node34" class="node"><title>help</title>

<ellipse fill="white" stroke="black" cx="853.998" cy="-245.227" rx="28.8453" ry="18"/>
<text text-anchor="middle" x="853.998" y="-240.627" font-family="Helvetica,sans-Serif" font-size="14.00">help</text>

</g>
<!-- ???&#45;&gt;help -->
<g id="edge80" class="edge"><title>???&#45;&gt;help</title>
<path fill="none" stroke="black" d="M632.545,-436.086C675.534,-399.036 780.799,-308.313 829.072,-266.71"/>
<polygon fill="black" stroke="black" points="831.564,-269.182 836.854,-260.002 826.994,-263.879 831.564,-269.182"/>
</g>
<!-- We&#39;ll -->
<g id="node36" class="node"><title>We&#39;ll</title>

<ellipse fill="white" stroke="black" cx="804.935" cy="-692.664" rx="31.0281" ry="18"/>
<text text-anchor="middle" x="804.935" y="-688.064" font-family="Helvetica,sans-Serif" font-size="14.00">We&#39;ll</text>

</g>
<!-- ???&#45;&gt;We&#39;ll -->
<g id="edge40" class="edge"><title>???&#45;&gt;We&#39;ll</title>
<path fill="none" stroke="black" d="M623.186,-469.931C652.162,-512.772 738.775,-622.06 781.193,-669.83"/>
<polygon fill="black" stroke="black" points="778.795,-672.396 788.092,-677.478 783.993,-667.708 778.795,-672.396"/>
</g>
<!-- Obama&#45;&gt;??? -->
<g id="edge6" class="edge"><title>Obama&#45;&gt;???</title>
<path fill="none" stroke="black" d="M524.294,-595.366C545.922,-567.723 582.724,-512.508 601.796,-479.316"/>
<polygon fill="black" stroke="black" points="605.078,-480.616 606.893,-470.178 598.965,-477.206 605.078,-480.616"/>
</g>
<!-- Senator -->
<g id="node5" class="node"><title>Senator</title>

<ellipse fill="white" stroke="black" cx="583.349" cy="-786.698" rx="45.7889" ry="18"/>
<text text-anchor="middle" x="583.349" y="-782.098" font-family="Helvetica,sans-Serif" font-size="14.00">Senator</text>

</g>
<!-- Obama&#45;&gt;Senator -->
<g id="edge4" class="edge"><title>Obama&#45;&gt;Senator</title>
<path fill="none" stroke="black" d="M515.5,-630.13C528.787,-660.791 555.862,-723.27 571.494,-759.343"/>
<polygon fill="black" stroke="black" points="568.391,-760.985 575.579,-768.769 574.814,-758.202 568.391,-760.985"/>
</g>
<!-- supporter -->
<g id="node8" class="node"><title>supporter</title>

<ellipse fill="white" stroke="black" cx="472.16" cy="-856.452" rx="51.8257" ry="18"/>
<text text-anchor="middle" x="472.16" y="-851.852" font-family="Helvetica,sans-Serif" font-size="14.00">supporter</text>

</g>
<!-- Obama&#45;&gt;supporter -->
<g id="edge8" class="edge"><title>Obama&#45;&gt;supporter</title>
<path fill="none" stroke="black" d="M505.075,-630.07C498.941,-672.257 483.582,-777.893 476.219,-828.53"/>
<polygon fill="black" stroke="black" points="472.751,-828.059 474.776,-838.458 479.678,-829.066 472.751,-828.059"/>
</g>
<!-- congratulate -->
<g id="node10" class="node"><title>congratulate</title>
<ellipse fill="white" stroke="black" cx="632.503" cy="-643.658" rx="65.9119" ry="18"/>
<text text-anchor="middle" x="632.503" y="-639.058" font-family="Helvetica,sans-Serif" font-size="14.00">congratulate</text>
</g>
<!-- Obama&#45;&gt;congratulate -->
<g id="edge10" class="edge"><title>Obama&#45;&gt;congratulate</title>
<path fill="none" stroke="black" d="M544.799,-621.485C553.961,-623.801 563.998,-626.339 573.908,-628.844"/>
<polygon fill="black" stroke="black" points="573.184,-632.271 583.737,-631.329 574.9,-625.484 573.184,-632.271"/>
</g>
<!-- Obama&#45;&gt;elect -->
<g id="edge12" class="edge"><title>Obama&#45;&gt;elect</title>
<path fill="none" stroke="black" d="M513.321,-594.145C523.842,-542.781 542.144,-394.949 546.022,-332.279"/>
<polygon fill="black" stroke="black" points="549.535,-332.119 546.56,-321.951 542.544,-331.756 549.535,-332.119"/>
</g>
<!-- commend -->
<g id="node14" class="node"><title>commend</title>
<ellipse fill="white" stroke="black" cx="459.886" cy="-738.769" rx="53.1641" ry="18"/>
<text text-anchor="middle" x="459.886" y="-734.169" font-family="Helvetica,sans-Serif" font-size="14.00">commend</text>
</g>
<!-- Obama&#45;&gt;commend -->
<g id="edge14" class="edge"><title>Obama&#45;&gt;commend</title>
<path fill="none" stroke="black" d="M500.94,-629.982C492.978,-651.08 479.649,-686.401 470.345,-711.053"/>
<polygon fill="black" stroke="black" points="467.01,-709.978 466.754,-720.57 473.559,-712.45 467.01,-709.978"/>
</g>
<!-- Edwards -->
<g id="node16" class="node"><title>Edwards</title>
<ellipse fill="white" stroke="black" cx="346.146" cy="-796.629" rx="48.9699" ry="18"/>
<text text-anchor="middle" x="346.146" y="-792.029" font-family="Helvetica,sans-Serif" font-size="14.00">Edwards</text>
</g>
<!-- Obama&#45;&gt;Edwards -->
<g id="edge16" class="edge"><title>Obama&#45;&gt;Edwards</title>
<path fill="none" stroke="black" d="M492.78,-629.131C464.122,-661.867 401.237,-733.7 367.896,-771.784"/>
<polygon fill="black" stroke="black" points="365.206,-769.543 361.252,-779.373 370.473,-774.154 365.206,-769.543"/>
</g>
<!-- Obama&#45;&gt;President -->
<g id="edge18" class="edge"><title>Obama&#45;&gt;President</title>
<path fill="none" stroke="black" d="M489.461,-595.571C450.077,-559.853 356.912,-475.357 311.19,-433.889"/>
<polygon fill="black" stroke="black" points="313.509,-431.268 303.751,-427.142 308.807,-436.453 313.509,-431.268"/>
</g>
<!-- I -->
<g id="node20" class="node"><title>I</title>
<ellipse fill="white" stroke="black" cx="349.601" cy="-671.035" rx="27" ry="18"/>
<text text-anchor="middle" x="349.601" y="-666.435" font-family="Helvetica,sans-Serif" font-size="14.00">I</text>
</g>
<!-- Obama&#45;&gt;I -->
<g id="edge20" class="edge"><title>Obama&#45;&gt;I</title>
<path fill="none" stroke="black" d="M475.315,-624.17C448.283,-634.247 409.905,-648.554 382.678,-658.704"/>
<polygon fill="black" stroke="black" points="381.341,-655.467 373.194,-662.24 383.786,-662.026 381.341,-655.467"/>
</g>
<!-- elect&#45;&gt;??? -->
<g id="edge28" class="edge"><title>elect&#45;&gt;???</title>
<path fill="none" stroke="black" d="M548.837,-321.685C557.78,-347.678 579.463,-395.741 595.475,-425.786"/>
<polygon fill="black" stroke="black" points="592.573,-427.773 600.451,-434.857 598.71,-424.407 592.573,-427.773"/>
</g>
<!-- elect&#45;&gt;Obama -->
<g id="edge30" class="edge"><title>elect&#45;&gt;Obama</title>
<path fill="none" stroke="black" d="M539.764,-321.61C529.243,-372.975 510.941,-520.806 507.064,-583.476"/>
<polygon fill="black" stroke="black" points="503.551,-583.636 506.526,-593.804 510.541,-584 503.551,-583.636"/>
</g>
<!-- elect&#45;&gt;President -->
<g id="edge32" class="edge"><title>elect&#45;&gt;President</title>
<path fill="none" stroke="black" d="M518.507,-314.644C473.512,-333.034 382.579,-370.199 328.408,-392.339"/>
<polygon fill="black" stroke="black" points="326.999,-389.134 319.066,-396.157 329.647,-395.614 326.999,-389.134"/>
</g>
<!-- official -->
<g id="node23" class="node"><title>official</title>

<ellipse fill="white" stroke="black" cx="487.761" cy="-203.818" rx="40.2492" ry="18"/>
<text text-anchor="middle" x="487.761" y="-199.218" font-family="Helvetica,sans-Serif" font-size="14.00">official</text>

</g>
<!-- elect&#45;&gt;official -->
<g id="edge24" class="edge"><title>elect&#45;&gt;official</title>
<path fill="none" stroke="black" d="M535.358,-286.263C526.405,-270.754 513.167,-247.825 502.924,-230.082"/>
<polygon fill="black" stroke="black" points="505.91,-228.254 497.879,-221.343 499.848,-231.754 505.91,-228.254"/>
</g>
<!-- president -->
<g id="node25" class="node"><title>president</title>

<ellipse fill="white" stroke="black" cx="413.365" cy="-118.574" rx="51.1517" ry="18"/>
<text text-anchor="middle" x="413.365" y="-113.974" font-family="Helvetica,sans-Serif" font-size="14.00">president</text>

</g>
<!-- elect&#45;&gt;president -->
<g id="edge26" class="edge"><title>elect&#45;&gt;president</title>
<path fill="none" stroke="black" d="M533.213,-286.573C510.045,-254.097 459.509,-183.257 432.041,-144.753"/>
<polygon fill="black" stroke="black" points="434.562,-142.261 425.905,-136.153 428.863,-146.326 434.562,-142.261"/>
</g>
<!-- Democratic -->
<g id="node30" class="node"><title>Democratic</title>

<ellipse fill="white" stroke="black" cx="529.779" cy="-66.6579" rx="61.2137" ry="18"/>
<text text-anchor="middle" x="529.779" y="-62.0579" font-family="Helvetica,sans-Serif" font-size="14.00">Democratic</text>

</g>
<!-- elect&#45;&gt;Democratic -->
<g id="edge34" class="edge"><title>elect&#45;&gt;Democratic</title>
<path fill="none" stroke="black" d="M544.198,-285.45C541.495,-244.437 534.912,-144.547 531.66,-95.2039"/>
<polygon fill="black" stroke="black" points="535.133,-94.6712 530.983,-84.923 528.148,-95.1316 535.133,-94.6712"/>
</g>
<!-- Governor -->
<g id="node32" class="node"><title>Governor</title>

<ellipse fill="white" stroke="black" cx="619.985" cy="-144.886" rx="51.1517" ry="18"/>
<text text-anchor="middle" x="619.985" y="-140.286" font-family="Helvetica,sans-Serif" font-size="14.00">Governor</text>

</g>
<!-- elect&#45;&gt;Governor -->
<g id="edge36" class="edge"><title>elect&#45;&gt;Governor</title>
<path fill="none" stroke="black" d="M553.665,-286.056C566.59,-258.545 591.686,-205.124 607.028,-172.467"/>
<polygon fill="black" stroke="black" points="610.368,-173.589 611.452,-163.05 604.032,-170.613 610.368,-173.589"/>
</g>
<!-- elect&#45;&gt;help -->
<g id="edge38" class="edge"><title>elect&#45;&gt;help</title>
<path fill="none" stroke="black" d="M576.687,-297.729C633.759,-286.924 754.545,-264.056 816.146,-252.393"/>
<polygon fill="black" stroke="black" points="817.045,-255.785 826.219,-250.486 815.743,-248.907 817.045,-255.785"/>
</g>
<!-- Bush -->
<g id="node55" class="node"><title>Bush</title>

<ellipse fill="white" stroke="black" cx="121.544" cy="-234.022" rx="31.0281" ry="18"/>
<text text-anchor="middle" x="121.544" y="-229.422" font-family="Helvetica,sans-Serif" font-size="14.00">Bush</text>

</g>
<!-- President&#45;&gt;Bush -->
<g id="edge62" class="edge"><title>President&#45;&gt;Bush</title>
<path fill="none" stroke="black" d="M268.991,-392.894C239.573,-361.197 176.78,-293.538 143.423,-257.596"/>
<polygon fill="black" stroke="black" points="145.755,-254.964 136.387,-250.015 140.624,-259.726 145.755,-254.964"/>
</g>
<!-- Bush&#39;s -->
<g id="node57" class="node"><title>Bush&#39;s</title>

<ellipse fill="white" stroke="black" cx="298.614" cy="-282.201" rx="38.2368" ry="18"/>
<text text-anchor="middle" x="298.614" y="-277.601" font-family="Helvetica,sans-Serif" font-size="14.00">Bush&#39;s</text>

</g>
<!-- President&#45;&gt;Bush&#39;s -->
<g id="edge64" class="edge"><title>President&#45;&gt;Bush&#39;s</title>
<path fill="none" stroke="black" d="M286.885,-392.045C289.14,-370.931 292.9,-335.711 295.555,-310.853"/>
<polygon fill="black" stroke="black" points="299.07,-310.892 296.652,-300.577 292.11,-310.149 299.07,-310.892"/>
</g>
<!-- Eisenhower -->
<g id="node59" class="node"><title>Eisenhower</title>
<ellipse fill="white" stroke="black" cx="222.117" cy="-193.021" rx="61.0447" ry="18"/>
<text text-anchor="middle" x="222.117" y="-188.421" font-family="Helvetica,sans-Serif" font-size="14.00">Eisenhower</text>
</g>
<!-- President&#45;&gt;Eisenhower -->
<g id="edge66" class="edge"><title>President&#45;&gt;Eisenhower</title>
<path fill="none" stroke="black" d="M279.708,-391.963C268.734,-354.055 243.302,-266.203 230.216,-221"/>
<polygon fill="black" stroke="black" points="233.538,-219.889 227.396,-211.257 226.815,-221.836 233.538,-219.889"/>
</g>
<!-- I&#39;m -->
<g id="node61" class="node"><title>I&#39;m</title>

<ellipse fill="white" stroke="black" cx="282.706" cy="-530.045" rx="27" ry="18"/>
<text text-anchor="middle" x="282.706" y="-525.445" font-family="Helvetica,sans-Serif" font-size="14.00">I&#39;m</text>

</g>
<!-- President&#45;&gt;I&#39;m -->
<g id="edge68" class="edge"><title>President&#45;&gt;I&#39;m</title>
<path fill="none" stroke="black" d="M284.615,-428.315C284.25,-447.777 283.666,-478.887 283.24,-501.584"/>
<polygon fill="black" stroke="black" points="279.739,-501.592 283.051,-511.656 286.738,-501.723 279.739,-501.592"/>
</g>
<!-- Roosevelt -->
<g id="node63" class="node"><title>Roosevelt</title>
<ellipse fill="white" stroke="black" cx="165.767" cy="-600.395" rx="55.0073" ry="18"/>
<text text-anchor="middle" x="165.767" y="-595.795" font-family="Helvetica,sans-Serif" font-size="14.00">Roosevelt</text>
</g>
<!-- President&#45;&gt;Roosevelt -->
<g id="edge70" class="edge"><title>President&#45;&gt;Roosevelt</title>
<path fill="none" stroke="black" d="M273.744,-428C252.66,-461.663 207.016,-534.537 182.364,-573.896"/>
<polygon fill="black" stroke="black" points="179.206,-572.345 176.864,-582.678 185.138,-576.061 179.206,-572.345"/>
</g>
<!-- Kennedy -->
<g id="node65" class="node"><title>Kennedy</title>
<ellipse fill="white" stroke="black" cx="95.6312" cy="-521.645" rx="47.8011" ry="18"/>
<text text-anchor="middle" x="95.6312" y="-517.045" font-family="Helvetica,sans-Serif" font-size="14.00">Kennedy</text>
</g>
<!-- President&#45;&gt;Kennedy -->
<g id="edge72" class="edge"><title>President&#45;&gt;Kennedy</title>
<path fill="none" stroke="black" d="M258.233,-425.843C224.781,-445.553 167.406,-479.357 130.521,-501.089"/>
<polygon fill="black" stroke="black" points="128.451,-498.246 121.612,-506.338 132.004,-504.277 128.451,-498.246"/>
</g>
<!-- Gore -->
<g id="node67" class="node"><title>Gore</title>
<ellipse fill="white" stroke="black" cx="68.5692" cy="-323.97" rx="32.8702" ry="18"/>
<text text-anchor="middle" x="68.5692" y="-319.37" font-family="Helvetica,sans-Serif" font-size="14.00">Gore</text>
</g>
<!-- President&#45;&gt;Gore -->
<g id="edge74" class="edge"><title>President&#45;&gt;Gore</title>
<path fill="none" stroke="black" d="M250.191,-396.26C210.348,-380.401 145.351,-354.531 104.874,-338.42"/>
<polygon fill="black" stroke="black" points="105.975,-335.092 95.3893,-334.645 103.386,-341.595 105.975,-335.092"/>
</g>
<!-- Johnson -->
<g id="node69" class="node"><title>Johnson</title>
<ellipse fill="white" stroke="black" cx="156.757" cy="-396.933" rx="46.9574" ry="18"/>
<text text-anchor="middle" x="156.757" y="-392.333" font-family="Helvetica,sans-Serif" font-size="14.00">Johnson</text>
</g>
<!-- President&#45;&gt;Johnson -->
<g id="edge76" class="edge"><title>President&#45;&gt;Johnson</title>
<path fill="none" stroke="black" d="M233.921,-404.857C226.884,-404.134 219.627,-403.389 212.51,-402.658"/>
<polygon fill="black" stroke="black" points="212.53,-399.142 202.225,-401.602 211.815,-406.105 212.53,-399.142"/>
</g>
<!-- sign -->
<g id="node71" class="node"><title>sign</title>

<ellipse fill="white" stroke="black" cx="29" cy="-433.396" rx="28.1745" ry="18"/>
<text text-anchor="middle" x="29" y="-428.796" font-family="Helvetica,sans-Serif" font-size="14.00">sign</text>

</g>
<!-- President&#45;&gt;sign -->
<g id="edge78" class="edge"><title>President&#45;&gt;sign</title>
<path fill="none" stroke="black" d="M233.469,-414.784C184.274,-419.262 111.263,-425.908 67.0961,-429.928"/>
<polygon fill="black" stroke="black" points="66.6986,-426.45 57.057,-430.842 67.3332,-433.421 66.6986,-426.45"/>
</g>
<!-- provide -->
<g id="node52" class="node"><title>provide</title>

<ellipse fill="white" stroke="black" cx="869.183" cy="-480.91" rx="42.9325" ry="18"/>
<text text-anchor="middle" x="869.183" y="-476.31" font-family="Helvetica,sans-Serif" font-size="14.00">provide</text>

</g>
<!-- help&#45;&gt;provide -->
<g id="edge98" class="edge"><title>help&#45;&gt;provide</title>
<path fill="none" stroke="black" d="M855.164,-263.329C857.792,-304.115 864.193,-403.452 867.354,-452.522"/>
<polygon fill="black" stroke="black" points="863.877,-452.992 868.013,-462.746 870.863,-452.542 863.877,-452.992"/>
</g>
<!-- family -->
<g id="node74" class="node"><title>family</title>

<ellipse fill="white" stroke="black" cx="787.485" cy="-127.446" rx="36.8951" ry="18"/>
<text text-anchor="middle" x="787.485" y="-122.846" font-family="Helvetica,sans-Serif" font-size="14.00">family</text>

</g>
<!-- help&#45;&gt;family -->
<g id="edge82" class="edge"><title>help&#45;&gt;family</title>
<path fill="none" stroke="black" d="M844.326,-228.1C833.306,-208.586 815.168,-176.467 802.348,-153.766"/>
<polygon fill="black" stroke="black" points="805.35,-151.964 797.385,-144.977 799.255,-155.406 805.35,-151.964"/>
</g>
<!-- people -->
<g id="node76" class="node"><title>people</title>

<ellipse fill="white" stroke="black" cx="834.698" cy="-19" rx="39.0774" ry="18"/>
<text text-anchor="middle" x="834.698" y="-14.4" font-family="Helvetica,sans-Serif" font-size="14.00">people</text>

</g>
<!-- help&#45;&gt;people -->
<g id="edge84" class="edge"><title>help&#45;&gt;people</title>
<path fill="none" stroke="black" d="M852.451,-227.096C849.099,-187.798 841.141,-94.5203 837.117,-47.3527"/>
<polygon fill="black" stroke="black" points="840.59,-46.8833 836.252,-37.217 833.615,-47.4784 840.59,-46.8833"/>
</g>
<!-- create -->
<g id="node78" class="node"><title>create</title>

<ellipse fill="white" stroke="black" cx="819.921" cy="-344.911" rx="39.0774" ry="18"/>
<text text-anchor="middle" x="819.921" y="-340.311" font-family="Helvetica,sans-Serif" font-size="14.00">create</text>

</g>
<!-- help&#45;&gt;create -->
<g id="edge86" class="edge"><title>help&#45;&gt;create</title>
<path fill="none" stroke="black" d="M847.906,-263.048C842.753,-278.122 835.283,-299.972 829.357,-317.308"/>
<polygon fill="black" stroke="black" points="825.999,-316.313 826.076,-326.907 832.622,-318.577 825.999,-316.313"/>
</g>
<!-- homeowner -->
<g id="node80" class="node"><title>homeowner</title>

<ellipse fill="white" stroke="black" cx="951.954" cy="-40.3107" rx="61.2137" ry="18"/>
<text text-anchor="middle" x="951.954" y="-35.7107" font-family="Helvetica,sans-Serif" font-size="14.00">homeowner</text>

</g>
<!-- help&#45;&gt;homeowner -->
<g id="edge88" class="edge"><title>help&#45;&gt;homeowner</title>
<path fill="none" stroke="black" d="M862.35,-227.756C879.433,-192.019 918.478,-110.339 938.924,-67.5682"/>
<polygon fill="black" stroke="black" points="942.189,-68.8533 943.344,-58.3216 935.873,-65.8343 942.189,-68.8533"/>
</g>
<!-- at&#45;risk -->
<g id="node82" class="node"><title>at&#45;risk</title>
<ellipse fill="white" stroke="black" cx="976.404" cy="-182.261" rx="38.2368" ry="18"/>
<text text-anchor="middle" x="976.404" y="-177.661" font-family="Helvetica,sans-Serif" font-size="14.00">at&#45;risk</text>
</g>
<!-- help&#45;&gt;at&#45;risk -->
<g id="edge90" class="edge"><title>help&#45;&gt;at&#45;risk</title>
<path fill="none" stroke="black" d="M876.449,-233.678C894.606,-224.338 920.492,-211.022 941.372,-200.282"/>
<polygon fill="black" stroke="black" points="942.98,-203.39 950.271,-195.704 939.778,-197.166 942.98,-203.39"/>
</g>
<!-- community -->
<g id="node84" class="node"><title>community</title>

<ellipse fill="white" stroke="black" cx="1058.43" cy="-103.782" rx="57.1889" ry="18"/>
<text text-anchor="middle" x="1058.43" y="-99.1815" font-family="Helvetica,sans-Serif" font-size="14.00">community</text>

</g>
<!-- help&#45;&gt;community -->
<g id="edge92" class="edge"><title>help&#45;&gt;community</title>
<path fill="none" stroke="black" d="M873.6,-231.664C908.848,-207.277 983.244,-155.803 1026.13,-126.134"/>
<polygon fill="black" stroke="black" points="1028.28,-128.896 1034.52,-120.328 1024.3,-123.14 1028.28,-128.896"/>
</g>
<!-- avoid -->
<g id="node86" class="node"><title>avoid</title>

<ellipse fill="white" stroke="black" cx="1090.05" cy="-241.416" rx="34.2118" ry="18"/>
<text text-anchor="middle" x="1090.05" y="-236.816" font-family="Helvetica,sans-Serif" font-size="14.00">avoid</text>

</g>
<!-- help&#45;&gt;avoid -->
<g id="edge94" class="edge"><title>help&#45;&gt;avoid</title>
<path fill="none" stroke="black" d="M883.417,-244.752C924.206,-244.093 998.269,-242.898 1045.76,-242.131"/>
<polygon fill="black" stroke="black" points="1046.11,-245.626 1056.05,-241.965 1046,-238.627 1046.11,-245.626"/>
</g>
<!-- refinance -->
<g id="node88" class="node"><title>refinance</title>
<ellipse fill="white" stroke="black" cx="1020.29" cy="-343.149" rx="51.1517" ry="18"/>
<text text-anchor="middle" x="1020.29" y="-338.549" font-family="Helvetica,sans-Serif" font-size="14.00">refinance</text>
</g>
<!-- help&#45;&gt;refinance -->
<g id="edge96" class="edge"><title>help&#45;&gt;refinance</title>
<path fill="none" stroke="black" d="M875.059,-257.629C902.699,-273.905 951.606,-302.704 984.96,-322.345"/>
<polygon fill="black" stroke="black" points="983.531,-325.566 993.924,-327.624 987.083,-319.534 983.531,-325.566"/>
</g>
<!-- We&#39;ll&#45;&gt;??? -->
<g id="edge42" class="edge"><title>We&#39;ll&#45;&gt;???</title>
<path fill="none" stroke="black" d="M795.7,-675.46C767.228,-633.251 681.431,-524.923 638.509,-476.39"/>
<polygon fill="black" stroke="black" points="641.039,-473.969 631.756,-468.862 635.828,-478.643 641.039,-473.969"/>
</g>
<!-- We&#39;ll&#45;&gt;Obama -->
<g id="edge50" class="edge"><title>We&#39;ll&#45;&gt;Obama</title>
<path fill="none" stroke="black" d="M776.702,-685.013C725.361,-671.098 616.269,-641.531 553.929,-624.635"/>
<polygon fill="black" stroke="black" points="554.537,-621.174 543.97,-621.936 552.706,-627.93 554.537,-621.174"/>
</g>
<!-- Department -->
<g id="node39" class="node"><title>Department</title>

<ellipse fill="white" stroke="black" cx="750.563" cy="-902.32" rx="63.0571" ry="18"/>
<text text-anchor="middle" x="750.563" y="-897.72" font-family="Helvetica,sans-Serif" font-size="14.00">Department</text>

</g>
<!-- We&#39;ll&#45;&gt;Department -->
<g id="edge44" class="edge"><title>We&#39;ll&#45;&gt;Department</title>
<path fill="none" stroke="black" d="M800.299,-710.539C790.813,-747.118 769.126,-830.739 757.781,-874.485"/>
<polygon fill="black" stroke="black" points="754.386,-873.634 755.264,-884.192 761.162,-875.391 754.386,-873.634"/>
</g>
<!-- beginning -->
<g id="node41" class="node"><title>beginning</title>

<ellipse fill="white" stroke="black" cx="837.458" cy="-814.986" rx="51.1517" ry="18"/>
<text text-anchor="middle" x="837.458" y="-810.386" font-family="Helvetica,sans-Serif" font-size="14.00">beginning</text>

</g>
<!-- We&#39;ll&#45;&gt;beginning -->
<g id="edge46" class="edge"><title>We&#39;ll&#45;&gt;beginning</title>
<path fill="none" stroke="black" d="M809.734,-710.713C815.09,-730.859 823.823,-763.702 830.056,-787.145"/>
<polygon fill="black" stroke="black" points="826.688,-788.098 832.64,-796.863 833.452,-786.299 826.688,-788.098"/>
</g>
<!-- credit -->
<g id="node43" class="node"><title>credit</title>

<ellipse fill="white" stroke="black" cx="892.338" cy="-919.914" rx="36.2243" ry="18"/>
<text text-anchor="middle" x="892.338" y="-915.314" font-family="Helvetica,sans-Serif" font-size="14.00">credit</text>

</g>
<!-- We&#39;ll&#45;&gt;credit -->
<g id="edge48" class="edge"><title>We&#39;ll&#45;&gt;credit</title>
<path fill="none" stroke="black" d="M811.793,-710.496C827.015,-750.073 863.705,-845.468 881.836,-892.608"/>
<polygon fill="black" stroke="black" points="878.655,-894.088 885.511,-902.165 885.188,-891.575 878.655,-894.088"/>
</g>
<!-- make -->
<g id="node46" class="node"><title>make</title>

<ellipse fill="white" stroke="black" cx="979.776" cy="-831.251" rx="34.8827" ry="18"/>
<text text-anchor="middle" x="979.776" y="-826.651" font-family="Helvetica,sans-Serif" font-size="14.00">make</text>

</g>
<!-- We&#39;ll&#45;&gt;make -->
<g id="edge52" class="edge"><title>We&#39;ll&#45;&gt;make</title>
<path fill="none" stroke="black" d="M823.315,-707.234C854.159,-731.682 916.484,-781.083 952.467,-809.605"/>
<polygon fill="black" stroke="black" points="950.572,-812.569 960.583,-816.038 954.921,-807.083 950.572,-812.569"/>
</g>
<!-- work -->
<g id="node48" class="node"><title>work</title>

<ellipse fill="white" stroke="black" cx="961.81" cy="-637.364" rx="31.0281" ry="18"/>
<text text-anchor="middle" x="961.81" y="-632.764" font-family="Helvetica,sans-Serif" font-size="14.00">work</text>

</g>
<!-- We&#39;ll&#45;&gt;work -->
<g id="edge54" class="edge"><title>We&#39;ll&#45;&gt;work</title>
<path fill="none" stroke="black" d="M831.546,-683.283C857.351,-674.187 896.702,-660.315 925.4,-650.199"/>
<polygon fill="black" stroke="black" points="926.8,-653.416 935.067,-646.791 924.473,-646.815 926.8,-653.416"/>
</g>
<!-- oil -->
<g id="node50" class="node"><title>oil</title>

<ellipse fill="white" stroke="black" cx="1030.19" cy="-728.674" rx="27" ry="18"/>
<text text-anchor="middle" x="1030.19" y="-724.074" font-family="Helvetica,sans-Serif" font-size="14.00">oil</text>

</g>
<!-- We&#39;ll&#45;&gt;oil -->
<g id="edge56" class="edge"><title>We&#39;ll&#45;&gt;oil</title>
<path fill="none" stroke="black" d="M834.847,-697.446C875.84,-703.999 949.416,-715.761 993.63,-722.829"/>
<polygon fill="black" stroke="black" points="993.238,-726.311 1003.67,-724.434 994.343,-719.399 993.238,-726.311"/>
</g>
<!-- We&#39;ll&#45;&gt;provide -->
<g id="edge58" class="edge"><title>We&#39;ll&#45;&gt;provide</title>
<path fill="none" stroke="black" d="M810.413,-674.61C821.65,-637.573 847.376,-552.784 860.754,-508.693"/>
<polygon fill="black" stroke="black" points="864.165,-509.504 863.719,-498.919 857.467,-507.472 864.165,-509.504"/>
</g>
</g>
</svg>
