<?xml version="1.0" encoding="UTF-8" standalone="no"?>
<!DOCTYPE svg PUBLIC "-//W3C//DTD SVG 1.1//EN"
 "http://www.w3.org/Graphics/SVG/1.1/DTD/svg11.dtd">
<!-- Generated by graphviz version 2.26.3 (20100126.1600)
 -->
<!-- Title: ??? Pages: 1 -->
<svg width="778.4pt" height="753.2pt"
 viewBox="0.00 0.00 1112.19 1075.55" xmlns="http://www.w3.org/2000/svg" xmlns:xlink="http://www.w3.org/1999/xlink">
<g id="graph1" class="graph" transform="scale(1 1) rotate(0) translate(4 1071.55)">
<title>???</title>
<polygon fill="white" stroke="white" points="-4,5 -4,-1071.55 1109.19,-1071.55 1109.19,5 -4,5"/>
<!-- ??? -->
<g id="node1" class="node"><title>high</title>

<ellipse fill="brown" stroke="black" cx="547.731" cy="-532.291" rx="28.8453" ry="18"/>
<text text-anchor="middle" x="547.731" y="-527.691" font-family="Helvetica,sans-Serif" font-size="14.00" fill="white">???</text>

</g>
<!-- school -->
<g id="node3" class="node"><title>school</title>

<ellipse fill="white" stroke="black" cx="344.898" cy="-830.518" rx="38.9076" ry="18"/>
<text text-anchor="middle" x="344.898" y="-825.918" font-family="Helvetica,sans-Serif" font-size="14.00">school</text>

</g>
<!-- ???&#45;&gt;school -->
<g id="edge2" class="edge"><title>???&#45;&gt;school</title>
<path fill="none" stroke="black" d="M532.828,-548.134C494.644,-596.673 394.742,-743.263 358.274,-803.892"/>
<polygon fill="black" stroke="black" points="355.053,-802.465 352.985,-812.856 361.081,-806.022 355.053,-802.465"/>
</g>
<!-- rate -->
<g id="node22" class="node"><title>rate</title>

<ellipse fill="white" stroke="black" cx="833.882" cy="-740.002" rx="29.0158" ry="18"/>
<text text-anchor="middle" x="833.882" y="-735.402" font-family="Helvetica,sans-Serif" font-size="14.00">rate</text>

</g>
<!-- ???&#45;&gt;rate -->
<g id="edge22" class="edge"><title>???&#45;&gt;rate</title>
<path fill="none" stroke="black" d="M563.173,-547.763C608.634,-585.854 742.146,-683.091 803.042,-722.85"/>
<polygon fill="black" stroke="black" points="801.179,-725.813 811.481,-728.285 804.969,-719.928 801.179,-725.813"/>
</g>
<!-- education -->
<g id="node41" class="node"><title>education</title>

<ellipse fill="white" stroke="black" cx="253.076" cy="-472.698" rx="53.1641" ry="18"/>
<text text-anchor="middle" x="253.076" y="-468.098" font-family="Helvetica,sans-Serif" font-size="14.00">education</text>

</g>
<!-- ???&#45;&gt;education -->
<g id="edge42" class="edge"><title>???&#45;&gt;education</title>
<path fill="none" stroke="black" d="M522.639,-523.104C476.848,-510.769 378.545,-490.368 314.157,-479.379"/>
<polygon fill="black" stroke="black" points="314.569,-475.9 304.128,-477.699 313.412,-482.803 314.569,-475.9"/>
</g>
<!-- price -->
<g id="node59" class="node"><title>price</title>

<ellipse fill="white" stroke="black" cx="859.877" cy="-357.882" rx="32.1994" ry="18"/>
<text text-anchor="middle" x="859.877" y="-353.282" font-family="Helvetica,sans-Serif" font-size="14.00">price</text>

</g>
<!-- ???&#45;&gt;price -->
<g id="edge62" class="edge"><title>???&#45;&gt;price</title>
<path fill="none" stroke="black" d="M572.507,-522.73C629.969,-495.051 771.815,-415.961 832.097,-378.183"/>
<polygon fill="black" stroke="black" points="834.153,-381.023 840.714,-372.704 830.397,-375.116 834.153,-381.023"/>
</g>
<!-- quality -->
<g id="node77" class="node"><title>quality</title>

<ellipse fill="white" stroke="black" cx="379.445" cy="-235.007" rx="39.0774" ry="18"/>
<text text-anchor="middle" x="379.445" y="-230.407" font-family="Helvetica,sans-Serif" font-size="14.00">quality</text>

</g>
<!-- ???&#45;&gt;quality -->
<g id="edge82" class="edge"><title>???&#45;&gt;quality</title>
<path fill="none" stroke="black" d="M541.522,-514.7C518.016,-464.367 436.567,-319.896 398.745,-260.713"/>
<polygon fill="black" stroke="black" points="401.449,-258.451 393.065,-251.974 395.58,-262.266 401.449,-258.451"/>
</g>
<!-- blood -->
<g id="node93" class="node"><title>blood</title>
<ellipse fill="white" stroke="black" cx="629.788" cy="-454.483" rx="34.8827" ry="18"/>
<text text-anchor="middle" x="629.788" y="-449.883" font-family="Helvetica,sans-Serif" font-size="14.00">blood</text>
</g>
<!-- ???&#45;&gt;blood -->
<g id="edge102" class="edge"><title>???&#45;&gt;blood</title>
<path fill="none" stroke="black" d="M563.943,-516.919C575.812,-505.664 592.12,-490.201 605.537,-477.479"/>
<polygon fill="black" stroke="black" points="608.198,-479.778 613.047,-470.358 603.382,-474.699 608.198,-479.778"/>
</g>
<!-- school&#45;&gt;??? -->
<g id="edge6" class="edge"><title>school&#45;&gt;???</title>
<path fill="none" stroke="black" d="M360.469,-813.823C399.184,-764.384 498.335,-618.846 534.484,-558.7"/>
<polygon fill="black" stroke="black" points="537.663,-560.2 539.726,-549.808 531.633,-556.645 537.663,-560.2"/>
</g>
<!-- law -->
<g id="node5" class="node"><title>law</title>

<ellipse fill="white" stroke="black" cx="327.535" cy="-948.483" rx="27" ry="18"/>
<text text-anchor="middle" x="327.535" y="-943.883" font-family="Helvetica,sans-Serif" font-size="14.00">law</text>

</g>
<!-- school&#45;&gt;law -->
<g id="edge4" class="edge"><title>school&#45;&gt;law</title>
<path fill="none" stroke="black" d="M342.223,-848.691C339.411,-867.797 334.95,-898.108 331.681,-920.316"/>
<polygon fill="black" stroke="black" points="328.178,-920.079 330.185,-930.482 335.104,-921.098 328.178,-920.079"/>
</g>
<!-- go -->
<g id="node8" class="node"><title>go</title>

<ellipse fill="white" stroke="black" cx="463.874" cy="-816.019" rx="27" ry="18"/>
<text text-anchor="middle" x="463.874" y="-811.419" font-family="Helvetica,sans-Serif" font-size="14.00">go</text>

</g>
<!-- school&#45;&gt;go -->
<g id="edge8" class="edge"><title>school&#45;&gt;go</title>
<path fill="none" stroke="black" d="M382.87,-825.89C396.96,-824.173 412.911,-822.23 426.91,-820.524"/>
<polygon fill="black" stroke="black" points="427.668,-823.957 437.171,-819.273 426.821,-817.009 427.668,-823.957"/>
</g>
<!-- child -->
<g id="node10" class="node"><title>child</title>

<ellipse fill="white" stroke="black" cx="460.332" cy="-965.745" rx="30.8577" ry="18"/>
<text text-anchor="middle" x="460.332" y="-961.145" font-family="Helvetica,sans-Serif" font-size="14.00">child</text>

</g>
<!-- school&#45;&gt;child -->
<g id="edge10" class="edge"><title>school&#45;&gt;child</title>
<path fill="none" stroke="black" d="M359.284,-847.371C379.55,-871.111 416.611,-914.527 439.776,-941.665"/>
<polygon fill="black" stroke="black" points="437.331,-944.191 446.486,-949.525 442.655,-939.647 437.331,-944.191"/>
</g>
<!-- student -->
<g id="node12" class="node"><title>student</title>

<ellipse fill="white" stroke="black" cx="162.681" cy="-919.332" rx="43.1021" ry="18"/>
<text text-anchor="middle" x="162.681" y="-914.732" font-family="Helvetica,sans-Serif" font-size="14.00">student</text>

</g>
<!-- school&#45;&gt;student -->
<g id="edge12" class="edge"><title>school&#45;&gt;student</title>
<path fill="none" stroke="black" d="M318.011,-843.622C286.883,-858.795 235.404,-883.886 200.311,-900.991"/>
<polygon fill="black" stroke="black" points="198.333,-898.061 190.878,-905.589 201.4,-904.353 198.333,-898.061"/>
</g>
<!-- attend -->
<g id="node14" class="node"><title>attend</title>

<ellipse fill="white" stroke="black" cx="358.671" cy="-1048.55" rx="39.0774" ry="18"/>
<text text-anchor="middle" x="358.671" y="-1043.95" font-family="Helvetica,sans-Serif" font-size="14.00">attend</text>

</g>
<!-- school&#45;&gt;attend -->
<g id="edge14" class="edge"><title>school&#45;&gt;attend</title>
<path fill="none" stroke="black" d="M346.048,-848.732C348.455,-886.821 354.032,-975.112 356.899,-1020.5"/>
<polygon fill="black" stroke="black" points="353.41,-1020.78 357.533,-1030.54 360.396,-1020.34 353.41,-1020.78"/>
</g>
<!-- public -->
<g id="node16" class="node"><title>public</title>

<ellipse fill="white" stroke="black" cx="264.745" cy="-671.149" rx="35.0527" ry="18"/>
<text text-anchor="middle" x="264.745" y="-666.549" font-family="Helvetica,sans-Serif" font-size="14.00">public</text>

</g>
<!-- school&#45;&gt;public -->
<g id="edge16" class="edge"><title>school&#45;&gt;public</title>
<path fill="none" stroke="black" d="M336.014,-812.853C321.991,-784.972 294.634,-730.578 278.195,-697.891"/>
<polygon fill="black" stroke="black" points="281.289,-696.253 273.669,-688.892 275.035,-699.399 281.289,-696.253"/>
</g>
<!-- weren&#39;t -->
<g id="node18" class="node"><title>weren&#39;t</title>
<ellipse fill="white" stroke="black" cx="228.605" cy="-1008.93" rx="42.9325" ry="18"/>
<text text-anchor="middle" x="228.605" y="-1004.33" font-family="Helvetica,sans-Serif" font-size="14.00">weren&#39;t</text>
</g>
<!-- school&#45;&gt;weren&#39;t -->
<g id="edge18" class="edge"><title>school&#45;&gt;weren&#39;t</title>
<path fill="none" stroke="black" d="M333.536,-847.949C313.04,-879.392 269.779,-945.759 245.698,-982.704"/>
<polygon fill="black" stroke="black" points="242.543,-981.134 240.014,-991.423 248.407,-984.957 242.543,-981.134"/>
</g>
<!-- kid -->
<g id="node20" class="node"><title>kid</title>

<ellipse fill="white" stroke="black" cx="182.15" cy="-814.559" rx="27" ry="18"/>
<text text-anchor="middle" x="182.15" y="-809.959" font-family="Helvetica,sans-Serif" font-size="14.00">kid</text>

</g>
<!-- school&#45;&gt;kid -->
<g id="edge20" class="edge"><title>school&#45;&gt;kid</title>
<path fill="none" stroke="black" d="M306.741,-826.776C280.317,-824.185 245.328,-820.754 219.158,-818.188"/>
<polygon fill="black" stroke="black" points="219.182,-814.673 208.888,-817.181 218.499,-821.64 219.182,-814.673"/>
</g>
<!-- rate&#45;&gt;??? -->
<g id="edge28" class="edge"><title>rate&#45;&gt;???</title>
<path fill="none" stroke="black" d="M818.439,-724.53C772.978,-686.439 639.467,-589.202 578.57,-549.443"/>
<polygon fill="black" stroke="black" points="580.434,-546.48 570.131,-544.008 576.643,-552.365 580.434,-546.48"/>
</g>
<!-- interest -->
<g id="node24" class="node"><title>interest</title>

<ellipse fill="white" stroke="black" cx="1043.67" cy="-815.208" rx="43.7767" ry="18"/>
<text text-anchor="middle" x="1043.67" y="-810.608" font-family="Helvetica,sans-Serif" font-size="14.00">interest</text>

</g>
<!-- rate&#45;&gt;interest -->
<g id="edge24" class="edge"><title>rate&#45;&gt;interest</title>
<path fill="none" stroke="black" d="M859.187,-749.074C894.269,-761.651 958.167,-784.557 1000.77,-799.832"/>
<polygon fill="black" stroke="black" points="999.726,-803.174 1010.32,-803.254 1002.09,-796.584 999.726,-803.174"/>
</g>
<!-- mortgage -->
<g id="node26" class="node"><title>mortgage</title>

<ellipse fill="white" stroke="black" cx="953.592" cy="-770.256" rx="53.1641" ry="18"/>
<text text-anchor="middle" x="953.592" y="-765.656" font-family="Helvetica,sans-Serif" font-size="14.00">mortgage</text>

</g>
<!-- rate&#45;&gt;mortgage -->
<g id="edge26" class="edge"><title>rate&#45;&gt;mortgage</title>
<path fill="none" stroke="black" d="M860.747,-746.792C872.618,-749.792 887.006,-753.428 900.876,-756.933"/>
<polygon fill="black" stroke="black" points="900.287,-760.394 910.84,-759.451 902.002,-753.608 900.287,-760.394"/>
</g>
<!-- low -->
<g id="node29" class="node"><title>low</title>

<ellipse fill="white" stroke="black" cx="853.291" cy="-551.916" rx="27" ry="18"/>
<text text-anchor="middle" x="853.291" y="-547.316" font-family="Helvetica,sans-Serif" font-size="14.00">low</text>

</g>
<!-- rate&#45;&gt;low -->
<g id="edge30" class="edge"><title>rate&#45;&gt;low</title>
<path fill="none" stroke="black" d="M835.743,-721.968C839.134,-689.107 846.341,-619.262 850.385,-580.079"/>
<polygon fill="black" stroke="black" points="853.89,-580.203 851.435,-569.896 846.927,-579.484 853.89,-580.203"/>
</g>
<!-- freeze -->
<g id="node31" class="node"><title>freeze</title>

<ellipse fill="white" stroke="black" cx="1001.36" cy="-670.845" rx="39.0774" ry="18"/>
<text text-anchor="middle" x="1001.36" y="-666.245" font-family="Helvetica,sans-Serif" font-size="14.00">freeze</text>

</g>
<!-- rate&#45;&gt;freeze -->
<g id="edge32" class="edge"><title>rate&#45;&gt;freeze</title>
<path fill="none" stroke="black" d="M858.235,-729.946C885.613,-718.641 930.44,-700.13 962.636,-686.836"/>
<polygon fill="black" stroke="black" points="964.281,-689.943 972.189,-682.891 961.61,-683.473 964.281,-689.943"/>
</g>
<!-- percent -->
<g id="node33" class="node"><title>percent</title>

<ellipse fill="white" stroke="black" cx="959.663" cy="-917.93" rx="43.7767" ry="18"/>
<text text-anchor="middle" x="959.663" y="-913.33" font-family="Helvetica,sans-Serif" font-size="14.00">percent</text>

</g>
<!-- rate&#45;&gt;percent -->
<g id="edge34" class="edge"><title>rate&#45;&gt;percent</title>
<path fill="none" stroke="black" d="M845.715,-756.741C867.795,-787.976 915.399,-855.315 941.549,-892.305"/>
<polygon fill="black" stroke="black" points="938.769,-894.437 947.4,-900.582 944.485,-890.396 938.769,-894.437"/>
</g>
<!-- graduation -->
<g id="node35" class="node"><title>graduation</title>
<ellipse fill="white" stroke="black" cx="799.488" cy="-945.753" rx="57.1889" ry="18"/>
<text text-anchor="middle" x="799.488" y="-941.153" font-family="Helvetica,sans-Serif" font-size="14.00">graduation</text>
</g>
<!-- rate&#45;&gt;graduation -->
<g id="edge36" class="edge"><title>rate&#45;&gt;graduation</title>
<path fill="none" stroke="black" d="M830.829,-758.261C824.812,-794.256 811.383,-874.592 804.213,-917.486"/>
<polygon fill="black" stroke="black" points="800.73,-917.095 802.533,-927.535 807.634,-918.249 800.73,-917.095"/>
</g>
<!-- infection -->
<g id="node37" class="node"><title>infection</title>
<ellipse fill="white" stroke="black" cx="862.477" cy="-867.935" rx="47.8011" ry="18"/>
<text text-anchor="middle" x="862.477" y="-863.335" font-family="Helvetica,sans-Serif" font-size="14.00">infection</text>
</g>
<!-- rate&#45;&gt;infection -->
<g id="edge38" class="edge"><title>rate&#45;&gt;infection</title>
<path fill="none" stroke="black" d="M837.918,-758.061C842.687,-779.395 850.674,-815.13 856.24,-840.033"/>
<polygon fill="black" stroke="black" points="852.864,-840.973 858.461,-849.969 859.695,-839.446 852.864,-840.973"/>
</g>
<!-- increase -->
<g id="node39" class="node"><title>increase</title>

<ellipse fill="white" stroke="black" cx="722.782" cy="-812.89" rx="47.1269" ry="18"/>
<text text-anchor="middle" x="722.782" y="-808.29" font-family="Helvetica,sans-Serif" font-size="14.00">increase</text>

</g>
<!-- rate&#45;&gt;increase -->
<g id="edge40" class="edge"><title>rate&#45;&gt;increase</title>
<path fill="none" stroke="black" d="M813.762,-753.202C797.386,-763.946 773.959,-779.315 754.979,-791.767"/>
<polygon fill="black" stroke="black" points="753.054,-788.844 746.612,-797.256 756.893,-794.697 753.054,-788.844"/>
</g>
<!-- education&#45;&gt;??? -->
<g id="edge44" class="edge"><title>education&#45;&gt;???</title>
<path fill="none" stroke="black" d="M291.26,-485.277C347.47,-499.368 451.93,-520.479 508.648,-529.195"/>
<polygon fill="black" stroke="black" points="508.257,-532.676 518.661,-530.674 509.28,-525.751 508.257,-532.676"/>
</g>
<!-- education&#45;&gt;public -->
<g id="edge58" class="edge"><title>education&#45;&gt;public</title>
<path fill="none" stroke="black" d="M254.152,-491.012C256.193,-525.717 260.637,-601.28 263.07,-642.659"/>
<polygon fill="black" stroke="black" points="259.59,-643.102 263.671,-652.879 266.578,-642.691 259.59,-643.102"/>
</g>
<!-- math -->
<g id="node44" class="node"><title>math</title>

<ellipse fill="white" stroke="black" cx="88.5507" cy="-378.126" rx="33.0404" ry="18"/>
<text text-anchor="middle" x="88.5507" y="-373.526" font-family="Helvetica,sans-Serif" font-size="14.00">math</text>

</g>
<!-- education&#45;&gt;math -->
<g id="edge46" class="edge"><title>education&#45;&gt;math</title>
<path fill="none" stroke="black" d="M225.908,-457.081C196.958,-440.441 151.161,-414.116 120.502,-396.492"/>
<polygon fill="black" stroke="black" points="121.922,-393.271 111.508,-391.322 118.434,-399.34 121.922,-393.271"/>
</g>
<!-- health -->
<g id="node46" class="node"><title>health</title>

<ellipse fill="white" stroke="black" cx="379.237" cy="-376.14" rx="37.0651" ry="18"/>
<text text-anchor="middle" x="379.237" y="-371.54" font-family="Helvetica,sans-Serif" font-size="14.00">health</text>

</g>
<!-- education&#45;&gt;health -->
<g id="edge48" class="edge"><title>education&#45;&gt;health</title>
<path fill="none" stroke="black" d="M274.763,-456.099C295.846,-439.963 327.973,-415.375 351.033,-397.727"/>
<polygon fill="black" stroke="black" points="353.267,-400.424 359.081,-391.567 349.012,-394.865 353.267,-400.424"/>
</g>
<!-- science -->
<g id="node48" class="node"><title>science</title>

<ellipse fill="white" stroke="black" cx="312.942" cy="-559.816" rx="43.1021" ry="18"/>
<text text-anchor="middle" x="312.942" y="-555.216" font-family="Helvetica,sans-Serif" font-size="14.00">science</text>

</g>
<!-- education&#45;&gt;science -->
<g id="edge50" class="edge"><title>education&#45;&gt;science</title>
<path fill="none" stroke="black" d="M265.19,-490.328C273.848,-502.927 285.633,-520.076 295.329,-534.186"/>
<polygon fill="black" stroke="black" points="292.501,-536.251 301.05,-542.51 298.271,-532.286 292.501,-536.251"/>
</g>
<!-- cost -->
<g id="node50" class="node"><title>cost</title>

<ellipse fill="white" stroke="black" cx="289.527" cy="-339.266" rx="29.0158" ry="18"/>
<text text-anchor="middle" x="289.527" y="-334.666" font-family="Helvetica,sans-Serif" font-size="14.00">cost</text>

</g>
<!-- education&#45;&gt;cost -->
<g id="edge52" class="edge"><title>education&#45;&gt;cost</title>
<path fill="none" stroke="black" d="M257.992,-454.703C264.133,-432.221 274.709,-393.509 281.904,-367.17"/>
<polygon fill="black" stroke="black" points="285.314,-367.971 284.573,-357.402 278.561,-366.127 285.314,-367.971"/>
</g>
<!-- system -->
<g id="node52" class="node"><title>system</title>

<ellipse fill="white" stroke="black" cx="110.4" cy="-570.33" rx="41.0898" ry="18"/>
<text text-anchor="middle" x="110.4" y="-565.73" font-family="Helvetica,sans-Serif" font-size="14.00">system</text>

</g>
<!-- education&#45;&gt;system -->
<g id="edge54" class="edge"><title>education&#45;&gt;system</title>
<path fill="none" stroke="black" d="M229.195,-489.039C205.105,-505.524 167.801,-531.05 141.433,-549.094"/>
<polygon fill="black" stroke="black" points="139.221,-546.367 132.944,-554.903 143.174,-552.144 139.221,-546.367"/>
</g>
<!-- care -->
<g id="node54" class="node"><title>care</title>

<ellipse fill="white" stroke="black" cx="214.02" cy="-294.344" rx="30.8577" ry="18"/>
<text text-anchor="middle" x="214.02" y="-289.744" font-family="Helvetica,sans-Serif" font-size="14.00">care</text>

</g>
<!-- education&#45;&gt;care -->
<g id="edge56" class="edge"><title>education&#45;&gt;care</title>
<path fill="none" stroke="black" d="M249.116,-454.615C242.285,-423.421 228.243,-359.294 220.144,-322.31"/>
<polygon fill="black" stroke="black" points="223.491,-321.229 217.933,-312.209 216.653,-322.727 223.491,-321.229"/>
</g>
<!-- ultimate -->
<g id="node57" class="node"><title>ultimate</title>
<ellipse fill="white" stroke="black" cx="47.5" cy="-479.975" rx="45.7889" ry="18"/>
<text text-anchor="middle" x="47.5" y="-475.375" font-family="Helvetica,sans-Serif" font-size="14.00">ultimate</text>
</g>
<!-- education&#45;&gt;ultimate -->
<g id="edge60" class="edge"><title>education&#45;&gt;ultimate</title>
<path fill="none" stroke="black" d="M200.135,-474.572C170.657,-475.615 133.962,-476.914 103.939,-477.977"/>
<polygon fill="black" stroke="black" points="103.491,-474.49 93.6212,-478.342 103.739,-481.486 103.491,-474.49"/>
</g>
<!-- price&#45;&gt;??? -->
<g id="edge68" class="edge"><title>price&#45;&gt;???</title>
<path fill="none" stroke="black" d="M833.508,-368.213C774.776,-396.698 633.88,-475.316 574.643,-512.534"/>
<polygon fill="black" stroke="black" points="572.409,-509.808 565.863,-518.138 576.175,-515.708 572.409,-509.808"/>
</g>
<!-- price&#45;&gt;low -->
<g id="edge66" class="edge"><title>price&#45;&gt;low</title>
<path fill="none" stroke="black" d="M859.257,-376.136C858.104,-410.098 855.623,-483.202 854.251,-523.616"/>
<polygon fill="black" stroke="black" points="850.745,-523.739 853.904,-533.852 857.741,-523.976 850.745,-523.739"/>
</g>
<!-- gas -->
<g id="node61" class="node"><title>gas</title>

<ellipse fill="white" stroke="black" cx="895.255" cy="-250.11" rx="27" ry="18"/>
<text text-anchor="middle" x="895.255" y="-245.51" font-family="Helvetica,sans-Serif" font-size="14.00">gas</text>

</g>
<!-- price&#45;&gt;gas -->
<g id="edge64" class="edge"><title>price&#45;&gt;gas</title>
<path fill="none" stroke="black" d="M865.719,-340.085C871.301,-323.081 879.796,-297.203 886.245,-277.558"/>
<polygon fill="black" stroke="black" points="889.611,-278.525 889.404,-267.933 882.96,-276.342 889.611,-278.525"/>
</g>
<!-- housing -->
<g id="node65" class="node"><title>housing</title>

<ellipse fill="white" stroke="black" cx="1000.74" cy="-194.685" rx="43.1021" ry="18"/>
<text text-anchor="middle" x="1000.74" y="-190.085" font-family="Helvetica,sans-Serif" font-size="14.00">housing</text>

</g>
<!-- price&#45;&gt;housing -->
<g id="edge70" class="edge"><title>price&#45;&gt;housing</title>
<path fill="none" stroke="black" d="M873.898,-341.637C898.636,-312.976 950.17,-253.27 979.362,-219.448"/>
<polygon fill="black" stroke="black" points="982.043,-221.699 985.927,-211.841 976.744,-217.125 982.043,-221.699"/>
</g>
<!-- pay -->
<g id="node67" class="node"><title>pay</title>

<ellipse fill="white" stroke="black" cx="881.002" cy="-146.274" rx="27" ry="18"/>
<text text-anchor="middle" x="881.002" y="-141.674" font-family="Helvetica,sans-Serif" font-size="14.00">pay</text>

</g>
<!-- price&#45;&gt;pay -->
<g id="edge72" class="edge"><title>price&#45;&gt;pay</title>
<path fill="none" stroke="black" d="M861.678,-339.84C865.365,-302.907 873.796,-218.456 878.202,-174.317"/>
<polygon fill="black" stroke="black" points="881.695,-174.568 879.205,-164.27 874.729,-173.873 881.695,-174.568"/>
</g>
<!-- double -->
<g id="node69" class="node"><title>double</title>

<ellipse fill="white" stroke="black" cx="1063.69" cy="-393.37" rx="39.0774" ry="18"/>
<text text-anchor="middle" x="1063.69" y="-388.77" font-family="Helvetica,sans-Serif" font-size="14.00">double</text>

</g>
<!-- price&#45;&gt;double -->
<g id="edge74" class="edge"><title>price&#45;&gt;double</title>
<path fill="none" stroke="black" d="M890.832,-363.272C924.362,-369.11 978.236,-378.49 1016.93,-385.228"/>
<polygon fill="black" stroke="black" points="1016.46,-388.699 1026.91,-386.966 1017.66,-381.803 1016.46,-388.699"/>
</g>
<!-- rise -->
<g id="node71" class="node"><title>rise</title>

<ellipse fill="white" stroke="black" cx="965.348" cy="-439.535" rx="27" ry="18"/>
<text text-anchor="middle" x="965.348" y="-434.935" font-family="Helvetica,sans-Serif" font-size="14.00">rise</text>

</g>
<!-- price&#45;&gt;rise -->
<g id="edge76" class="edge"><title>price&#45;&gt;rise</title>
<path fill="none" stroke="black" d="M878.733,-372.48C895.689,-385.607 920.75,-405.008 939.558,-419.569"/>
<polygon fill="black" stroke="black" points="937.658,-422.524 947.708,-425.878 941.943,-416.989 937.658,-422.524"/>
</g>
<!-- fall -->
<g id="node73" class="node"><title>fall</title>

<ellipse fill="white" stroke="black" cx="1042.87" cy="-290.556" rx="27" ry="18"/>
<text text-anchor="middle" x="1042.87" y="-285.956" font-family="Helvetica,sans-Serif" font-size="14.00">fall</text>

</g>
<!-- price&#45;&gt;fall -->
<g id="edge78" class="edge"><title>price&#45;&gt;fall</title>
<path fill="none" stroke="black" d="M886.878,-347.948C919.362,-335.996 973.915,-315.925 1009.14,-302.965"/>
<polygon fill="black" stroke="black" points="1010.79,-306.088 1018.97,-299.35 1008.37,-299.518 1010.79,-306.088"/>
</g>
<!-- drug -->
<g id="node75" class="node"><title>drug</title>

<ellipse fill="white" stroke="black" cx="764.903" cy="-241.751" rx="30.8577" ry="18"/>
<text text-anchor="middle" x="764.903" y="-237.151" font-family="Helvetica,sans-Serif" font-size="14.00">drug</text>

</g>
<!-- price&#45;&gt;drug -->
<g id="edge80" class="edge"><title>price&#45;&gt;drug</title>
<path fill="none" stroke="black" d="M846.269,-341.243C830.189,-321.581 803.295,-288.696 784.859,-266.152"/>
<polygon fill="black" stroke="black" points="787.525,-263.884 778.485,-258.359 782.106,-268.315 787.525,-263.884"/>
</g>
<!-- quality&#45;&gt;??? -->
<g id="edge94" class="edge"><title>quality&#45;&gt;???</title>
<path fill="none" stroke="black" d="M385.86,-253.04C409.762,-304.045 491.595,-449.129 529.038,-507.533"/>
<polygon fill="black" stroke="black" points="526.254,-509.672 534.65,-516.135 532.117,-505.847 526.254,-509.672"/>
</g>
<!-- quality&#45;&gt;health -->
<g id="edge90" class="edge"><title>quality&#45;&gt;health</title>
<path fill="none" stroke="black" d="M379.419,-253.169C379.383,-277.199 379.32,-319.801 379.278,-348.01"/>
<polygon fill="black" stroke="black" points="375.778,-348.043 379.264,-358.048 382.778,-348.054 375.778,-348.043"/>
</g>
<!-- quality&#45;&gt;cost -->
<g id="edge98" class="edge"><title>quality&#45;&gt;cost</title>
<path fill="none" stroke="black" d="M364.998,-251.758C350.142,-268.984 326.871,-295.967 310.096,-315.417"/>
<polygon fill="black" stroke="black" points="307.228,-313.383 303.348,-323.242 312.529,-317.955 307.228,-313.383"/>
</g>
<!-- quality&#45;&gt;care -->
<g id="edge86" class="edge"><title>quality&#45;&gt;care</title>
<path fill="none" stroke="black" d="M348.33,-246.168C320.413,-256.181 279.439,-270.878 250.097,-281.403"/>
<polygon fill="black" stroke="black" points="248.859,-278.129 240.627,-284.8 251.222,-284.718 248.859,-278.129"/>
</g>
<!-- affordable -->
<g id="node79" class="node"><title>affordable</title>

<ellipse fill="white" stroke="black" cx="314.014" cy="-117.566" rx="55.8503" ry="18"/>
<text text-anchor="middle" x="314.014" y="-112.966" font-family="Helvetica,sans-Serif" font-size="14.00">affordable</text>

</g>
<!-- quality&#45;&gt;affordable -->
<g id="edge84" class="edge"><title>quality&#45;&gt;affordable</title>
<path fill="none" stroke="black" d="M369.65,-217.425C358.919,-198.164 341.576,-167.037 329.105,-144.653"/>
<polygon fill="black" stroke="black" points="332.016,-142.687 324.092,-135.655 325.901,-146.094 332.016,-142.687"/>
</g>
<!-- improve -->
<g id="node82" class="node"><title>improve</title>

<ellipse fill="white" stroke="black" cx="204.049" cy="-124.643" rx="45.1145" ry="18"/>
<text text-anchor="middle" x="204.049" y="-120.043" font-family="Helvetica,sans-Serif" font-size="14.00">improve</text>

</g>
<!-- quality&#45;&gt;improve -->
<g id="edge88" class="edge"><title>quality&#45;&gt;improve</title>
<path fill="none" stroke="black" d="M356.154,-220.352C325.616,-201.136 271.855,-167.308 237.111,-145.446"/>
<polygon fill="black" stroke="black" points="238.61,-142.255 228.282,-139.891 234.882,-148.179 238.61,-142.255"/>
</g>
<!-- provide -->
<g id="node85" class="node"><title>provide</title>

<ellipse fill="white" stroke="black" cx="330.109" cy="-19" rx="42.9325" ry="18"/>
<text text-anchor="middle" x="330.109" y="-14.4" font-family="Helvetica,sans-Serif" font-size="14.00">provide</text>

</g>
<!-- quality&#45;&gt;provide -->
<g id="edge92" class="edge"><title>quality&#45;&gt;provide</title>
<path fill="none" stroke="black" d="M375.324,-216.962C366.726,-179.32 346.825,-92.1891 336.533,-47.1255"/>
<polygon fill="black" stroke="black" points="339.892,-46.1153 334.253,-37.1457 333.068,-47.674 339.892,-46.1153"/>
</g>
<!-- healthcare -->
<g id="node88" class="node"><title>healthcare</title>

<ellipse fill="white" stroke="black" cx="508.547" cy="-156.177" rx="57.1889" ry="18"/>
<text text-anchor="middle" x="508.547" y="-151.577" font-family="Helvetica,sans-Serif" font-size="14.00">healthcare</text>

</g>
<!-- quality&#45;&gt;healthcare -->
<g id="edge96" class="edge"><title>quality&#45;&gt;healthcare</title>
<path fill="none" stroke="black" d="M403.125,-220.548C422.918,-208.463 451.421,-191.059 473.8,-177.394"/>
<polygon fill="black" stroke="black" points="475.643,-180.369 482.354,-172.171 471.995,-174.395 475.643,-180.369"/>
</g>
<!-- everyone -->
<g id="node91" class="node"><title>everyone</title>

<ellipse fill="white" stroke="black" cx="448.796" cy="-53.835" rx="50.9823" ry="18"/>
<text text-anchor="middle" x="448.796" y="-49.235" font-family="Helvetica,sans-Serif" font-size="14.00">everyone</text>

</g>
<!-- quality&#45;&gt;everyone -->
<g id="edge100" class="edge"><title>quality&#45;&gt;everyone</title>
<path fill="none" stroke="black" d="M386.348,-216.973C398.499,-185.231 423.78,-119.187 438.17,-81.5929"/>
<polygon fill="black" stroke="black" points="441.614,-82.3864 441.92,-71.7959 435.077,-79.8839 441.614,-82.3864"/>
</g>
</g>
</svg>
