<?xml version="1.0" encoding="UTF-8" standalone="no"?>
<!DOCTYPE svg PUBLIC "-//W3C//DTD SVG 1.1//EN"
 "http://www.w3.org/Graphics/SVG/1.1/DTD/svg11.dtd">
<!-- Generated by graphviz version 2.26.3 (20100126.1600)
 -->
<!-- Title: ??? Pages: 1 -->
<svg width="1210.3pt" height="1231.3pt"
 viewBox="0.00 0.00 1728.69 1758.75" xmlns="http://www.w3.org/2000/svg" xmlns:xlink="http://www.w3.org/1999/xlink">
<g id="graph1" class="graph" transform="scale(1 1) rotate(0) translate(4 1754.75)">
<title>???</title>
<polygon fill="white" stroke="white" points="-4,5 -4,-1754.75 1725.69,-1754.75 1725.69,5 -4,5"/>
<!-- ??? -->
<g id="node1" class="node"><title>school</title>
<ellipse fill="brown" stroke="black" cx="814.567" cy="-910.2" rx="38.9076" ry="18"/>
<text text-anchor="middle" x="814.567" y="-905.6" font-family="Helvetica,sans-Serif" font-size="14.00" fill="white">???</text>

</g>
<!-- law -->
<g id="node3" class="node"><title>law</title>

<ellipse fill="white" stroke="black" cx="1144.83" cy="-1405.83" rx="27" ry="18"/>
<text text-anchor="middle" x="1144.83" y="-1401.23" font-family="Helvetica,sans-Serif" font-size="14.00">law</text>

</g>
<!-- ???&#45;&gt;law -->
<g id="edge2" class="edge"><title>???&#45;&gt;law</title>
<path fill="none" stroke="black" d="M823.196,-927.856C866.922,-1003.06 1062.06,-1296.26 1125.19,-1382.12"/>
<polygon fill="black" stroke="black" points="1122.44,-1384.28 1131.21,-1390.22 1128.05,-1380.1 1122.44,-1384.28"/>
</g>
<!-- high -->
<g id="node22" class="node"><title>high</title>

<ellipse fill="white" stroke="black" cx="1393.44" cy="-807" rx="28.8453" ry="18"/>
<text text-anchor="middle" x="1393.44" y="-802.4" font-family="Helvetica,sans-Serif" font-size="14.00">high</text>

</g>
<!-- ???&#45;&gt;high -->
<g id="edge22" class="edge"><title>???&#45;&gt;high</title>
<path fill="none" stroke="black" d="M853.173,-906.934C959.219,-892.364 1253.92,-839.81 1357.15,-817.04"/>
<polygon fill="black" stroke="black" points="1358.11,-820.412 1367.1,-814.802 1356.57,-813.583 1358.11,-820.412"/>
</g>
<!-- go -->
<g id="node41" class="node"><title>go</title>

<ellipse fill="white" stroke="black" cx="402.836" cy="-1321.5" rx="27" ry="18"/>
<text text-anchor="middle" x="402.836" y="-1316.9" font-family="Helvetica,sans-Serif" font-size="14.00">go</text>

</g>
<!-- ???&#45;&gt;go -->
<g id="edge42" class="edge"><title>???&#45;&gt;go</title>
<path fill="none" stroke="black" d="M794.788,-925.784C725.045,-988.438 491.734,-1221.37 422.372,-1297.4"/>
<polygon fill="black" stroke="black" points="419.554,-1295.3 415.459,-1305.07 424.754,-1299.98 419.554,-1295.3"/>
</g>
<!-- child -->
<g id="node60" class="node"><title>child</title>

<ellipse fill="white" stroke="black" cx="824.52" cy="-371.343" rx="30.8577" ry="18"/>
<text text-anchor="middle" x="824.52" y="-366.743" font-family="Helvetica,sans-Serif" font-size="14.00">child</text>

</g>
<!-- ???&#45;&gt;child -->
<g id="edge62" class="edge"><title>???&#45;&gt;child</title>
<path fill="none" stroke="black" d="M817.554,-892.012C824.29,-812.627 830.325,-496.162 827.22,-399.518"/>
<polygon fill="black" stroke="black" points="830.711,-399.204 826.82,-389.35 823.716,-399.48 830.711,-399.204"/>
</g>
<!-- student -->
<g id="node77" class="node"><title>student</title>

<ellipse fill="white" stroke="black" cx="400.696" cy="-900.512" rx="43.1021" ry="18"/>
<text text-anchor="middle" x="400.696" y="-895.912" font-family="Helvetica,sans-Serif" font-size="14.00">student</text>

</g>
<!-- ???&#45;&gt;student -->
<g id="edge80" class="edge"><title>???&#45;&gt;student</title>
<path fill="none" stroke="black" d="M776.837,-905.219C702.686,-900.148 537.826,-896.097 453.137,-897.068"/>
<polygon fill="black" stroke="black" points="452.919,-893.571 442.971,-897.216 453.021,-900.57 452.919,-893.571"/>
</g>
<!-- attend -->
<g id="node95" class="node"><title>attend</title>

<ellipse fill="white" stroke="black" cx="473.756" cy="-541.698" rx="39.0774" ry="18"/>
<text text-anchor="middle" x="473.756" y="-537.098" font-family="Helvetica,sans-Serif" font-size="14.00">attend</text>

</g>
<!-- ???&#45;&gt;attend -->
<g id="edge100" class="edge"><title>???&#45;&gt;attend</title>
<path fill="none" stroke="black" d="M802.496,-892.857C753.415,-832.636 569.313,-633.214 500.145,-564.855"/>
<polygon fill="black" stroke="black" points="502.271,-562.039 492.674,-557.55 497.378,-567.044 502.271,-562.039"/>
</g>
<!-- law&#45;&gt;??? -->
<g id="edge4" class="edge"><title>law&#45;&gt;???</title>
<path fill="none" stroke="black" d="M1136.37,-1388.46C1093.19,-1314.08 899.284,-1022.68 835.124,-935.155"/>
<polygon fill="black" stroke="black" points="837.924,-933.054 829.157,-927.105 832.3,-937.223 837.924,-933.054"/>
</g>
<!-- enforcement -->
<g id="node6" class="node"><title>enforcement</title>

<ellipse fill="white" stroke="black" cx="1152.73" cy="-1227.68" rx="67.082" ry="18"/>
<text text-anchor="middle" x="1152.73" y="-1223.08" font-family="Helvetica,sans-Serif" font-size="14.00">enforcement</text>

</g>
<!-- law&#45;&gt;enforcement -->
<g id="edge6" class="edge"><title>law&#45;&gt;enforcement</title>
<path fill="none" stroke="black" d="M1145.63,-1387.77C1147.01,-1356.69 1149.84,-1292.89 1151.48,-1255.9"/>
<polygon fill="black" stroke="black" points="1154.98,-1255.93 1151.92,-1245.79 1147.98,-1255.62 1154.98,-1255.93"/>
</g>
<!-- enforce -->
<g id="node8" class="node"><title>enforce</title>
<ellipse fill="white" stroke="black" cx="1393.19" cy="-1453.26" rx="44.945" ry="18"/>
<text text-anchor="middle" x="1393.19" y="-1448.66" font-family="Helvetica,sans-Serif" font-size="14.00">enforce</text>
</g>
<!-- law&#45;&gt;enforce -->
<g id="edge8" class="edge"><title>law&#45;&gt;enforce</title>
<path fill="none" stroke="black" d="M1170.94,-1410.82C1211.46,-1418.55 1290.21,-1433.59 1342.25,-1443.53"/>
<polygon fill="black" stroke="black" points="1341.81,-1447.01 1352.28,-1445.44 1343.12,-1440.13 1341.81,-1447.01"/>
</g>
<!-- pass -->
<g id="node10" class="node"><title>pass</title>

<ellipse fill="white" stroke="black" cx="1414.56" cy="-1310.45" rx="30.8577" ry="18"/>
<text text-anchor="middle" x="1414.56" y="-1305.85" font-family="Helvetica,sans-Serif" font-size="14.00">pass</text>

</g>
<!-- law&#45;&gt;pass -->
<g id="edge10" class="edge"><title>law&#45;&gt;pass</title>
<path fill="none" stroke="black" d="M1168.77,-1397.37C1216.2,-1380.59 1322.38,-1343.05 1378.39,-1323.24"/>
<polygon fill="black" stroke="black" points="1379.65,-1326.51 1387.91,-1319.88 1377.31,-1319.91 1379.65,-1326.51"/>
</g>
<!-- firm -->
<g id="node12" class="node"><title>firm</title>
<ellipse fill="white" stroke="black" cx="1129.98" cy="-1571.5" rx="28.1745" ry="18"/>
<text text-anchor="middle" x="1129.98" y="-1566.9" font-family="Helvetica,sans-Serif" font-size="14.00">firm</text>
</g>
<!-- law&#45;&gt;firm -->
<g id="edge12" class="edge"><title>law&#45;&gt;firm</title>
<path fill="none" stroke="black" d="M1143.21,-1423.87C1140.64,-1452.63 1135.58,-1509.08 1132.52,-1543.24"/>
<polygon fill="black" stroke="black" points="1129,-1543.21 1131.6,-1553.48 1135.98,-1543.83 1129,-1543.21"/>
</g>
<!-- sign -->
<g id="node14" class="node"><title>sign</title>

<ellipse fill="white" stroke="black" cx="1426.41" cy="-1607.61" rx="28.1745" ry="18"/>
<text text-anchor="middle" x="1426.41" y="-1603.01" font-family="Helvetica,sans-Serif" font-size="14.00">sign</text>

</g>
<!-- law&#45;&gt;sign -->
<g id="edge14" class="edge"><title>law&#45;&gt;sign</title>
<path fill="none" stroke="black" d="M1163.31,-1419.07C1211.72,-1453.76 1342.45,-1547.44 1399.34,-1588.21"/>
<polygon fill="black" stroke="black" points="1397.33,-1591.08 1407.5,-1594.06 1401.41,-1585.39 1397.33,-1591.08"/>
</g>
<!-- equal -->
<g id="node16" class="node"><title>equal</title>

<ellipse fill="white" stroke="black" cx="1256.18" cy="-1665.59" rx="34.8827" ry="18"/>
<text text-anchor="middle" x="1256.18" y="-1660.99" font-family="Helvetica,sans-Serif" font-size="14.00">equal</text>

</g>
<!-- law&#45;&gt;equal -->
<g id="edge16" class="edge"><title>law&#45;&gt;equal</title>
<path fill="none" stroke="black" d="M1152.31,-1423.28C1171.32,-1467.63 1221.61,-1584.94 1244.52,-1638.38"/>
<polygon fill="black" stroke="black" points="1241.43,-1640.07 1248.59,-1647.88 1247.87,-1637.31 1241.43,-1640.07"/>
</g>
<!-- rule -->
<g id="node18" class="node"><title>rule</title>

<ellipse fill="white" stroke="black" cx="1095.84" cy="-1731.75" rx="27.0036" ry="18"/>
<text text-anchor="middle" x="1095.84" y="-1727.15" font-family="Helvetica,sans-Serif" font-size="14.00">rule</text>

</g>
<!-- law&#45;&gt;rule -->
<g id="edge18" class="edge"><title>law&#45;&gt;rule</title>
<path fill="none" stroke="black" d="M1142.13,-1423.82C1134.01,-1477.79 1109.83,-1638.67 1100.04,-1703.85"/>
<polygon fill="black" stroke="black" points="1096.56,-1703.41 1098.54,-1713.82 1103.49,-1704.45 1096.56,-1703.41"/>
</g>
<!-- intelligence -->
<g id="node20" class="node"><title>intelligence</title>
<ellipse fill="white" stroke="black" cx="945.917" cy="-1597.51" rx="59.2013" ry="18"/>
<text text-anchor="middle" x="945.917" y="-1592.91" font-family="Helvetica,sans-Serif" font-size="14.00">intelligence</text>
</g>
<!-- law&#45;&gt;intelligence -->
<g id="edge20" class="edge"><title>law&#45;&gt;intelligence</title>
<path fill="none" stroke="black" d="M1129.22,-1420.87C1094.99,-1453.85 1013.06,-1532.8 971.311,-1573.04"/>
<polygon fill="black" stroke="black" points="968.775,-1570.62 964.003,-1580.08 973.633,-1575.66 968.775,-1570.62"/>
</g>
<!-- high&#45;&gt;??? -->
<g id="edge24" class="edge"><title>high&#45;&gt;???</title>
<path fill="none" stroke="black" d="M1364.58,-808.967C1270.22,-821.12 970.507,-874.329 857.891,-898.626"/>
<polygon fill="black" stroke="black" points="856.922,-895.255 847.903,-900.815 858.421,-902.093 856.922,-895.255"/>
</g>
<!-- rate -->
<g id="node25" class="node"><title>rate</title>

<ellipse fill="white" stroke="black" cx="1649.46" cy="-903.011" rx="29.0158" ry="18"/>
<text text-anchor="middle" x="1649.46" y="-898.411" font-family="Helvetica,sans-Serif" font-size="14.00">rate</text>

</g>
<!-- high&#45;&gt;rate -->
<g id="edge26" class="edge"><title>high&#45;&gt;rate</title>
<path fill="none" stroke="black" d="M1418.46,-816.38C1464.44,-833.624 1562.47,-870.387 1614.82,-890.02"/>
<polygon fill="black" stroke="black" points="1613.75,-893.358 1624.35,-893.592 1616.21,-886.804 1613.75,-893.358"/>
</g>
<!-- education -->
<g id="node27" class="node"><title>education</title>

<ellipse fill="white" stroke="black" cx="1648.72" cy="-1031.8" rx="53.1641" ry="18"/>
<text text-anchor="middle" x="1648.72" y="-1027.2" font-family="Helvetica,sans-Serif" font-size="14.00">education</text>

</g>
<!-- high&#45;&gt;education -->
<g id="edge28" class="edge"><title>high&#45;&gt;education</title>
<path fill="none" stroke="black" d="M1410.19,-821.749C1453.45,-859.843 1569.19,-961.769 1621.91,-1008.19"/>
<polygon fill="black" stroke="black" points="1619.69,-1010.9 1629.51,-1014.88 1624.32,-1005.65 1619.69,-1010.9"/>
</g>
<!-- price -->
<g id="node29" class="node"><title>price</title>

<ellipse fill="white" stroke="black" cx="1431.21" cy="-1003.9" rx="32.1994" ry="18"/>
<text text-anchor="middle" x="1431.21" y="-999.303" font-family="Helvetica,sans-Serif" font-size="14.00">price</text>

</g>
<!-- high&#45;&gt;price -->
<g id="edge30" class="edge"><title>high&#45;&gt;price</title>
<path fill="none" stroke="black" d="M1396.93,-825.171C1403.55,-859.678 1417.97,-934.898 1425.84,-975.897"/>
<polygon fill="black" stroke="black" points="1422.41,-976.614 1427.73,-985.776 1429.29,-975.296 1422.41,-976.614"/>
</g>
<!-- quality -->
<g id="node31" class="node"><title>quality</title>

<ellipse fill="white" stroke="black" cx="1487.69" cy="-654.888" rx="39.0774" ry="18"/>
<text text-anchor="middle" x="1487.69" y="-650.288" font-family="Helvetica,sans-Serif" font-size="14.00">quality</text>

</g>
<!-- high&#45;&gt;quality -->
<g id="edge32" class="edge"><title>high&#45;&gt;quality</title>
<path fill="none" stroke="black" d="M1403.89,-790.14C1420.29,-763.669 1452.21,-712.16 1471.57,-680.909"/>
<polygon fill="black" stroke="black" points="1474.62,-682.635 1476.91,-672.291 1468.67,-678.948 1474.62,-682.635"/>
</g>
<!-- blood -->
<g id="node33" class="node"><title>blood</title>
<ellipse fill="white" stroke="black" cx="1495.8" cy="-492.242" rx="34.8827" ry="18"/>
<text text-anchor="middle" x="1495.8" y="-487.642" font-family="Helvetica,sans-Serif" font-size="14.00">blood</text>
</g>
<!-- high&#45;&gt;blood -->
<g id="edge34" class="edge"><title>high&#45;&gt;blood</title>
<path fill="none" stroke="black" d="M1399.24,-789.175C1416.26,-736.819 1466.22,-583.213 1486.79,-519.953"/>
<polygon fill="black" stroke="black" points="1490.18,-520.854 1489.94,-510.261 1483.52,-518.689 1490.18,-520.854"/>
</g>
<!-- priority -->
<g id="node35" class="node"><title>priority</title>

<ellipse fill="white" stroke="black" cx="1268.06" cy="-648.822" rx="40.92" ry="18"/>
<text text-anchor="middle" x="1268.06" y="-644.222" font-family="Helvetica,sans-Serif" font-size="14.00">priority</text>

</g>
<!-- high&#45;&gt;priority -->
<g id="edge36" class="edge"><title>high&#45;&gt;priority</title>
<path fill="none" stroke="black" d="M1380.49,-790.668C1358.67,-763.133 1314.39,-707.276 1288.39,-674.47"/>
<polygon fill="black" stroke="black" points="1290.84,-671.926 1281.88,-666.264 1285.35,-676.275 1290.84,-671.926"/>
</g>
<!-- junior -->
<g id="node37" class="node"><title>junior</title>
<ellipse fill="white" stroke="black" cx="1659.81" cy="-636.94" rx="34.2118" ry="18"/>
<text text-anchor="middle" x="1659.81" y="-632.34" font-family="Helvetica,sans-Serif" font-size="14.00">junior</text>
</g>
<!-- high&#45;&gt;junior -->
<g id="edge38" class="edge"><title>high&#45;&gt;junior</title>
<path fill="none" stroke="black" d="M1413.9,-793.938C1460.41,-764.247 1574.27,-691.553 1629.19,-656.488"/>
<polygon fill="black" stroke="black" points="1631.25,-659.327 1637.8,-650.995 1627.48,-653.427 1631.25,-659.327"/>
</g>
<!-- pressure -->
<g id="node39" class="node"><title>pressure</title>

<ellipse fill="white" stroke="black" cx="1671.19" cy="-778.821" rx="47.8011" ry="18"/>
<text text-anchor="middle" x="1671.19" y="-774.221" font-family="Helvetica,sans-Serif" font-size="14.00">pressure</text>

</g>
<!-- high&#45;&gt;pressure -->
<g id="edge40" class="edge"><title>high&#45;&gt;pressure</title>
<path fill="none" stroke="black" d="M1422.12,-804.09C1467.36,-799.5 1556.14,-790.493 1614.56,-784.566"/>
<polygon fill="black" stroke="black" points="1615.15,-788.024 1624.74,-783.533 1614.44,-781.06 1615.15,-788.024"/>
</g>
<!-- go&#45;&gt;??? -->
<g id="edge54" class="edge"><title>go&#45;&gt;???</title>
<path fill="none" stroke="black" d="M420.448,-1307.85C487.121,-1248.46 723.075,-1012.99 794.2,-935.21"/>
<polygon fill="black" stroke="black" points="797.193,-937.117 801.302,-927.351 792,-932.424 797.193,-937.117"/>
</g>
<!-- we&#39;re -->
<g id="node43" class="node"><title>we&#39;re</title>

<ellipse fill="white" stroke="black" cx="592.025" cy="-1448.34" rx="34.2118" ry="18"/>
<text text-anchor="middle" x="592.025" y="-1443.74" font-family="Helvetica,sans-Serif" font-size="14.00">we&#39;re</text>

</g>
<!-- go&#45;&gt;we&#39;re -->
<g id="edge44" class="edge"><title>go&#45;&gt;we&#39;re</title>
<path fill="none" stroke="black" d="M422.018,-1334.36C455.118,-1356.55 523.175,-1402.18 562.4,-1428.48"/>
<polygon fill="black" stroke="black" points="560.522,-1431.43 570.777,-1434.09 564.42,-1425.62 560.522,-1431.43"/>
</g>
<!-- We&#39;re -->
<g id="node45" class="node"><title>We&#39;re</title>

<ellipse fill="white" stroke="black" cx="534.742" cy="-1629.86" rx="36.8951" ry="18"/>
<text text-anchor="middle" x="534.742" y="-1625.26" font-family="Helvetica,sans-Serif" font-size="14.00">We&#39;re</text>

</g>
<!-- go&#45;&gt;We&#39;re -->
<g id="edge46" class="edge"><title>go&#45;&gt;We&#39;re</title>
<path fill="none" stroke="black" d="M410.306,-1338.96C432.247,-1390.25 496.619,-1540.74 523.129,-1602.71"/>
<polygon fill="black" stroke="black" points="520.039,-1604.39 527.19,-1612.21 526.475,-1601.64 520.039,-1604.39"/>
</g>
<!-- I&#39;m -->
<g id="node47" class="node"><title>I&#39;m</title>

<ellipse fill="white" stroke="black" cx="269.627" cy="-1439.07" rx="27" ry="18"/>
<text text-anchor="middle" x="269.627" y="-1434.47" font-family="Helvetica,sans-Serif" font-size="14.00">I&#39;m</text>

</g>
<!-- go&#45;&gt;I&#39;m -->
<g id="edge48" class="edge"><title>go&#45;&gt;I&#39;m</title>
<path fill="none" stroke="black" d="M386.502,-1335.91C363.332,-1356.36 320.759,-1393.94 293.89,-1417.65"/>
<polygon fill="black" stroke="black" points="291.276,-1415.29 286.095,-1424.53 295.908,-1420.54 291.276,-1415.29"/>
</g>
<!-- keep -->
<g id="node49" class="node"><title>keep</title>

<ellipse fill="white" stroke="black" cx="383.973" cy="-1616.87" rx="31.0281" ry="18"/>
<text text-anchor="middle" x="383.973" y="-1612.27" font-family="Helvetica,sans-Serif" font-size="14.00">keep</text>

</g>
<!-- go&#45;&gt;keep -->
<g id="edge50" class="edge"><title>go&#45;&gt;keep</title>
<path fill="none" stroke="black" d="M401.684,-1339.53C398.514,-1389.17 389.64,-1528.14 385.791,-1588.4"/>
<polygon fill="black" stroke="black" points="382.278,-1588.49 385.134,-1598.69 389.264,-1588.94 382.278,-1588.49"/>
</g>
<!-- college -->
<g id="node51" class="node"><title>college</title>

<ellipse fill="white" stroke="black" cx="306.831" cy="-929.911" rx="41.7645" ry="18"/>
<text text-anchor="middle" x="306.831" y="-925.311" font-family="Helvetica,sans-Serif" font-size="14.00">college</text>

</g>
<!-- go&#45;&gt;college -->
<g id="edge52" class="edge"><title>go&#45;&gt;college</title>
<path fill="none" stroke="black" d="M398.461,-1303.66C383.186,-1241.35 332.147,-1033.17 313.622,-957.612"/>
<polygon fill="black" stroke="black" points="317.012,-956.738 311.231,-947.86 310.213,-958.405 317.012,-956.738"/>
</g>
<!-- door -->
<g id="node54" class="node"><title>door</title>

<ellipse fill="white" stroke="black" cx="111.299" cy="-1452.8" rx="31.0281" ry="18"/>
<text text-anchor="middle" x="111.299" y="-1448.2" font-family="Helvetica,sans-Serif" font-size="14.00">door</text>

</g>
<!-- go&#45;&gt;door -->
<g id="edge56" class="edge"><title>go&#45;&gt;door</title>
<path fill="none" stroke="black" d="M380.444,-1331.58C329.67,-1354.45 205.54,-1410.35 145.258,-1437.5"/>
<polygon fill="black" stroke="black" points="143.489,-1434.46 135.808,-1441.76 146.363,-1440.84 143.489,-1434.46"/>
</g>
<!-- like -->
<g id="node56" class="node"><title>like</title>

<ellipse fill="white" stroke="black" cx="236.392" cy="-1631.43" rx="27" ry="18"/>
<text text-anchor="middle" x="236.392" y="-1626.83" font-family="Helvetica,sans-Serif" font-size="14.00">like</text>

</g>
<!-- go&#45;&gt;like -->
<g id="edge58" class="edge"><title>go&#45;&gt;like</title>
<path fill="none" stroke="black" d="M393.65,-1338.6C366.028,-1390.04 283.588,-1543.55 250.432,-1605.29"/>
<polygon fill="black" stroke="black" points="247.197,-1603.92 245.549,-1614.38 253.364,-1607.23 247.197,-1603.92"/>
</g>
<!-- thank -->
<g id="node58" class="node"><title>thank</title>

<ellipse fill="white" stroke="black" cx="79.4015" cy="-1295.91" rx="34.8827" ry="18"/>
<text text-anchor="middle" x="79.4015" y="-1291.31" font-family="Helvetica,sans-Serif" font-size="14.00">thank</text>

</g>
<!-- go&#45;&gt;thank -->
<g id="edge60" class="edge"><title>go&#45;&gt;thank</title>
<path fill="none" stroke="black" d="M375.816,-1319.36C320.146,-1314.96 192.185,-1304.83 124.03,-1299.44"/>
<polygon fill="black" stroke="black" points="124.27,-1295.95 114.025,-1298.65 123.718,-1302.93 124.27,-1295.95"/>
</g>
<!-- child&#45;&gt;??? -->
<g id="edge70" class="edge"><title>child&#45;&gt;???</title>
<path fill="none" stroke="black" d="M821.533,-389.531C814.797,-468.917 808.762,-785.381 811.867,-882.025"/>
<polygon fill="black" stroke="black" points="808.376,-882.339 812.267,-892.194 815.371,-882.064 808.376,-882.339"/>
</g>
<!-- grandchild -->
<g id="node62" class="node"><title>grandchild</title>

<ellipse fill="white" stroke="black" cx="856.582" cy="-156.389" rx="55.1765" ry="18"/>
<text text-anchor="middle" x="856.582" y="-151.789" font-family="Helvetica,sans-Serif" font-size="14.00">grandchild</text>

</g>
<!-- child&#45;&gt;grandchild -->
<g id="edge64" class="edge"><title>child&#45;&gt;grandchild</title>
<path fill="none" stroke="black" d="M827.199,-353.386C832.786,-315.927 845.719,-229.221 852.408,-184.378"/>
<polygon fill="black" stroke="black" points="855.875,-184.853 853.889,-174.446 848.952,-183.821 855.875,-184.853"/>
</g>
<!-- care -->
<g id="node64" class="node"><title>care</title>

<ellipse fill="white" stroke="black" cx="802.746" cy="-19" rx="30.8577" ry="18"/>
<text text-anchor="middle" x="802.746" y="-14.4" font-family="Helvetica,sans-Serif" font-size="14.00">care</text>

</g>
<!-- child&#45;&gt;care -->
<g id="edge66" class="edge"><title>child&#45;&gt;care</title>
<path fill="none" stroke="black" d="M823.38,-352.895C819.809,-295.101 808.818,-117.256 804.507,-47.4976"/>
<polygon fill="black" stroke="black" points="807.985,-47.0298 803.875,-37.2648 800.999,-47.4617 807.985,-47.0298"/>
</g>
<!-- raise -->
<g id="node66" class="node"><title>raise</title>

<ellipse fill="white" stroke="black" cx="654.873" cy="-163.122" rx="32.1994" ry="18"/>
<text text-anchor="middle" x="654.873" y="-158.522" font-family="Helvetica,sans-Serif" font-size="14.00">raise</text>

</g>
<!-- child&#45;&gt;raise -->
<g id="edge68" class="edge"><title>child&#45;&gt;raise</title>
<path fill="none" stroke="black" d="M811.208,-355.004C781.551,-318.603 709.905,-230.667 674.857,-187.649"/>
<polygon fill="black" stroke="black" points="677.388,-185.215 668.358,-179.673 671.961,-189.636 677.388,-185.215"/>
</g>
<!-- mandate -->
<g id="node69" class="node"><title>mandate</title>

<ellipse fill="white" stroke="black" cx="1043.72" cy="-403.964" rx="49.1393" ry="18"/>
<text text-anchor="middle" x="1043.72" y="-399.364" font-family="Helvetica,sans-Serif" font-size="14.00">mandate</text>

</g>
<!-- child&#45;&gt;mandate -->
<g id="edge72" class="edge"><title>child&#45;&gt;mandate</title>
<path fill="none" stroke="black" d="M854.999,-375.879C889.341,-380.989 945.874,-389.403 988.129,-395.691"/>
<polygon fill="black" stroke="black" points="987.863,-399.19 998.269,-397.2 988.893,-392.266 987.863,-399.19"/>
</g>
<!-- parent -->
<g id="node71" class="node"><title>parent</title>

<ellipse fill="white" stroke="black" cx="1002.81" cy="-123.722" rx="39.0774" ry="18"/>
<text text-anchor="middle" x="1002.81" y="-119.122" font-family="Helvetica,sans-Serif" font-size="14.00">parent</text>

</g>
<!-- child&#45;&gt;parent -->
<g id="edge74" class="edge"><title>child&#45;&gt;parent</title>
<path fill="none" stroke="black" d="M836.495,-354.711C867.05,-312.273 948.066,-199.753 984.549,-149.083"/>
<polygon fill="black" stroke="black" points="987.412,-151.097 990.415,-140.936 981.731,-147.006 987.412,-151.097"/>
</g>
<!-- unfunded -->
<g id="node73" class="node"><title>unfunded</title>
<ellipse fill="white" stroke="black" cx="896.909" cy="-514.451" rx="51.1517" ry="18"/>
<text text-anchor="middle" x="896.909" y="-509.851" font-family="Helvetica,sans-Serif" font-size="14.00">unfunded</text>
</g>
<!-- child&#45;&gt;unfunded -->
<g id="edge76" class="edge"><title>child&#45;&gt;unfunded</title>
<path fill="none" stroke="black" d="M833.396,-388.891C845.811,-413.433 868.477,-458.242 883.105,-487.162"/>
<polygon fill="black" stroke="black" points="880.095,-488.965 887.732,-496.308 886.341,-485.805 880.095,-488.965"/>
</g>
<!-- grandparent -->
<g id="node75" class="node"><title>grandparent</title>

<ellipse fill="white" stroke="black" cx="1124.86" cy="-220.974" rx="63.8995" ry="18"/>
<text text-anchor="middle" x="1124.86" y="-216.374" font-family="Helvetica,sans-Serif" font-size="14.00">grandparent</text>

</g>
<!-- child&#45;&gt;grandparent -->
<g id="edge78" class="edge"><title>child&#45;&gt;grandparent</title>
<path fill="none" stroke="black" d="M848.087,-359.544C899.227,-333.94 1020.88,-273.03 1084.51,-241.175"/>
<polygon fill="black" stroke="black" points="1086.09,-244.3 1093.46,-236.693 1082.95,-238.04 1086.09,-244.3"/>
</g>
<!-- student&#45;&gt;??? -->
<g id="edge86" class="edge"><title>student&#45;&gt;???</title>
<path fill="none" stroke="black" d="M442.175,-905.744C519.157,-910.773 683.754,-914.718 765.876,-913.597"/>
<polygon fill="black" stroke="black" points="766.008,-917.096 775.947,-913.426 765.888,-910.097 766.008,-917.096"/>
</g>
<!-- student&#45;&gt;college -->
<g id="edge82" class="edge"><title>student&#45;&gt;college</title>
<path fill="none" stroke="black" d="M366.011,-911.376C360.982,-912.951 355.753,-914.589 350.575,-916.211"/>
<polygon fill="black" stroke="black" points="349.245,-912.959 340.748,-919.288 351.337,-919.639 349.245,-912.959"/>
</g>
<!-- loan -->
<g id="node80" class="node"><title>loan</title>

<ellipse fill="white" stroke="black" cx="96.1454" cy="-774.091" rx="29.0158" ry="18"/>
<text text-anchor="middle" x="96.1454" y="-769.491" font-family="Helvetica,sans-Serif" font-size="14.00">loan</text>

</g>
<!-- student&#45;&gt;loan -->
<g id="edge84" class="edge"><title>student&#45;&gt;loan</title>
<path fill="none" stroke="black" d="M370.1,-887.812C312.803,-864.027 189.734,-812.94 130.023,-788.154"/>
<polygon fill="black" stroke="black" points="131.24,-784.869 120.662,-784.268 128.556,-791.334 131.24,-784.869"/>
</g>
<!-- Wellesley -->
<g id="node83" class="node"><title>Wellesley</title>
<ellipse fill="white" stroke="black" cx="52.5" cy="-950.963" rx="51.1517" ry="18"/>
<text text-anchor="middle" x="52.5" y="-946.363" font-family="Helvetica,sans-Serif" font-size="14.00">Wellesley</text>
</g>
<!-- student&#45;&gt;Wellesley -->
<g id="edge88" class="edge"><title>student&#45;&gt;Wellesley</title>
<path fill="none" stroke="black" d="M359.729,-906.448C297.788,-915.423 180.079,-932.478 109.712,-942.673"/>
<polygon fill="black" stroke="black" points="109.081,-939.228 99.6859,-944.126 110.085,-946.156 109.081,-939.228"/>
</g>
<!-- faculty -->
<g id="node85" class="node"><title>faculty</title>
<ellipse fill="white" stroke="black" cx="176.719" cy="-1073.1" rx="40.2492" ry="18"/>
<text text-anchor="middle" x="176.719" y="-1068.5" font-family="Helvetica,sans-Serif" font-size="14.00">faculty</text>
</g>
<!-- student&#45;&gt;faculty -->
<g id="edge90" class="edge"><title>student&#45;&gt;faculty</title>
<path fill="none" stroke="black" d="M380.026,-916.44C339.756,-947.471 250.74,-1016.07 205.026,-1051.29"/>
<polygon fill="black" stroke="black" points="202.8,-1048.59 197.016,-1057.46 207.073,-1054.13 202.8,-1048.59"/>
</g>
<!-- company -->
<g id="node87" class="node"><title>company</title>

<ellipse fill="white" stroke="black" cx="553.358" cy="-762.62" rx="49.1393" ry="18"/>
<text text-anchor="middle" x="553.358" y="-758.02" font-family="Helvetica,sans-Serif" font-size="14.00">company</text>

</g>
<!-- student&#45;&gt;company -->
<g id="edge92" class="edge"><title>student&#45;&gt;company</title>
<path fill="none" stroke="black" d="M418.808,-884.153C445.634,-859.922 496.079,-814.357 527.002,-786.426"/>
<polygon fill="black" stroke="black" points="529.719,-788.689 534.794,-779.389 525.027,-783.494 529.719,-788.689"/>
</g>
<!-- B -->
<g id="node89" class="node"><title>B</title>
<ellipse fill="white" stroke="black" cx="569.611" cy="-963.202" rx="27" ry="18"/>
<text text-anchor="middle" x="569.611" y="-958.602" font-family="Helvetica,sans-Serif" font-size="14.00">B</text>
</g>
<!-- student&#45;&gt;B -->
<g id="edge94" class="edge"><title>student&#45;&gt;B</title>
<path fill="none" stroke="black" d="M433.264,-912.599C462.894,-923.596 506.434,-939.755 536.295,-950.837"/>
<polygon fill="black" stroke="black" points="535.264,-954.188 545.857,-954.386 537.7,-947.626 535.264,-954.188"/>
</g>
<!-- graduate -->
<g id="node91" class="node"><title>graduate</title>

<ellipse fill="white" stroke="black" cx="343.224" cy="-713.059" rx="50.9823" ry="18"/>
<text text-anchor="middle" x="343.224" y="-708.459" font-family="Helvetica,sans-Serif" font-size="14.00">graduate</text>

</g>
<!-- student&#45;&gt;graduate -->
<g id="edge96" class="edge"><title>student&#45;&gt;graduate</title>
<path fill="none" stroke="black" d="M395.185,-882.538C385.101,-849.648 363.62,-779.583 351.676,-740.627"/>
<polygon fill="black" stroke="black" points="354.995,-739.513 348.718,-730.978 348.303,-741.565 354.995,-739.513"/>
</g>
<!-- majority -->
<g id="node93" class="node"><title>majority</title>

<ellipse fill="white" stroke="black" cx="475.912" cy="-1123.94" rx="45.1145" ry="18"/>
<text text-anchor="middle" x="475.912" y="-1119.34" font-family="Helvetica,sans-Serif" font-size="14.00">majority</text>

</g>
<!-- student&#45;&gt;majority -->
<g id="edge98" class="edge"><title>student&#45;&gt;majority</title>
<path fill="none" stroke="black" d="M406.724,-918.418C419.817,-957.311 450.933,-1049.74 466.584,-1096.23"/>
<polygon fill="black" stroke="black" points="463.347,-1097.58 469.855,-1105.94 469.982,-1095.35 463.347,-1097.58"/>
</g>
<!-- attend&#45;&gt;??? -->
<g id="edge104" class="edge"><title>attend&#45;&gt;???</title>
<path fill="none" stroke="black" d="M485.828,-559.041C534.908,-619.262 719.01,-818.685 788.178,-887.044"/>
<polygon fill="black" stroke="black" points="786.052,-889.86 795.649,-894.348 790.946,-884.855 786.052,-889.86"/>
</g>
<!-- attend&#45;&gt;college -->
<g id="edge102" class="edge"><title>attend&#45;&gt;college</title>
<path fill="none" stroke="black" d="M466.15,-559.388C439.537,-621.281 350.485,-828.386 318.442,-902.907"/>
<polygon fill="black" stroke="black" points="315.216,-901.549 314.482,-912.118 321.647,-904.314 315.216,-901.549"/>
</g>
<!-- attend&#45;&gt;child -->
<g id="edge108" class="edge"><title>attend&#45;&gt;child</title>
<path fill="none" stroke="black" d="M500.698,-528.614C563.975,-497.881 721.95,-421.158 791.155,-387.547"/>
<polygon fill="black" stroke="black" points="792.846,-390.617 800.312,-383.1 789.788,-384.32 792.846,-390.617"/>
</g>
<!-- four&#45;year -->
<g id="node99" class="node"><title>four&#45;year</title>
<ellipse fill="white" stroke="black" cx="353.749" cy="-364.627" rx="51.1517" ry="18"/>
<text text-anchor="middle" x="353.749" y="-360.027" font-family="Helvetica,sans-Serif" font-size="14.00">four&#45;year</text>
</g>
<!-- attend&#45;&gt;four&#45;year -->
<g id="edge106" class="edge"><title>attend&#45;&gt;four&#45;year</title>
<path fill="none" stroke="black" d="M462.031,-524.397C440.935,-493.27 396.467,-427.658 371.579,-390.935"/>
<polygon fill="black" stroke="black" points="374.207,-388.574 365.7,-382.26 368.413,-392.501 374.207,-388.574"/>
</g>
<!-- color -->
<g id="node102" class="node"><title>color</title>

<ellipse fill="white" stroke="black" cx="158.711" cy="-497.419" rx="32.8702" ry="18"/>
<text text-anchor="middle" x="158.711" y="-492.819" font-family="Helvetica,sans-Serif" font-size="14.00">color</text>

</g>
<!-- attend&#45;&gt;color -->
<g id="edge110" class="edge"><title>attend&#45;&gt;color</title>
<path fill="none" stroke="black" d="M436.379,-536.445C377.367,-528.151 262.968,-512.072 201.023,-503.366"/>
<polygon fill="black" stroke="black" points="201.21,-499.858 190.82,-501.932 200.236,-506.79 201.21,-499.858"/>
</g>
<!-- decide -->
<g id="node104" class="node"><title>decide</title>

<ellipse fill="white" stroke="black" cx="190.161" cy="-332.017" rx="40.2492" ry="18"/>
<text text-anchor="middle" x="190.161" y="-327.417" font-family="Helvetica,sans-Serif" font-size="14.00">decide</text>

</g>
<!-- attend&#45;&gt;decide -->
<g id="edge112" class="edge"><title>attend&#45;&gt;decide</title>
<path fill="none" stroke="black" d="M452.903,-526.28C403.018,-489.397 276.694,-395.997 219.316,-353.574"/>
<polygon fill="black" stroke="black" points="221.166,-350.589 211.045,-347.458 217.005,-356.218 221.166,-350.589"/>
</g>
<!-- don&#39;t -->
<g id="node106" class="node"><title>don&#39;t</title>

<ellipse fill="white" stroke="black" cx="413.616" cy="-212.32" rx="32.8702" ry="18"/>
<text text-anchor="middle" x="413.616" y="-207.72" font-family="Helvetica,sans-Serif" font-size="14.00">don&#39;t</text>

</g>
<!-- attend&#45;&gt;don&#39;t -->
<g id="edge114" class="edge"><title>attend&#45;&gt;don&#39;t</title>
<path fill="none" stroke="black" d="M470.437,-523.52C460.477,-468.97 430.792,-306.387 418.763,-240.51"/>
<polygon fill="black" stroke="black" points="422.164,-239.651 416.925,-230.442 415.278,-240.908 422.164,-239.651"/>
</g>
</g>
</svg>
