<?xml version="1.0" encoding="UTF-8" standalone="no"?>
<!DOCTYPE svg PUBLIC "-//W3C//DTD SVG 1.1//EN"
 "http://www.w3.org/Graphics/SVG/1.1/DTD/svg11.dtd">
<!-- Generated by graphviz version 2.26.3 (20100126.1600)
 -->
<!-- Title: ??? Pages: 1 -->
<svg width="826.7pt" height="809.9pt"
 viewBox="0.00 0.00 1181.42 1157.24" xmlns="http://www.w3.org/2000/svg" xmlns:xlink="http://www.w3.org/1999/xlink">
<g id="graph1" class="graph" transform="scale(1 1) rotate(0) translate(4 1153.24)">
<title>???</title>
<polygon fill="white" stroke="white" points="-4,5 -4,-1153.24 1178.42,-1153.24 1178.42,5 -4,5"/>
<!-- ??? -->
<g id="node1" class="node"><title>answer</title>

<ellipse fill="brown" stroke="black" cx="605.849" cy="-566.883" rx="41.0898" ry="18"/>
<text text-anchor="middle" x="605.849" y="-562.283" font-family="Helvetica,sans-Serif" font-size="14.00" fill="white">???</text>

</g>
<!-- question -->
<g id="node3" class="node"><title>question</title>

<ellipse fill="white" stroke="black" cx="242.437" cy="-615.918" rx="47.1269" ry="18"/>
<text text-anchor="middle" x="242.437" y="-611.318" font-family="Helvetica,sans-Serif" font-size="14.00">question</text>

</g>
<!-- ???&#45;&gt;question -->
<g id="edge2" class="edge"><title>???&#45;&gt;question</title>
<path fill="none" stroke="black" d="M564.624,-567.958C497.413,-574.067 364.488,-591.871 292.155,-604.327"/>
<polygon fill="black" stroke="black" points="291.18,-600.945 281.938,-606.124 292.393,-607.839 291.18,-600.945"/>
</g>
<!-- call -->
<g id="node22" class="node"><title>call</title>

<ellipse fill="white" stroke="black" cx="540.956" cy="-926.166" rx="27" ry="18"/>
<text text-anchor="middle" x="540.956" y="-921.566" font-family="Helvetica,sans-Serif" font-size="14.00">call</text>

</g>
<!-- ???&#45;&gt;call -->
<g id="edge22" class="edge"><title>???&#45;&gt;call</title>
<path fill="none" stroke="black" d="M599.277,-585.121C584.137,-643.651 550.821,-827.01 542.198,-897.849"/>
<polygon fill="black" stroke="black" points="538.715,-897.507 541.071,-907.836 545.67,-898.292 538.715,-897.507"/>
</g>
<!-- don&#39;t -->
<g id="node41" class="node"><title>don&#39;t</title>

<ellipse fill="white" stroke="black" cx="929.626" cy="-712.744" rx="32.8702" ry="18"/>
<text text-anchor="middle" x="929.626" y="-708.144" font-family="Helvetica,sans-Serif" font-size="14.00">don&#39;t</text>

</g>
<!-- ???&#45;&gt;don&#39;t -->
<g id="edge42" class="edge"><title>???&#45;&gt;don&#39;t</title>
<path fill="none" stroke="black" d="M634.582,-579.828C694.054,-606.62 830.453,-668.067 894.806,-697.057"/>
<polygon fill="black" stroke="black" points="893.571,-700.34 904.127,-701.256 896.447,-693.958 893.571,-700.34"/>
</g>
<!-- President -->
<g id="node61" class="node"><title>President</title>

<ellipse fill="white" stroke="black" cx="475.773" cy="-227.897" rx="52.9948" ry="18"/>
<text text-anchor="middle" x="475.773" y="-223.297" font-family="Helvetica,sans-Serif" font-size="14.00">President</text>

</g>
<!-- ???&#45;&gt;President -->
<g id="edge62" class="edge"><title>???&#45;&gt;President</title>
<path fill="none" stroke="black" d="M598.855,-548.658C577.322,-492.542 511.933,-322.133 486.27,-255.253"/>
<polygon fill="black" stroke="black" points="489.493,-253.883 482.643,-245.801 482.958,-256.391 489.493,-253.883"/>
</g>
<!-- talk -->
<g id="node81" class="node"><title>talk</title>

<ellipse fill="white" stroke="black" cx="868.263" cy="-340.922" rx="27" ry="18"/>
<text text-anchor="middle" x="868.263" y="-336.322" font-family="Helvetica,sans-Serif" font-size="14.00">talk</text>

</g>
<!-- ???&#45;&gt;talk -->
<g id="edge82" class="edge"><title>???&#45;&gt;talk</title>
<path fill="none" stroke="black" d="M624.721,-550.633C671.349,-510.482 791.966,-406.62 843.895,-361.905"/>
<polygon fill="black" stroke="black" points="846.324,-364.432 851.618,-355.255 841.756,-359.128 846.324,-364.432"/>
</g>
<!-- question&#45;&gt;??? -->
<g id="edge8" class="edge"><title>question&#45;&gt;???</title>
<path fill="none" stroke="black" d="M289.46,-614.304C359.627,-607.613 490.881,-589.901 560.226,-577.764"/>
<polygon fill="black" stroke="black" points="561.174,-581.15 570.399,-575.941 559.939,-574.259 561.174,-581.15"/>
</g>
<!-- crystal -->
<g id="node5" class="node"><title>crystal</title>

<ellipse fill="white" stroke="black" cx="40.5" cy="-657.432" rx="39.0774" ry="18"/>
<text text-anchor="middle" x="40.5" y="-652.832" font-family="Helvetica,sans-Serif" font-size="14.00">crystal</text>

</g>
<!-- question&#45;&gt;crystal -->
<g id="edge4" class="edge"><title>question&#45;&gt;crystal</title>
<path fill="none" stroke="black" d="M200.596,-624.52C167.303,-631.364 120.768,-640.931 86.4452,-647.987"/>
<polygon fill="black" stroke="black" points="85.304,-644.648 76.2136,-650.09 86.7136,-651.505 85.304,-644.648"/>
</g>
<!-- Patterson -->
<g id="node7" class="node"><title>Patterson</title>

<ellipse fill="white" stroke="black" cx="117.797" cy="-591.735" rx="53.838" ry="18"/>
<text text-anchor="middle" x="117.797" y="-587.135" font-family="Helvetica,sans-Serif" font-size="14.00">Patterson</text>

</g>
<!-- question&#45;&gt;Patterson -->
<g id="edge6" class="edge"><title>question&#45;&gt;Patterson</title>
<path fill="none" stroke="black" d="M200.24,-607.731C192.016,-606.135 183.27,-604.438 174.663,-602.768"/>
<polygon fill="black" stroke="black" points="175.146,-599.297 164.663,-600.828 173.813,-606.169 175.146,-599.297"/>
</g>
<!-- ask -->
<g id="node10" class="node"><title>ask</title>

<ellipse fill="white" stroke="black" cx="108.663" cy="-716.814" rx="27" ry="18"/>
<text text-anchor="middle" x="108.663" y="-712.214" font-family="Helvetica,sans-Serif" font-size="14.00">ask</text>

</g>
<!-- question&#45;&gt;ask -->
<g id="edge10" class="edge"><title>question&#45;&gt;ask</title>
<path fill="none" stroke="black" d="M220.944,-632.129C197.454,-649.846 159.821,-678.229 134.681,-697.191"/>
<polygon fill="black" stroke="black" points="132.548,-694.415 126.672,-703.231 136.763,-700.004 132.548,-694.415"/>
</g>
<!-- next -->
<g id="node12" class="node"><title>next</title>

<ellipse fill="white" stroke="black" cx="169.845" cy="-447.309" rx="29.0158" ry="18"/>
<text text-anchor="middle" x="169.845" y="-442.709" font-family="Helvetica,sans-Serif" font-size="14.00">next</text>

</g>
<!-- question&#45;&gt;next -->
<g id="edge12" class="edge"><title>question&#45;&gt;next</title>
<path fill="none" stroke="black" d="M234.669,-597.874C221.886,-568.183 196.349,-508.869 181.427,-474.209"/>
<polygon fill="black" stroke="black" points="184.51,-472.519 177.341,-464.718 178.08,-475.287 184.51,-472.519"/>
</g>
<!-- first -->
<g id="node14" class="node"><title>first</title>

<ellipse fill="white" stroke="black" cx="87.4017" cy="-504.926" rx="28.1745" ry="18"/>
<text text-anchor="middle" x="87.4017" y="-500.326" font-family="Helvetica,sans-Serif" font-size="14.00">first</text>

</g>
<!-- question&#45;&gt;first -->
<g id="edge14" class="edge"><title>question&#45;&gt;first</title>
<path fill="none" stroke="black" d="M220.225,-600.016C192.333,-580.048 144.511,-545.811 114.499,-524.325"/>
<polygon fill="black" stroke="black" points="116.336,-521.336 106.168,-518.361 112.261,-527.028 116.336,-521.336"/>
</g>
<!-- brown -->
<g id="node16" class="node"><title>brown</title>
<ellipse fill="white" stroke="black" cx="321.563" cy="-540.485" rx="36.8951" ry="18"/>
<text text-anchor="middle" x="321.563" y="-535.885" font-family="Helvetica,sans-Serif" font-size="14.00">brown</text>
</g>
<!-- question&#45;&gt;brown -->
<g id="edge16" class="edge"><title>question&#45;&gt;brown</title>
<path fill="none" stroke="black" d="M259.998,-599.177C270.904,-588.78 285.08,-575.265 297.08,-563.826"/>
<polygon fill="black" stroke="black" points="299.772,-566.095 304.594,-556.661 294.941,-561.028 299.772,-566.095"/>
</g>
<!-- Clinton -->
<g id="node18" class="node"><title>Clinton</title>

<ellipse fill="white" stroke="black" cx="261.806" cy="-743.595" rx="41.0898" ry="18"/>
<text text-anchor="middle" x="261.806" y="-738.995" font-family="Helvetica,sans-Serif" font-size="14.00">Clinton</text>

</g>
<!-- question&#45;&gt;Clinton -->
<g id="edge18" class="edge"><title>question&#45;&gt;Clinton</title>
<path fill="none" stroke="black" d="M245.171,-633.94C248.383,-655.112 253.75,-690.493 257.517,-715.326"/>
<polygon fill="black" stroke="black" points="254.063,-715.889 259.023,-725.251 260.984,-714.839 254.063,-715.889"/>
</g>
<!-- Crystal -->
<g id="node20" class="node"><title>Crystal</title>
<ellipse fill="white" stroke="black" cx="157.491" cy="-793.126" rx="41.0898" ry="18"/>
<text text-anchor="middle" x="157.491" y="-788.526" font-family="Helvetica,sans-Serif" font-size="14.00">Crystal</text>
</g>
<!-- question&#45;&gt;Crystal -->
<g id="edge20" class="edge"><title>question&#45;&gt;Crystal</title>
<path fill="none" stroke="black" d="M233.825,-633.885C218.84,-665.144 187.9,-729.689 170.36,-766.279"/>
<polygon fill="black" stroke="black" points="167.166,-764.844 166,-775.375 173.479,-767.87 167.166,-764.844"/>
</g>
<!-- call&#45;&gt;??? -->
<g id="edge28" class="edge"><title>call&#45;&gt;???</title>
<path fill="none" stroke="black" d="M547.399,-908.422C562.47,-850.468 595.922,-666.445 604.592,-595.32"/>
<polygon fill="black" stroke="black" points="608.08,-595.621 605.726,-585.291 601.125,-594.835 608.08,-595.621"/>
</g>
<!-- Village -->
<g id="node24" class="node"><title>Village</title>
<ellipse fill="white" stroke="black" cx="563.327" cy="-1130.24" rx="39.0774" ry="18"/>
<text text-anchor="middle" x="563.327" y="-1125.64" font-family="Helvetica,sans-Serif" font-size="14.00">Village</text>
</g>
<!-- call&#45;&gt;Village -->
<g id="edge24" class="edge"><title>call&#45;&gt;Village</title>
<path fill="none" stroke="black" d="M542.941,-944.276C546.855,-979.977 555.59,-1059.66 560.254,-1102.2"/>
<polygon fill="black" stroke="black" points="556.778,-1102.61 561.346,-1112.17 563.736,-1101.85 556.778,-1102.61"/>
</g>
<!-- phone -->
<g id="node26" class="node"><title>phone</title>

<ellipse fill="white" stroke="black" cx="564.952" cy="-1032.36" rx="37.0651" ry="18"/>
<text text-anchor="middle" x="564.952" y="-1027.76" font-family="Helvetica,sans-Serif" font-size="14.00">phone</text>

</g>
<!-- call&#45;&gt;phone -->
<g id="edge26" class="edge"><title>call&#45;&gt;phone</title>
<path fill="none" stroke="black" d="M545.027,-944.18C548.75,-960.656 554.317,-985.29 558.62,-1004.34"/>
<polygon fill="black" stroke="black" points="555.244,-1005.27 560.862,-1014.26 562.072,-1003.73 555.244,-1005.27"/>
</g>
<!-- ownership -->
<g id="node29" class="node"><title>ownership</title>
<ellipse fill="white" stroke="black" cx="454.673" cy="-1094.98" rx="53.1641" ry="18"/>
<text text-anchor="middle" x="454.673" y="-1090.38" font-family="Helvetica,sans-Serif" font-size="14.00">ownership</text>
</g>
<!-- call&#45;&gt;ownership -->
<g id="edge30" class="edge"><title>call&#45;&gt;ownership</title>
<path fill="none" stroke="black" d="M532.208,-943.282C517.209,-972.628 486.472,-1032.77 468.531,-1067.87"/>
<polygon fill="black" stroke="black" points="465.268,-1066.56 463.833,-1077.06 471.501,-1069.75 465.268,-1066.56"/>
</g>
<!-- book -->
<g id="node31" class="node"><title>book</title>

<ellipse fill="white" stroke="black" cx="371.577" cy="-1038.48" rx="31.0281" ry="18"/>
<text text-anchor="middle" x="371.577" y="-1033.88" font-family="Helvetica,sans-Serif" font-size="14.00">book</text>

</g>
<!-- call&#45;&gt;book -->
<g id="edge32" class="edge"><title>call&#45;&gt;book</title>
<path fill="none" stroke="black" d="M521.526,-939.05C491.933,-958.673 435.364,-996.182 400.799,-1019.1"/>
<polygon fill="black" stroke="black" points="398.495,-1016.43 392.095,-1024.87 402.364,-1022.26 398.495,-1016.43"/>
</g>
<!-- society -->
<g id="node33" class="node"><title>society</title>

<ellipse fill="white" stroke="black" cx="389.984" cy="-926.798" rx="41.0898" ry="18"/>
<text text-anchor="middle" x="389.984" y="-922.198" font-family="Helvetica,sans-Serif" font-size="14.00">society</text>

</g>
<!-- call&#45;&gt;society -->
<g id="edge34" class="edge"><title>call&#45;&gt;society</title>
<path fill="none" stroke="black" d="M513.616,-926.281C493.467,-926.365 465.463,-926.482 441.202,-926.583"/>
<polygon fill="black" stroke="black" points="441.052,-923.084 431.067,-926.626 441.082,-930.084 441.052,-923.084"/>
</g>
<!-- wake -->
<g id="node35" class="node"><title>wake</title>
<ellipse fill="white" stroke="black" cx="515.975" cy="-825.215" rx="33.0404" ry="18"/>
<text text-anchor="middle" x="515.975" y="-820.615" font-family="Helvetica,sans-Serif" font-size="14.00">wake</text>
</g>
<!-- call&#45;&gt;wake -->
<g id="edge36" class="edge"><title>call&#45;&gt;wake</title>
<path fill="none" stroke="black" d="M536.49,-908.118C532.689,-892.758 527.169,-870.449 522.812,-852.842"/>
<polygon fill="black" stroke="black" points="526.202,-851.973 520.403,-843.107 519.407,-853.655 526.202,-851.973"/>
</g>
<!-- what&#39;s -->
<g id="node37" class="node"><title>what&#39;s</title>

<ellipse fill="white" stroke="black" cx="675.085" cy="-936.164" rx="38.2368" ry="18"/>
<text text-anchor="middle" x="675.085" y="-931.564" font-family="Helvetica,sans-Serif" font-size="14.00">what&#39;s</text>

</g>
<!-- call&#45;&gt;what&#39;s -->
<g id="edge38" class="edge"><title>call&#45;&gt;what&#39;s</title>
<path fill="none" stroke="black" d="M568.099,-928.19C585.047,-929.453 607.344,-931.115 627.194,-932.594"/>
<polygon fill="black" stroke="black" points="627.077,-936.095 637.31,-933.349 627.597,-929.115 627.077,-936.095"/>
</g>
<!-- respond -->
<g id="node39" class="node"><title>respond</title>
<ellipse fill="white" stroke="black" cx="680.19" cy="-1063.05" rx="45.1145" ry="18"/>
<text text-anchor="middle" x="680.19" y="-1058.45" font-family="Helvetica,sans-Serif" font-size="14.00">respond</text>
</g>
<!-- call&#45;&gt;respond -->
<g id="edge40" class="edge"><title>call&#45;&gt;respond</title>
<path fill="none" stroke="black" d="M556.122,-941.075C580.061,-964.61 626.837,-1010.6 655.617,-1038.89"/>
<polygon fill="black" stroke="black" points="653.287,-1041.51 662.872,-1046.02 658.194,-1036.51 653.287,-1041.51"/>
</g>
<!-- think -->
<g id="node43" class="node"><title>think</title>

<ellipse fill="white" stroke="black" cx="1112.1" cy="-758.99" rx="31.0281" ry="18"/>
<text text-anchor="middle" x="1112.1" y="-754.39" font-family="Helvetica,sans-Serif" font-size="14.00">think</text>

</g>
<!-- don&#39;t&#45;&gt;think -->
<g id="edge44" class="edge"><title>don&#39;t&#45;&gt;think</title>
<path fill="none" stroke="black" d="M959.758,-720.38C990.857,-728.262 1039.49,-740.586 1073.41,-749.184"/>
<polygon fill="black" stroke="black" points="1072.88,-752.66 1083.43,-751.724 1074.6,-745.874 1072.88,-752.66"/>
</g>
<!-- I -->
<g id="node45" class="node"><title>I</title>
<ellipse fill="white" stroke="black" cx="1038.16" cy="-617.641" rx="27" ry="18"/>
<text text-anchor="middle" x="1038.16" y="-613.041" font-family="Helvetica,sans-Serif" font-size="14.00">I</text>
</g>
<!-- don&#39;t&#45;&gt;I -->
<g id="edge46" class="edge"><title>don&#39;t&#45;&gt;I</title>
<path fill="none" stroke="black" d="M947.548,-697.039C965.726,-681.111 993.974,-656.359 1014.09,-638.728"/>
<polygon fill="black" stroke="black" points="1016.42,-641.344 1021.63,-632.121 1011.81,-636.079 1016.42,-641.344"/>
</g>
<!-- know -->
<g id="node47" class="node"><title>know</title>

<ellipse fill="white" stroke="black" cx="1139.42" cy="-663.044" rx="32.8702" ry="18"/>
<text text-anchor="middle" x="1139.42" y="-658.444" font-family="Helvetica,sans-Serif" font-size="14.00">know</text>

</g>
<!-- don&#39;t&#45;&gt;know -->
<g id="edge48" class="edge"><title>don&#39;t&#45;&gt;know</title>
<path fill="none" stroke="black" d="M960.132,-705.517C996.799,-696.83 1058.45,-682.225 1099.04,-672.61"/>
<polygon fill="black" stroke="black" points="1099.95,-675.991 1108.88,-670.28 1098.34,-669.179 1099.95,-675.991"/>
</g>
<!-- insurance -->
<g id="node49" class="node"><title>insurance</title>

<ellipse fill="white" stroke="black" cx="950.079" cy="-904.085" rx="51.8257" ry="18"/>
<text text-anchor="middle" x="950.079" y="-899.485" font-family="Helvetica,sans-Serif" font-size="14.00">insurance</text>

</g>
<!-- don&#39;t&#45;&gt;insurance -->
<g id="edge50" class="edge"><title>don&#39;t&#45;&gt;insurance</title>
<path fill="none" stroke="black" d="M931.55,-730.745C935.121,-764.15 942.797,-835.958 947.064,-875.872"/>
<polygon fill="black" stroke="black" points="943.602,-876.421 948.145,-885.993 950.563,-875.677 943.602,-876.421"/>
</g>
<!-- people -->
<g id="node51" class="node"><title>people</title>

<ellipse fill="white" stroke="black" cx="893.211" cy="-528.158" rx="39.0774" ry="18"/>
<text text-anchor="middle" x="893.211" y="-523.558" font-family="Helvetica,sans-Serif" font-size="14.00">people</text>

</g>
<!-- don&#39;t&#45;&gt;people -->
<g id="edge52" class="edge"><title>don&#39;t&#45;&gt;people</title>
<path fill="none" stroke="black" d="M926.068,-694.709C919.705,-662.453 906.333,-594.672 898.756,-556.266"/>
<polygon fill="black" stroke="black" points="902.153,-555.399 896.784,-546.266 895.285,-556.754 902.153,-555.399"/>
</g>
<!-- college -->
<g id="node53" class="node"><title>college</title>

<ellipse fill="white" stroke="black" cx="873.64" cy="-835.149" rx="41.7645" ry="18"/>
<text text-anchor="middle" x="873.64" y="-830.549" font-family="Helvetica,sans-Serif" font-size="14.00">college</text>

</g>
<!-- don&#39;t&#45;&gt;college -->
<g id="edge54" class="edge"><title>don&#39;t&#45;&gt;college</title>
<path fill="none" stroke="black" d="M921.604,-730.281C912.303,-750.617 896.864,-784.371 886.021,-808.08"/>
<polygon fill="black" stroke="black" points="882.805,-806.696 881.828,-817.246 889.171,-809.608 882.805,-806.696"/>
</g>
<!-- anybody -->
<g id="node55" class="node"><title>anybody</title>

<ellipse fill="white" stroke="black" cx="806.917" cy="-717.208" rx="46.9574" ry="18"/>
<text text-anchor="middle" x="806.917" y="-712.608" font-family="Helvetica,sans-Serif" font-size="14.00">anybody</text>

</g>
<!-- don&#39;t&#45;&gt;anybody -->
<g id="edge56" class="edge"><title>don&#39;t&#45;&gt;anybody</title>
<path fill="none" stroke="black" d="M896.419,-713.952C886.42,-714.316 875.148,-714.726 864.06,-715.129"/>
<polygon fill="black" stroke="black" points="863.836,-711.635 853.97,-715.496 864.091,-718.63 863.836,-711.635"/>
</g>
<!-- need -->
<g id="node57" class="node"><title>need</title>

<ellipse fill="white" stroke="black" cx="1033.1" cy="-801.127" rx="32.8702" ry="18"/>
<text text-anchor="middle" x="1033.1" y="-796.527" font-family="Helvetica,sans-Serif" font-size="14.00">need</text>

</g>
<!-- don&#39;t&#45;&gt;need -->
<g id="edge58" class="edge"><title>don&#39;t&#45;&gt;need</title>
<path fill="none" stroke="black" d="M947.649,-728.139C964.193,-742.27 988.883,-763.359 1007.47,-779.24"/>
<polygon fill="black" stroke="black" points="1005.4,-782.075 1015.28,-785.908 1009.95,-776.752 1005.4,-782.075"/>
</g>
<!-- want -->
<g id="node59" class="node"><title>want</title>

<ellipse fill="white" stroke="black" cx="1061.44" cy="-894.457" rx="31.0281" ry="18"/>
<text text-anchor="middle" x="1061.44" y="-889.857" font-family="Helvetica,sans-Serif" font-size="14.00">want</text>

</g>
<!-- don&#39;t&#45;&gt;want -->
<g id="edge60" class="edge"><title>don&#39;t&#45;&gt;want</title>
<path fill="none" stroke="black" d="M941.79,-729.513C965.036,-761.561 1015.89,-831.662 1043.21,-869.33"/>
<polygon fill="black" stroke="black" points="1040.6,-871.689 1049.3,-877.728 1046.26,-867.579 1040.6,-871.689"/>
</g>
<!-- Bush -->
<g id="node63" class="node"><title>Bush</title>

<ellipse fill="white" stroke="black" cx="589.387" cy="-109.077" rx="31.0281" ry="18"/>
<text text-anchor="middle" x="589.387" y="-104.477" font-family="Helvetica,sans-Serif" font-size="14.00">Bush</text>

</g>
<!-- President&#45;&gt;Bush -->
<g id="edge64" class="edge"><title>President&#45;&gt;Bush</title>
<path fill="none" stroke="black" d="M492.293,-210.619C512.088,-189.917 545.33,-155.152 567.312,-132.163"/>
<polygon fill="black" stroke="black" points="569.918,-134.502 574.299,-124.856 564.859,-129.665 569.918,-134.502"/>
</g>
<!-- Bush&#39;s -->
<g id="node65" class="node"><title>Bush&#39;s</title>

<ellipse fill="white" stroke="black" cx="517.81" cy="-19" rx="38.2368" ry="18"/>
<text text-anchor="middle" x="517.81" y="-14.4" font-family="Helvetica,sans-Serif" font-size="14.00">Bush&#39;s</text>

</g>
<!-- President&#45;&gt;Bush&#39;s -->
<g id="edge66" class="edge"><title>President&#45;&gt;Bush&#39;s</title>
<path fill="none" stroke="black" d="M479.43,-209.724C486.793,-173.134 503.447,-90.3753 512.198,-46.8896"/>
<polygon fill="black" stroke="black" points="515.65,-47.476 514.192,-36.982 508.788,-46.095 515.65,-47.476"/>
</g>
<!-- Eisenhower -->
<g id="node67" class="node"><title>Eisenhower</title>
<ellipse fill="white" stroke="black" cx="458.13" cy="-105.272" rx="61.0447" ry="18"/>
<text text-anchor="middle" x="458.13" y="-100.672" font-family="Helvetica,sans-Serif" font-size="14.00">Eisenhower</text>
</g>
<!-- President&#45;&gt;Eisenhower -->
<g id="edge68" class="edge"><title>President&#45;&gt;Eisenhower</title>
<path fill="none" stroke="black" d="M473.169,-209.803C470.277,-189.698 465.569,-156.978 462.191,-133.499"/>
<polygon fill="black" stroke="black" points="465.632,-132.839 460.744,-123.44 458.703,-133.836 465.632,-132.839"/>
</g>
<!-- I&#39;m -->
<g id="node69" class="node"><title>I&#39;m</title>

<ellipse fill="white" stroke="black" cx="669.122" cy="-276.093" rx="27" ry="18"/>
<text text-anchor="middle" x="669.122" y="-271.493" font-family="Helvetica,sans-Serif" font-size="14.00">I&#39;m</text>

</g>
<!-- President&#45;&gt;I&#39;m -->
<g id="edge70" class="edge"><title>President&#45;&gt;I&#39;m</title>
<path fill="none" stroke="black" d="M518.683,-238.593C553.318,-247.226 601.451,-259.225 633.864,-267.305"/>
<polygon fill="black" stroke="black" points="633.249,-270.758 643.798,-269.781 634.942,-263.966 633.249,-270.758"/>
</g>
<!-- Roosevelt -->
<g id="node71" class="node"><title>Roosevelt</title>
<ellipse fill="white" stroke="black" cx="456.971" cy="-332.08" rx="55.0073" ry="18"/>
<text text-anchor="middle" x="456.971" y="-327.48" font-family="Helvetica,sans-Serif" font-size="14.00">Roosevelt</text>
</g>
<!-- President&#45;&gt;Roosevelt -->
<g id="edge72" class="edge"><title>President&#45;&gt;Roosevelt</title>
<path fill="none" stroke="black" d="M472.498,-246.044C469.617,-262.006 465.378,-285.499 462.056,-303.904"/>
<polygon fill="black" stroke="black" points="458.603,-303.329 460.272,-313.791 465.492,-304.572 458.603,-303.329"/>
</g>
<!-- Kennedy -->
<g id="node73" class="node"><title>Kennedy</title>
<ellipse fill="white" stroke="black" cx="272.885" cy="-201.019" rx="47.8011" ry="18"/>
<text text-anchor="middle" x="272.885" y="-196.419" font-family="Helvetica,sans-Serif" font-size="14.00">Kennedy</text>
</g>
<!-- President&#45;&gt;Kennedy -->
<g id="edge74" class="edge"><title>President&#45;&gt;Kennedy</title>
<path fill="none" stroke="black" d="M426.141,-221.321C396.524,-217.398 358.852,-212.407 328.27,-208.356"/>
<polygon fill="black" stroke="black" points="328.566,-204.864 318.193,-207.021 327.647,-211.804 328.566,-204.864"/>
</g>
<!-- Gore -->
<g id="node75" class="node"><title>Gore</title>
<ellipse fill="white" stroke="black" cx="344.824" cy="-275.932" rx="32.8702" ry="18"/>
<text text-anchor="middle" x="344.824" y="-271.332" font-family="Helvetica,sans-Serif" font-size="14.00">Gore</text>
</g>
<!-- President&#45;&gt;Gore -->
<g id="edge76" class="edge"><title>President&#45;&gt;Gore</title>
<path fill="none" stroke="black" d="M439.644,-241.15C421.759,-247.71 400.19,-255.622 382.146,-262.241"/>
<polygon fill="black" stroke="black" points="380.712,-259.039 372.529,-265.769 383.123,-265.611 380.712,-259.039"/>
</g>
<!-- Johnson -->
<g id="node77" class="node"><title>Johnson</title>
<ellipse fill="white" stroke="black" cx="370.96" cy="-51.0225" rx="46.9574" ry="18"/>
<text text-anchor="middle" x="370.96" y="-46.4225" font-family="Helvetica,sans-Serif" font-size="14.00">Johnson</text>
</g>
<!-- President&#45;&gt;Johnson -->
<g id="edge78" class="edge"><title>President&#45;&gt;Johnson</title>
<path fill="none" stroke="black" d="M465.146,-209.964C446.578,-178.631 408.156,-113.791 386.563,-77.3541"/>
<polygon fill="black" stroke="black" points="389.568,-75.5586 381.459,-68.74 383.546,-79.1273 389.568,-75.5586"/>
</g>
<!-- sign -->
<g id="node79" class="node"><title>sign</title>

<ellipse fill="white" stroke="black" cx="318.896" cy="-117.959" rx="28.1745" ry="18"/>
<text text-anchor="middle" x="318.896" y="-113.359" font-family="Helvetica,sans-Serif" font-size="14.00">sign</text>

</g>
<!-- President&#45;&gt;sign -->
<g id="edge80" class="edge"><title>President&#45;&gt;sign</title>
<path fill="none" stroke="black" d="M452.625,-211.675C424.389,-191.887 376.703,-158.469 346.56,-137.345"/>
<polygon fill="black" stroke="black" points="348.379,-134.347 338.181,-131.474 344.362,-140.079 348.379,-134.347"/>
</g>
<!-- talk&#45;&gt;people -->
<g id="edge100" class="edge"><title>talk&#45;&gt;people</title>
<path fill="none" stroke="black" d="M870.655,-358.875C875.003,-391.504 884.231,-460.761 889.436,-499.823"/>
<polygon fill="black" stroke="black" points="886,-500.534 890.79,-509.984 892.938,-499.609 886,-500.534"/>
</g>
<!-- talk&#45;&gt;I&#39;m -->
<g id="edge86" class="edge"><title>talk&#45;&gt;I&#39;m</title>
<path fill="none" stroke="black" d="M843.845,-332.973C808.514,-321.471 743.004,-300.145 703.012,-287.126"/>
<polygon fill="black" stroke="black" points="704.021,-283.774 693.428,-284.006 701.854,-290.43 704.021,-283.774"/>
</g>
<!-- lot -->
<g id="node83" class="node"><title>lot</title>

<ellipse fill="white" stroke="black" cx="796.934" cy="-252.727" rx="27" ry="18"/>
<text text-anchor="middle" x="796.934" y="-248.127" font-family="Helvetica,sans-Serif" font-size="14.00">lot</text>

</g>
<!-- talk&#45;&gt;lot -->
<g id="edge84" class="edge"><title>talk&#45;&gt;lot</title>
<path fill="none" stroke="black" d="M855.18,-324.745C844.321,-311.319 828.717,-292.025 816.393,-276.787"/>
<polygon fill="black" stroke="black" points="818.944,-274.375 809.934,-268.801 813.501,-278.777 818.944,-274.375"/>
</g>
<!-- issue -->
<g id="node86" class="node"><title>issue</title>

<ellipse fill="white" stroke="black" cx="947.596" cy="-160.576" rx="32.8702" ry="18"/>
<text text-anchor="middle" x="947.596" y="-155.976" font-family="Helvetica,sans-Serif" font-size="14.00">issue</text>

</g>
<!-- talk&#45;&gt;issue -->
<g id="edge88" class="edge"><title>talk&#45;&gt;issue</title>
<path fill="none" stroke="black" d="M875.87,-323.629C889.754,-292.067 919.29,-224.922 935.801,-187.388"/>
<polygon fill="black" stroke="black" points="939.072,-188.644 939.895,-178.081 932.665,-185.825 939.072,-188.644"/>
</g>
<!-- opponent -->
<g id="node88" class="node"><title>opponent</title>

<ellipse fill="white" stroke="black" cx="1033.9" cy="-204.576" rx="51.1517" ry="18"/>
<text text-anchor="middle" x="1033.9" y="-199.976" font-family="Helvetica,sans-Serif" font-size="14.00">opponent</text>

</g>
<!-- talk&#45;&gt;opponent -->
<g id="edge90" class="edge"><title>talk&#45;&gt;opponent</title>
<path fill="none" stroke="black" d="M885.365,-326.844C913.83,-303.412 971.203,-256.183 1005.72,-227.773"/>
<polygon fill="black" stroke="black" points="1008.05,-230.382 1013.55,-221.325 1003.6,-224.978 1008.05,-230.382"/>
</g>
<!-- travel -->
<g id="node90" class="node"><title>travel</title>

<ellipse fill="white" stroke="black" cx="997.981" cy="-424.643" rx="35.0527" ry="18"/>
<text text-anchor="middle" x="997.981" y="-420.043" font-family="Helvetica,sans-Serif" font-size="14.00">travel</text>

</g>
<!-- talk&#45;&gt;travel -->
<g id="edge92" class="edge"><title>talk&#45;&gt;travel</title>
<path fill="none" stroke="black" d="M887.683,-353.456C908.708,-367.025 942.533,-388.857 967.188,-404.769"/>
<polygon fill="black" stroke="black" points="965.516,-407.856 975.816,-410.338 969.312,-401.974 965.516,-407.856"/>
</g>
<!-- I&#39;ve -->
<g id="node92" class="node"><title>I&#39;ve</title>

<ellipse fill="white" stroke="black" cx="988.246" cy="-310.94" rx="27" ry="18"/>
<text text-anchor="middle" x="988.246" y="-306.34" font-family="Helvetica,sans-Serif" font-size="14.00">I&#39;ve</text>

</g>
<!-- talk&#45;&gt;I&#39;ve -->
<g id="edge94" class="edge"><title>talk&#45;&gt;I&#39;ve</title>
<path fill="none" stroke="black" d="M893.709,-334.563C910.968,-330.25 934.015,-324.491 953.032,-319.739"/>
<polygon fill="black" stroke="black" points="953.985,-323.109 962.838,-317.289 952.288,-316.318 953.985,-323.109"/>
</g>
<!-- hear -->
<g id="node94" class="node"><title>hear</title>

<ellipse fill="white" stroke="black" cx="1090.83" cy="-325.002" rx="30.8577" ry="18"/>
<text text-anchor="middle" x="1090.83" y="-320.402" font-family="Helvetica,sans-Serif" font-size="14.00">hear</text>

</g>
<!-- talk&#45;&gt;hear -->
<g id="edge96" class="edge"><title>talk&#45;&gt;hear</title>
<path fill="none" stroke="black" d="M895.11,-339.001C933.616,-336.247 1004.84,-331.152 1049.93,-327.928"/>
<polygon fill="black" stroke="black" points="1050.23,-331.415 1059.96,-327.21 1049.73,-324.433 1050.23,-331.415"/>
</g>
<!-- walk -->
<g id="node96" class="node"><title>walk</title>

<ellipse fill="white" stroke="black" cx="848.899" cy="-147.087" rx="29.0158" ry="18"/>
<text text-anchor="middle" x="848.899" y="-142.487" font-family="Helvetica,sans-Serif" font-size="14.00">walk</text>

</g>
<!-- talk&#45;&gt;walk -->
<g id="edge98" class="edge"><title>talk&#45;&gt;walk</title>
<path fill="none" stroke="black" d="M866.442,-322.686C863.045,-288.687 855.725,-215.419 851.697,-175.101"/>
<polygon fill="black" stroke="black" points="855.178,-174.736 850.702,-165.133 848.213,-175.432 855.178,-174.736"/>
</g>
</g>
</svg>
