<?xml version="1.0" encoding="UTF-8" standalone="no"?>
<!DOCTYPE svg PUBLIC "-//W3C//DTD SVG 1.1//EN"
 "http://www.w3.org/Graphics/SVG/1.1/DTD/svg11.dtd">
<!-- Generated by graphviz version 2.26.3 (20100126.1600)
 -->
<!-- Title: ??? Pages: 1 -->
<svg width="896pt" height="800.8pt"
 viewBox="0.00 0.00 1279.65 1144.19" xmlns="http://www.w3.org/2000/svg" xmlns:xlink="http://www.w3.org/1999/xlink">
<g id="graph1" class="graph" transform="scale(1 1) rotate(0) translate(4 1140.19)">
<title>???</title>
<polygon fill="white" stroke="white" points="-4,5 -4,-1140.19 1276.65,-1140.19 1276.65,5 -4,5"/>
<!-- ??? -->
<g id="node1" class="node"><title>old</title>

<ellipse fill="brown" stroke="black" cx="599.827" cy="-611.318" rx="27" ry="18"/>
<text text-anchor="middle" x="599.827" y="-606.718" font-family="Helvetica,sans-Serif" font-size="14.00" fill="white">???</text>

</g>
<!-- year -->
<g id="node3" class="node"><title>year</title>

<ellipse fill="white" stroke="black" cx="296.742" cy="-886.596" rx="30.1869" ry="18"/>
<text text-anchor="middle" x="296.742" y="-881.996" font-family="Helvetica,sans-Serif" font-size="14.00">year</text>

</g>
<!-- ???&#45;&gt;year -->
<g id="edge2" class="edge"><title>???&#45;&gt;year</title>
<path fill="none" stroke="black" d="M580.419,-624.435C526.039,-667.895 373.052,-806.64 317.305,-862.79"/>
<polygon fill="black" stroke="black" points="314.598,-860.552 310.105,-870.147 319.601,-865.448 314.598,-860.552"/>
</g>
<!-- pre&#45;kindergarten -->
<g id="node22" class="node"><title>pre&#45;kindergarten</title>

<ellipse fill="white" stroke="black" cx="707.037" cy="-925.188" rx="83.8525" ry="18"/>
<text text-anchor="middle" x="707.037" y="-920.588" font-family="Helvetica,sans-Serif" font-size="14.00">pre&#45;kindergarten</text>

</g>
<!-- ???&#45;&gt;pre&#45;kindergarten -->
<g id="edge22" class="edge"><title>???&#45;&gt;pre&#45;kindergarten</title>
<path fill="none" stroke="black" d="M602.503,-629.247C615.81,-681.659 667.799,-834.734 693.304,-897.684"/>
<polygon fill="black" stroke="black" points="690.097,-899.087 697.16,-906.984 696.563,-896.406 690.097,-899.087"/>
</g>
<!-- age -->
<g id="node37" class="node"><title>age</title>

<ellipse fill="white" stroke="black" cx="725.887" cy="-267.228" rx="27.0036" ry="18"/>
<text text-anchor="middle" x="725.887" y="-262.628" font-family="Helvetica,sans-Serif" font-size="14.00">age</text>

</g>
<!-- ???&#45;&gt;age -->
<g id="edge38" class="edge"><title>???&#45;&gt;age</title>
<path fill="none" stroke="black" d="M606.252,-593.781C626.82,-537.637 691.15,-362.045 715.976,-294.282"/>
<polygon fill="black" stroke="black" points="719.322,-295.323 719.476,-284.729 712.749,-292.915 719.322,-295.323"/>
</g>
<!-- adult -->
<g id="node45" class="node"><title>adult</title>

<ellipse fill="white" stroke="black" cx="790.339" cy="-523.55" rx="32.8702" ry="18"/>
<text text-anchor="middle" x="790.339" y="-518.95" font-family="Helvetica,sans-Serif" font-size="14.00">adult</text>

</g>
<!-- ???&#45;&gt;adult -->
<g id="edge56" class="edge"><title>???&#45;&gt;adult</title>
<path fill="none" stroke="black" d="M625.118,-604.746C660.395,-591.419 724.138,-562.25 761.308,-542.594"/>
<polygon fill="black" stroke="black" points="763.016,-545.65 770.152,-537.818 759.69,-539.49 763.016,-545.65"/>
</g>
<!-- young -->
<g id="node65" class="node"><title>young</title>

<ellipse fill="white" stroke="black" cx="1008.17" cy="-648.095" rx="36.8951" ry="18"/>
<text text-anchor="middle" x="1008.17" y="-643.495" font-family="Helvetica,sans-Serif" font-size="14.00">young</text>

</g>
<!-- ???&#45;&gt;young -->
<g id="edge92" class="edge"><title>???&#45;&gt;young</title>
<path fill="none" stroke="black" d="M626.619,-613.731C694.82,-619.873 875.661,-636.161 961.579,-643.899"/>
<polygon fill="black" stroke="black" points="961.299,-647.388 971.572,-644.799 961.927,-640.416 961.299,-647.388"/>
</g>
<!-- friend -->
<g id="node67" class="node"><title>friend</title>

<ellipse fill="white" stroke="black" cx="243.613" cy="-389.048" rx="36.2243" ry="18"/>
<text text-anchor="middle" x="243.613" y="-384.448" font-family="Helvetica,sans-Serif" font-size="14.00">friend</text>

</g>
<!-- ???&#45;&gt;friend -->
<g id="edge72" class="edge"><title>???&#45;&gt;friend</title>
<path fill="none" stroke="black" d="M579.912,-598.891C520.899,-562.068 346.616,-453.32 274.942,-408.596"/>
<polygon fill="black" stroke="black" points="276.662,-405.544 266.325,-403.219 272.956,-411.483 276.662,-405.544"/>
</g>
<!-- year&#45;&gt;??? -->
<g id="edge8" class="edge"><title>year&#45;&gt;???</title>
<path fill="none" stroke="black" d="M316.617,-873.105C371.559,-829.102 524.558,-690.314 579.744,-634.64"/>
<polygon fill="black" stroke="black" points="582.377,-636.953 586.861,-627.354 577.37,-632.061 582.377,-636.953"/>
</g>
<!-- last -->
<g id="node5" class="node"><title>last</title>

<ellipse fill="white" stroke="black" cx="191.186" cy="-758.987" rx="27" ry="18"/>
<text text-anchor="middle" x="191.186" y="-754.387" font-family="Helvetica,sans-Serif" font-size="14.00">last</text>

</g>
<!-- year&#45;&gt;last -->
<g id="edge4" class="edge"><title>year&#45;&gt;last</title>
<path fill="none" stroke="black" d="M283.373,-870.434C265.052,-848.285 232.01,-808.34 210.861,-782.773"/>
<polygon fill="black" stroke="black" points="213.517,-780.492 204.447,-775.017 208.123,-784.954 213.517,-780.492"/>
</g>
<!-- past -->
<g id="node7" class="node"><title>past</title>

<ellipse fill="white" stroke="black" cx="58.2098" cy="-864.199" rx="29.0158" ry="18"/>
<text text-anchor="middle" x="58.2098" y="-859.599" font-family="Helvetica,sans-Serif" font-size="14.00">past</text>

</g>
<!-- year&#45;&gt;past -->
<g id="edge6" class="edge"><title>year&#45;&gt;past</title>
<path fill="none" stroke="black" d="M267.014,-883.805C224.171,-879.782 145,-872.348 97.4161,-867.88"/>
<polygon fill="black" stroke="black" points="97.4747,-864.37 87.1913,-866.92 96.8203,-871.339 97.4747,-864.37"/>
</g>
<!-- half -->
<g id="node10" class="node"><title>half</title>
<ellipse fill="white" stroke="black" cx="166.122" cy="-874.383" rx="27.0036" ry="18"/>
<text text-anchor="middle" x="166.122" y="-869.783" font-family="Helvetica,sans-Serif" font-size="14.00">half</text>
</g>
<!-- year&#45;&gt;half -->
<g id="edge10" class="edge"><title>year&#45;&gt;half</title>
<path fill="none" stroke="black" d="M266.775,-883.794C247.918,-882.031 223.436,-879.742 203.339,-877.863"/>
<polygon fill="black" stroke="black" points="203.564,-874.369 193.282,-876.923 202.912,-881.339 203.564,-874.369"/>
</g>
<!-- several -->
<g id="node12" class="node"><title>several</title>

<ellipse fill="white" stroke="black" cx="390.807" cy="-916.804" rx="41.7645" ry="18"/>
<text text-anchor="middle" x="390.807" y="-912.204" font-family="Helvetica,sans-Serif" font-size="14.00">several</text>

</g>
<!-- year&#45;&gt;several -->
<g id="edge12" class="edge"><title>year&#45;&gt;several</title>
<path fill="none" stroke="black" d="M323.195,-895.091C330.772,-897.524 339.237,-900.243 347.543,-902.91"/>
<polygon fill="black" stroke="black" points="346.569,-906.273 357.16,-905.998 348.709,-899.608 346.569,-906.273"/>
</g>
<!-- dollar -->
<g id="node14" class="node"><title>dollar</title>

<ellipse fill="white" stroke="black" cx="378.865" cy="-1064.93" rx="35.0527" ry="18"/>
<text text-anchor="middle" x="378.865" y="-1060.33" font-family="Helvetica,sans-Serif" font-size="14.00">dollar</text>

</g>
<!-- year&#45;&gt;dollar -->
<g id="edge14" class="edge"><title>year&#45;&gt;dollar</title>
<path fill="none" stroke="black" d="M304.766,-904.02C319.141,-935.236 349.375,-1000.89 366.447,-1037.96"/>
<polygon fill="black" stroke="black" points="363.325,-1039.55 370.687,-1047.17 369.683,-1036.62 363.325,-1039.55"/>
</g>
<!-- Bush -->
<g id="node16" class="node"><title>Bush</title>

<ellipse fill="white" stroke="black" cx="274.334" cy="-1093.39" rx="31.0281" ry="18"/>
<text text-anchor="middle" x="274.334" y="-1088.79" font-family="Helvetica,sans-Serif" font-size="14.00">Bush</text>

</g>
<!-- year&#45;&gt;Bush -->
<g id="edge16" class="edge"><title>year&#45;&gt;Bush</title>
<path fill="none" stroke="black" d="M294.793,-904.586C290.886,-940.639 282.072,-1021.98 277.39,-1065.18"/>
<polygon fill="black" stroke="black" points="273.892,-1064.97 276.295,-1075.29 280.852,-1065.73 273.892,-1064.97"/>
</g>
<!-- George -->
<g id="node18" class="node"><title>George</title>

<ellipse fill="white" stroke="black" cx="150.865" cy="-979.908" rx="43.1021" ry="18"/>
<text text-anchor="middle" x="150.865" y="-975.308" font-family="Helvetica,sans-Serif" font-size="14.00">George</text>

</g>
<!-- year&#45;&gt;George -->
<g id="edge18" class="edge"><title>year&#45;&gt;George</title>
<path fill="none" stroke="black" d="M276.151,-899.767C252.056,-915.18 211.852,-940.897 183.496,-959.035"/>
<polygon fill="black" stroke="black" points="181.28,-956.298 174.742,-964.635 185.052,-962.195 181.28,-956.298"/>
</g>
<!-- spend -->
<g id="node20" class="node"><title>spend</title>

<ellipse fill="white" stroke="black" cx="164.084" cy="-1071.38" rx="36.8951" ry="18"/>
<text text-anchor="middle" x="164.084" y="-1066.78" font-family="Helvetica,sans-Serif" font-size="14.00">spend</text>

</g>
<!-- year&#45;&gt;spend -->
<g id="edge20" class="edge"><title>year&#45;&gt;spend</title>
<path fill="none" stroke="black" d="M284.736,-903.32C261.472,-935.726 210.12,-1007.26 182.508,-1045.72"/>
<polygon fill="black" stroke="black" points="179.34,-1044.13 176.351,-1054.29 185.026,-1048.21 179.34,-1044.13"/>
</g>
<!-- pre&#45;kindergarten&#45;&gt;??? -->
<g id="edge30" class="edge"><title>pre&#45;kindergarten&#45;&gt;???</title>
<path fill="none" stroke="black" d="M704.244,-906.799C690.676,-853.658 638.402,-699.856 613.129,-637.762"/>
<polygon fill="black" stroke="black" points="616.253,-636.158 609.171,-628.278 609.793,-638.854 616.253,-636.158"/>
</g>
<!-- universal -->
<g id="node24" class="node"><title>universal</title>

<ellipse fill="white" stroke="black" cx="717.805" cy="-1112.69" rx="48.9699" ry="18"/>
<text text-anchor="middle" x="717.805" y="-1108.09" font-family="Helvetica,sans-Serif" font-size="14.00">universal</text>

</g>
<!-- pre&#45;kindergarten&#45;&gt;universal -->
<g id="edge24" class="edge"><title>pre&#45;kindergarten&#45;&gt;universal</title>
<path fill="none" stroke="black" d="M708.089,-943.507C709.975,-976.356 713.945,-1045.48 716.182,-1084.43"/>
<polygon fill="black" stroke="black" points="712.697,-1084.79 716.764,-1094.57 719.685,-1084.38 712.697,-1084.79"/>
</g>
<!-- program -->
<g id="node26" class="node"><title>program</title>

<ellipse fill="white" stroke="black" cx="591.688" cy="-992.028" rx="47.1269" ry="18"/>
<text text-anchor="middle" x="591.688" y="-987.428" font-family="Helvetica,sans-Serif" font-size="14.00">program</text>

</g>
<!-- pre&#45;kindergarten&#45;&gt;program -->
<g id="edge26" class="edge"><title>pre&#45;kindergarten&#45;&gt;program</title>
<path fill="none" stroke="black" d="M677.631,-942.227C662.087,-951.234 642.904,-962.351 626.607,-971.794"/>
<polygon fill="black" stroke="black" points="624.789,-968.802 617.892,-976.844 628.299,-974.858 624.789,-968.802"/>
</g>
<!-- access -->
<g id="node28" class="node"><title>access</title>

<ellipse fill="white" stroke="black" cx="618.795" cy="-1117.19" rx="41.0898" ry="18"/>
<text text-anchor="middle" x="618.795" y="-1112.59" font-family="Helvetica,sans-Serif" font-size="14.00">access</text>

</g>
<!-- pre&#45;kindergarten&#45;&gt;access -->
<g id="edge28" class="edge"><title>pre&#45;kindergarten&#45;&gt;access</title>
<path fill="none" stroke="black" d="M698.735,-943.251C683.159,-977.144 649.476,-1050.43 631.199,-1090.2"/>
<polygon fill="black" stroke="black" points="628.006,-1088.77 627.011,-1099.31 634.367,-1091.69 628.006,-1088.77"/>
</g>
<!-- quality -->
<g id="node31" class="node"><title>quality</title>

<ellipse fill="white" stroke="black" cx="814.353" cy="-1106.35" rx="39.0774" ry="18"/>
<text text-anchor="middle" x="814.353" y="-1101.75" font-family="Helvetica,sans-Serif" font-size="14.00">quality</text>

</g>
<!-- pre&#45;kindergarten&#45;&gt;quality -->
<g id="edge32" class="edge"><title>pre&#45;kindergarten&#45;&gt;quality</title>
<path fill="none" stroke="black" d="M717.719,-943.221C736.78,-975.398 776.722,-1042.82 798.82,-1080.13"/>
<polygon fill="black" stroke="black" points="795.922,-1082.1 804.03,-1088.92 801.944,-1078.54 795.922,-1082.1"/>
</g>
<!-- child -->
<g id="node33" class="node"><title>child</title>

<ellipse fill="white" stroke="black" cx="744.909" cy="-734.359" rx="30.8577" ry="18"/>
<text text-anchor="middle" x="744.909" y="-729.759" font-family="Helvetica,sans-Serif" font-size="14.00">child</text>

</g>
<!-- pre&#45;kindergarten&#45;&gt;child -->
<g id="edge34" class="edge"><title>pre&#45;kindergarten&#45;&gt;child</title>
<path fill="none" stroke="black" d="M710.668,-906.89C717.316,-873.393 731.481,-802.02 739.349,-762.373"/>
<polygon fill="black" stroke="black" points="742.83,-762.812 741.344,-752.322 735.964,-761.449 742.83,-762.812"/>
</g>
<!-- start -->
<g id="node35" class="node"><title>start</title>

<ellipse fill="white" stroke="black" cx="872.612" cy="-1020.21" rx="31.0281" ry="18"/>
<text text-anchor="middle" x="872.612" y="-1015.61" font-family="Helvetica,sans-Serif" font-size="14.00">start</text>

</g>
<!-- pre&#45;kindergarten&#45;&gt;start -->
<g id="edge36" class="edge"><title>pre&#45;kindergarten&#45;&gt;start</title>
<path fill="none" stroke="black" d="M736.638,-942.176C766.227,-959.157 811.534,-985.159 841.607,-1002.42"/>
<polygon fill="black" stroke="black" points="840.002,-1005.53 850.417,-1007.47 843.486,-999.461 840.002,-1005.53"/>
</g>
<!-- foster -->
<g id="node39" class="node"><title>foster</title>

<ellipse fill="white" stroke="black" cx="914.247" cy="-217.132" rx="37.0651" ry="18"/>
<text text-anchor="middle" x="914.247" y="-212.532" font-family="Helvetica,sans-Serif" font-size="14.00">foster</text>

</g>
<!-- age&#45;&gt;foster -->
<g id="edge40" class="edge"><title>age&#45;&gt;foster</title>
<path fill="none" stroke="black" d="M751.29,-260.472C782.131,-252.269 834.608,-238.313 871.666,-228.457"/>
<polygon fill="black" stroke="black" points="872.914,-231.747 881.679,-225.794 871.115,-224.982 872.914,-231.747"/>
</g>
<!-- parent -->
<g id="node41" class="node"><title>parent</title>

<ellipse fill="white" stroke="black" cx="792.404" cy="-106.313" rx="39.0774" ry="18"/>
<text text-anchor="middle" x="792.404" y="-101.713" font-family="Helvetica,sans-Serif" font-size="14.00">parent</text>

</g>
<!-- age&#45;&gt;parent -->
<g id="edge42" class="edge"><title>age&#45;&gt;parent</title>
<path fill="none" stroke="black" d="M733.132,-249.701C744.667,-221.797 767.3,-167.044 781.016,-133.861"/>
<polygon fill="black" stroke="black" points="784.379,-134.888 784.965,-124.309 777.91,-132.214 784.379,-134.888"/>
</g>
<!-- color -->
<g id="node43" class="node"><title>color</title>

<ellipse fill="white" stroke="black" cx="902.726" cy="-109.902" rx="32.8702" ry="18"/>
<text text-anchor="middle" x="902.726" y="-105.302" font-family="Helvetica,sans-Serif" font-size="14.00">color</text>

</g>
<!-- age&#45;&gt;color -->
<g id="edge44" class="edge"><title>age&#45;&gt;color</title>
<path fill="none" stroke="black" d="M742.207,-252.709C773.209,-225.128 840.801,-164.994 877.613,-132.244"/>
<polygon fill="black" stroke="black" points="880.263,-134.571 885.407,-125.309 875.61,-129.341 880.263,-134.571"/>
</g>
<!-- age&#45;&gt;adult -->
<g id="edge46" class="edge"><title>age&#45;&gt;adult</title>
<path fill="none" stroke="black" d="M726.729,-285.321C733.842,-329.629 762.242,-443.716 778.919,-496.29"/>
<polygon fill="black" stroke="black" points="775.644,-497.536 782.088,-505.946 782.295,-495.353 775.644,-497.536"/>
</g>
<!-- relative -->
<g id="node47" class="node"><title>relative</title>
<ellipse fill="white" stroke="black" cx="578.309" cy="-238.265" rx="43.1021" ry="18"/>
<text text-anchor="middle" x="578.309" y="-233.665" font-family="Helvetica,sans-Serif" font-size="14.00">relative</text>
</g>
<!-- age&#45;&gt;relative -->
<g id="edge48" class="edge"><title>age&#45;&gt;relative</title>
<path fill="none" stroke="black" d="M699.843,-262.117C679.859,-258.195 651.689,-252.666 627.5,-247.919"/>
<polygon fill="black" stroke="black" points="627.899,-244.431 617.413,-245.939 626.551,-251.3 627.899,-244.431"/>
</g>
<!-- care -->
<g id="node49" class="node"><title>care</title>

<ellipse fill="white" stroke="black" cx="687.301" cy="-154.804" rx="30.8577" ry="18"/>
<text text-anchor="middle" x="687.301" y="-150.204" font-family="Helvetica,sans-Serif" font-size="14.00">care</text>

</g>
<!-- age&#45;&gt;care -->
<g id="edge50" class="edge"><title>age&#45;&gt;care</title>
<path fill="none" stroke="black" d="M719.858,-249.662C713.665,-231.617 703.937,-203.275 696.726,-182.265"/>
<polygon fill="black" stroke="black" points="699.972,-180.94 693.415,-172.618 693.351,-183.212 699.972,-180.94"/>
</g>
<!-- average -->
<g id="node51" class="node"><title>average</title>

<ellipse fill="white" stroke="black" cx="586.502" cy="-83.6354" rx="46.9574" ry="18"/>
<text text-anchor="middle" x="586.502" y="-79.0354" font-family="Helvetica,sans-Serif" font-size="14.00">average</text>

</g>
<!-- age&#45;&gt;average -->
<g id="edge52" class="edge"><title>age&#45;&gt;average</title>
<path fill="none" stroke="black" d="M713.518,-250.935C689.175,-218.871 634.893,-147.375 605.798,-109.052"/>
<polygon fill="black" stroke="black" points="608.488,-106.806 599.653,-100.958 602.912,-111.039 608.488,-106.806"/>
</g>
<!-- kid -->
<g id="node53" class="node"><title>kid</title>

<ellipse fill="white" stroke="black" cx="708.861" cy="-19" rx="27" ry="18"/>
<text text-anchor="middle" x="708.861" y="-14.4" font-family="Helvetica,sans-Serif" font-size="14.00">kid</text>

</g>
<!-- age&#45;&gt;kid -->
<g id="edge54" class="edge"><title>age&#45;&gt;kid</title>
<path fill="none" stroke="black" d="M724.635,-248.975C721.696,-206.119 714.335,-98.8056 710.806,-47.365"/>
<polygon fill="black" stroke="black" points="714.291,-47.0166 710.115,-37.2795 707.307,-47.4956 714.291,-47.0166"/>
</g>
<!-- adult&#45;&gt;??? -->
<g id="edge68" class="edge"><title>adult&#45;&gt;???</title>
<path fill="none" stroke="black" d="M760.575,-531.836C723.953,-546.071 662.354,-574.412 626.973,-593.274"/>
<polygon fill="black" stroke="black" points="625.255,-590.224 618.153,-598.086 628.608,-596.369 625.255,-590.224"/>
</g>
<!-- adult&#45;&gt;child -->
<g id="edge62" class="edge"><title>adult&#45;&gt;child</title>
<path fill="none" stroke="black" d="M786.466,-541.523C778.536,-578.317 760.405,-662.449 750.929,-706.422"/>
<polygon fill="black" stroke="black" points="747.458,-705.918 748.772,-716.431 754.3,-707.392 747.458,-705.918"/>
</g>
<!-- adult&#45;&gt;age -->
<g id="edge60" class="edge"><title>adult&#45;&gt;age</title>
<path fill="none" stroke="black" d="M789.497,-505.457C782.367,-461.041 753.846,-346.508 737.186,-294.106"/>
<polygon fill="black" stroke="black" points="740.473,-292.897 734.022,-284.493 733.824,-295.086 740.473,-292.897"/>
</g>
<!-- autism -->
<g id="node56" class="node"><title>autism</title>

<ellipse fill="white" stroke="black" cx="865.133" cy="-373.899" rx="39.0774" ry="18"/>
<text text-anchor="middle" x="865.133" y="-369.299" font-family="Helvetica,sans-Serif" font-size="14.00">autism</text>

</g>
<!-- adult&#45;&gt;autism -->
<g id="edge58" class="edge"><title>adult&#45;&gt;autism</title>
<path fill="none" stroke="black" d="M799.065,-506.09C812,-480.209 836.372,-431.445 851.625,-400.927"/>
<polygon fill="black" stroke="black" points="854.89,-402.221 856.23,-391.711 848.629,-399.092 854.89,-402.221"/>
</g>
<!-- entire -->
<g id="node60" class="node"><title>entire</title>

<ellipse fill="white" stroke="black" cx="915.892" cy="-483.409" rx="36.2243" ry="18"/>
<text text-anchor="middle" x="915.892" y="-478.809" font-family="Helvetica,sans-Serif" font-size="14.00">entire</text>

</g>
<!-- adult&#45;&gt;entire -->
<g id="edge64" class="edge"><title>adult&#45;&gt;entire</title>
<path fill="none" stroke="black" d="M818.829,-514.441C835.633,-509.069 857.165,-502.185 875.678,-496.266"/>
<polygon fill="black" stroke="black" points="876.862,-499.562 885.321,-493.183 874.731,-492.895 876.862,-499.562"/>
</g>
<!-- life -->
<g id="node62" class="node"><title>life</title>

<ellipse fill="white" stroke="black" cx="666.733" cy="-503.129" rx="27" ry="18"/>
<text text-anchor="middle" x="666.733" y="-498.529" font-family="Helvetica,sans-Serif" font-size="14.00">life</text>

</g>
<!-- adult&#45;&gt;life -->
<g id="edge66" class="edge"><title>adult&#45;&gt;life</title>
<path fill="none" stroke="black" d="M758.507,-518.291C741.526,-515.486 720.56,-512.022 702.957,-509.114"/>
<polygon fill="black" stroke="black" points="703.473,-505.652 693.036,-507.475 702.332,-512.558 703.473,-505.652"/>
</g>
<!-- adult&#45;&gt;young -->
<g id="edge70" class="edge"><title>adult&#45;&gt;young</title>
<path fill="none" stroke="black" d="M813.239,-536.643C851.97,-558.787 930.543,-603.712 975.2,-629.245"/>
<polygon fill="black" stroke="black" points="973.505,-632.307 983.923,-634.232 976.979,-626.23 973.505,-632.307"/>
</g>
<!-- man -->
<g id="node88" class="node"><title>man</title>

<ellipse fill="white" stroke="black" cx="1059.05" cy="-515.022" rx="29.0158" ry="18"/>
<text text-anchor="middle" x="1059.05" y="-510.422" font-family="Helvetica,sans-Serif" font-size="14.00">man</text>

</g>
<!-- young&#45;&gt;man -->
<g id="edge94" class="edge"><title>young&#45;&gt;man</title>
<path fill="none" stroke="black" d="M1015.03,-630.149C1023.69,-607.502 1038.66,-568.343 1048.71,-542.064"/>
<polygon fill="black" stroke="black" points="1051.99,-543.275 1052.3,-532.685 1045.45,-540.775 1051.99,-543.275"/>
</g>
<!-- people -->
<g id="node90" class="node"><title>people</title>

<ellipse fill="white" stroke="black" cx="1156.52" cy="-463.689" rx="39.0774" ry="18"/>
<text text-anchor="middle" x="1156.52" y="-459.089" font-family="Helvetica,sans-Serif" font-size="14.00">people</text>

</g>
<!-- young&#45;&gt;people -->
<g id="edge96" class="edge"><title>young&#45;&gt;people</title>
<path fill="none" stroke="black" d="M1021.86,-631.077C1048.13,-598.417 1105.73,-526.814 1136.39,-488.706"/>
<polygon fill="black" stroke="black" points="1139.32,-490.652 1142.86,-480.666 1133.86,-486.264 1139.32,-490.652"/>
</g>
<!-- woman -->
<g id="node92" class="node"><title>woman</title>

<ellipse fill="white" stroke="black" cx="1220.45" cy="-557.068" rx="41.0898" ry="18"/>
<text text-anchor="middle" x="1220.45" y="-552.468" font-family="Helvetica,sans-Serif" font-size="14.00">woman</text>

</g>
<!-- young&#45;&gt;woman -->
<g id="edge98" class="edge"><title>young&#45;&gt;woman</title>
<path fill="none" stroke="black" d="M1036.36,-636.008C1073.61,-620.035 1139.4,-591.822 1181.41,-573.806"/>
<polygon fill="black" stroke="black" points="1182.96,-576.95 1190.77,-569.793 1180.2,-570.517 1182.96,-576.95"/>
</g>
<!-- lawyer -->
<g id="node94" class="node"><title>lawyer</title>
<ellipse fill="white" stroke="black" cx="1231.65" cy="-740.19" rx="38.9076" ry="18"/>
<text text-anchor="middle" x="1231.65" y="-735.59" font-family="Helvetica,sans-Serif" font-size="14.00">lawyer</text>
</g>
<!-- young&#45;&gt;lawyer -->
<g id="edge100" class="edge"><title>young&#45;&gt;lawyer</title>
<path fill="none" stroke="black" d="M1036.47,-659.759C1076.19,-676.128 1148.59,-705.964 1193.17,-724.335"/>
<polygon fill="black" stroke="black" points="1191.93,-727.609 1202.51,-728.183 1194.6,-721.137 1191.93,-727.609"/>
</g>
<!-- girl -->
<g id="node96" class="node"><title>girl</title>

<ellipse fill="white" stroke="black" cx="1156.73" cy="-833.399" rx="27" ry="18"/>
<text text-anchor="middle" x="1156.73" y="-828.799" font-family="Helvetica,sans-Serif" font-size="14.00">girl</text>

</g>
<!-- young&#45;&gt;girl -->
<g id="edge102" class="edge"><title>young&#45;&gt;girl</title>
<path fill="none" stroke="black" d="M1021.61,-664.867C1048.04,-697.832 1106.84,-771.17 1137.41,-809.311"/>
<polygon fill="black" stroke="black" points="1134.86,-811.715 1143.84,-817.328 1140.32,-807.336 1134.86,-811.715"/>
</g>
<!-- person -->
<g id="node98" class="node"><title>person</title>

<ellipse fill="white" stroke="black" cx="1200.96" cy="-651.233" rx="40.2492" ry="18"/>
<text text-anchor="middle" x="1200.96" y="-646.633" font-family="Helvetica,sans-Serif" font-size="14.00">person</text>

</g>
<!-- young&#45;&gt;person -->
<g id="edge104" class="edge"><title>young&#45;&gt;person</title>
<path fill="none" stroke="black" d="M1045.34,-648.7C1075.26,-649.187 1117.6,-649.877 1150.57,-650.413"/>
<polygon fill="black" stroke="black" points="1150.86,-653.918 1160.91,-650.581 1150.97,-646.919 1150.86,-653.918"/>
</g>
<!-- motivated -->
<g id="node100" class="node"><title>motivated</title>
<ellipse fill="white" stroke="black" cx="931.36" cy="-765.628" rx="55.0073" ry="18"/>
<text text-anchor="middle" x="931.36" y="-761.028" font-family="Helvetica,sans-Serif" font-size="14.00">motivated</text>
</g>
<!-- young&#45;&gt;motivated -->
<g id="edge106" class="edge"><title>young&#45;&gt;motivated</title>
<path fill="none" stroke="black" d="M996.836,-665.438C984.089,-684.942 963.248,-716.834 948.506,-739.391"/>
<polygon fill="black" stroke="black" points="945.533,-737.544 942.992,-747.829 951.392,-741.373 945.533,-737.544"/>
</g>
<!-- hardwork -->
<g id="node102" class="node"><title>hardwork</title>

<ellipse fill="white" stroke="black" cx="1065.48" cy="-748.635" rx="50.9823" ry="18"/>
<text text-anchor="middle" x="1065.48" y="-744.035" font-family="Helvetica,sans-Serif" font-size="14.00">hardwork</text>

</g>
<!-- young&#45;&gt;hardwork -->
<g id="edge108" class="edge"><title>young&#45;&gt;hardwork</title>
<path fill="none" stroke="black" d="M1018.15,-665.608C1027.06,-681.226 1040.22,-704.317 1050.4,-722.185"/>
<polygon fill="black" stroke="black" points="1047.43,-724.031 1055.42,-730.986 1053.51,-720.565 1047.43,-724.031"/>
</g>
<!-- Marine -->
<g id="node104" class="node"><title>Marine</title>
<ellipse fill="white" stroke="black" cx="1044.3" cy="-865.572" rx="40.2492" ry="18"/>
<text text-anchor="middle" x="1044.3" y="-860.972" font-family="Helvetica,sans-Serif" font-size="14.00">Marine</text>
</g>
<!-- young&#45;&gt;Marine -->
<g id="edge110" class="edge"><title>young&#45;&gt;Marine</title>
<path fill="none" stroke="black" d="M1011.19,-666.263C1017.5,-704.256 1032.13,-792.323 1039.66,-837.594"/>
<polygon fill="black" stroke="black" points="1036.23,-838.318 1041.32,-847.609 1043.13,-837.17 1036.23,-838.318"/>
</g>
<!-- dear -->
<g id="node69" class="node"><title>dear</title>
<ellipse fill="white" stroke="black" cx="32.5" cy="-417.331" rx="31.0281" ry="18"/>
<text text-anchor="middle" x="32.5" y="-412.731" font-family="Helvetica,sans-Serif" font-size="14.00">dear</text>
</g>
<!-- friend&#45;&gt;dear -->
<g id="edge74" class="edge"><title>friend&#45;&gt;dear</title>
<path fill="none" stroke="black" d="M208.752,-393.718C171.447,-398.716 112.34,-406.635 72.9985,-411.905"/>
<polygon fill="black" stroke="black" points="72.4013,-408.454 62.9546,-413.251 73.3308,-415.392 72.4013,-408.454"/>
</g>
<!-- mine -->
<g id="node71" class="node"><title>mine</title>
<ellipse fill="white" stroke="black" cx="45.6359" cy="-316.547" rx="31.0281" ry="18"/>
<text text-anchor="middle" x="45.6359" y="-311.947" font-family="Helvetica,sans-Serif" font-size="14.00">mine</text>
</g>
<!-- friend&#45;&gt;mine -->
<g id="edge76" class="edge"><title>friend&#45;&gt;mine</title>
<path fill="none" stroke="black" d="M214.401,-378.35C179.152,-365.441 119.886,-343.738 81.7885,-329.786"/>
<polygon fill="black" stroke="black" points="82.7083,-326.396 72.1146,-326.244 80.3012,-332.969 82.7083,-326.396"/>
</g>
<!-- thank -->
<g id="node73" class="node"><title>thank</title>

<ellipse fill="white" stroke="black" cx="222.047" cy="-255.39" rx="34.8827" ry="18"/>
<text text-anchor="middle" x="222.047" y="-250.79" font-family="Helvetica,sans-Serif" font-size="14.00">thank</text>

</g>
<!-- friend&#45;&gt;thank -->
<g id="edge78" class="edge"><title>friend&#45;&gt;thank</title>
<path fill="none" stroke="black" d="M240.705,-371.022C237.087,-348.602 230.87,-310.067 226.614,-283.692"/>
<polygon fill="black" stroke="black" points="230.027,-282.872 224.978,-273.557 223.116,-283.987 230.027,-282.872"/>
</g>
<!-- ally -->
<g id="node75" class="node"><title>ally</title>

<ellipse fill="white" stroke="black" cx="71.3943" cy="-517.057" rx="27" ry="18"/>
<text text-anchor="middle" x="71.3943" y="-512.457" font-family="Helvetica,sans-Serif" font-size="14.00">ally</text>

</g>
<!-- friend&#45;&gt;ally -->
<g id="edge80" class="edge"><title>friend&#45;&gt;ally</title>
<path fill="none" stroke="black" d="M223.181,-404.235C191.886,-427.496 132.097,-471.937 97.6354,-497.552"/>
<polygon fill="black" stroke="black" points="95.3902,-494.86 89.4524,-503.635 99.5661,-500.478 95.3902,-494.86"/>
</g>
<!-- neighbor -->
<g id="node77" class="node"><title>neighbor</title>
<ellipse fill="white" stroke="black" cx="329.519" cy="-487.46" rx="47.8011" ry="18"/>
<text text-anchor="middle" x="329.519" y="-482.86" font-family="Helvetica,sans-Serif" font-size="14.00">neighbor</text>
</g>
<!-- friend&#45;&gt;neighbor -->
<g id="edge82" class="edge"><title>friend&#45;&gt;neighbor</title>
<path fill="none" stroke="black" d="M258.186,-405.742C271.802,-421.34 292.305,-444.828 307.84,-462.625"/>
<polygon fill="black" stroke="black" points="305.373,-465.121 314.586,-470.353 310.647,-460.518 305.373,-465.121"/>
</g>
<!-- colleague -->
<g id="node79" class="node"><title>colleague</title>

<ellipse fill="white" stroke="black" cx="180.632" cy="-511.92" rx="52.9948" ry="18"/>
<text text-anchor="middle" x="180.632" y="-507.32" font-family="Helvetica,sans-Serif" font-size="14.00">colleague</text>

</g>
<!-- friend&#45;&gt;colleague -->
<g id="edge84" class="edge"><title>friend&#45;&gt;colleague</title>
<path fill="none" stroke="black" d="M234.589,-406.652C224.126,-427.065 206.758,-460.949 194.56,-484.748"/>
<polygon fill="black" stroke="black" points="191.29,-483.453 189.844,-493.949 197.52,-486.646 191.29,-483.453"/>
</g>
<!-- Vilsack -->
<g id="node81" class="node"><title>Vilsack</title>
<ellipse fill="white" stroke="black" cx="100.772" cy="-230.299" rx="40.92" ry="18"/>
<text text-anchor="middle" x="100.772" y="-225.699" font-family="Helvetica,sans-Serif" font-size="14.00">Vilsack</text>
</g>
<!-- friend&#45;&gt;Vilsack -->
<g id="edge86" class="edge"><title>friend&#45;&gt;Vilsack</title>
<path fill="none" stroke="black" d="M228.597,-372.359C203.372,-344.325 152.376,-287.65 122.993,-254.995"/>
<polygon fill="black" stroke="black" points="125.308,-252.335 116.017,-247.242 120.104,-257.017 125.308,-252.335"/>
</g>
<!-- Congresswoman -->
<g id="node83" class="node"><title>Congresswoman</title>
<ellipse fill="white" stroke="black" cx="216.181" cy="-144.992" rx="83.1817" ry="18"/>
<text text-anchor="middle" x="216.181" y="-140.392" font-family="Helvetica,sans-Serif" font-size="14.00">Congresswoman</text>
</g>
<!-- friend&#45;&gt;Congresswoman -->
<g id="edge88" class="edge"><title>friend&#45;&gt;Congresswoman</title>
<path fill="none" stroke="black" d="M241.551,-370.704C236.803,-328.463 225.071,-224.081 219.379,-173.447"/>
<polygon fill="black" stroke="black" points="222.824,-172.762 218.229,-163.215 215.868,-173.544 222.824,-172.762"/>
</g>
<!-- former -->
<g id="node85" class="node"><title>former</title>

<ellipse fill="white" stroke="black" cx="345.645" cy="-280.393" rx="40.92" ry="18"/>
<text text-anchor="middle" x="345.645" y="-275.793" font-family="Helvetica,sans-Serif" font-size="14.00">former</text>

</g>
<!-- friend&#45;&gt;former -->
<g id="edge90" class="edge"><title>friend&#45;&gt;former</title>
<path fill="none" stroke="black" d="M259.11,-372.545C276.114,-354.437 303.572,-325.197 322.992,-304.517"/>
<polygon fill="black" stroke="black" points="325.709,-306.736 330.003,-297.051 320.606,-301.945 325.709,-306.736"/>
</g>
</g>
</svg>
