<?xml version="1.0" encoding="UTF-8" standalone="no"?>
<!DOCTYPE svg PUBLIC "-//W3C//DTD SVG 1.1//EN"
 "http://www.w3.org/Graphics/SVG/1.1/DTD/svg11.dtd">
<!-- Generated by graphviz version 2.26.3 (20100126.1600)
 -->
<!-- Title: ??? Pages: 1 -->
<svg width="901.6pt" height="854pt"
 viewBox="0.00 0.00 1288.05 1220.08" xmlns="http://www.w3.org/2000/svg" xmlns:xlink="http://www.w3.org/1999/xlink">
<g id="graph1" class="graph" transform="scale(1 1) rotate(0) translate(4 1216.08)">
<title>???</title>
<polygon fill="white" stroke="white" points="-4,5 -4,-1216.08 1285.05,-1216.08 1285.05,5 -4,5"/>
<!-- ??? -->
<g id="node1" class="node"><title>bank</title>

<ellipse fill="brown" stroke="black" cx="708.004" cy="-682.686" rx="31.0281" ry="18"/>
<text text-anchor="middle" x="708.004" y="-678.086" font-family="Helvetica,sans-Serif" font-size="14.00" fill="white">???</text>

</g>
<!-- investment -->
<g id="node3" class="node"><title>investment</title>

<ellipse fill="white" stroke="black" cx="1008.19" cy="-720.01" rx="57.8626" ry="18"/>
<text text-anchor="middle" x="1008.19" y="-715.41" font-family="Helvetica,sans-Serif" font-size="14.00">investment</text>

</g>
<!-- ???&#45;&gt;investment -->
<g id="edge2" class="edge"><title>???&#45;&gt;investment</title>
<path fill="none" stroke="black" d="M736.272,-690.412C782.592,-698.982 875.917,-711.109 940.208,-717.34"/>
<polygon fill="black" stroke="black" points="939.981,-720.834 950.266,-718.287 940.638,-713.864 939.981,-720.834"/>
</g>
<!-- Wall -->
<g id="node16" class="node"><title>Wall</title>

<ellipse fill="white" stroke="black" cx="863.141" cy="-938.993" rx="29.0158" ry="18"/>
<text text-anchor="middle" x="863.141" y="-934.393" font-family="Helvetica,sans-Serif" font-size="14.00">Wall</text>

</g>
<!-- ???&#45;&gt;Wall -->
<g id="edge60" class="edge"><title>???&#45;&gt;Wall</title>
<path fill="none" stroke="black" d="M714.726,-700.525C737.225,-745.53 808.275,-863.445 843.391,-914.691"/>
<polygon fill="black" stroke="black" points="840.716,-916.974 849.31,-923.171 846.456,-912.968 840.716,-916.974"/>
</g>
<!-- Street -->
<g id="node18" class="node"><title>Street</title>

<ellipse fill="white" stroke="black" cx="933.289" cy="-881.582" rx="39.0774" ry="18"/>
<text text-anchor="middle" x="933.289" y="-876.982" font-family="Helvetica,sans-Serif" font-size="14.00">Street</text>

</g>
<!-- ???&#45;&gt;Street -->
<g id="edge22" class="edge"><title>???&#45;&gt;Street</title>
<path fill="none" stroke="black" d="M721.085,-699.079C756.148,-735.094 852.357,-820.478 902.34,-860.436"/>
<polygon fill="black" stroke="black" points="900.222,-863.223 910.24,-866.671 904.559,-857.728 900.222,-863.223"/>
</g>
<!-- foreclose -->
<g id="node20" class="node"><title>foreclose</title>
<ellipse fill="white" stroke="black" cx="606.729" cy="-585.634" rx="51.1517" ry="18"/>
<text text-anchor="middle" x="606.729" y="-581.034" font-family="Helvetica,sans-Serif" font-size="14.00">foreclose</text>
</g>
<!-- ???&#45;&gt;foreclose -->
<g id="edge20" class="edge"><title>???&#45;&gt;foreclose</title>
<path fill="none" stroke="black" d="M691.733,-667.093C675.685,-651.715 650.919,-627.981 632.252,-610.092"/>
<polygon fill="black" stroke="black" points="634.309,-607.216 624.668,-602.824 629.466,-612.27 634.309,-607.216"/>
</g>
<!-- mortgage -->
<g id="node36" class="node"><title>mortgage</title>

<ellipse fill="white" stroke="black" cx="286.223" cy="-795.838" rx="53.1641" ry="18"/>
<text text-anchor="middle" x="286.223" y="-791.238" font-family="Helvetica,sans-Serif" font-size="14.00">mortgage</text>

</g>
<!-- ???&#45;&gt;mortgage -->
<g id="edge40" class="edge"><title>???&#45;&gt;mortgage</title>
<path fill="none" stroke="black" d="M679.675,-690.286C609.62,-709.08 427.445,-757.952 337.707,-782.026"/>
<polygon fill="black" stroke="black" points="336.767,-778.655 328.015,-784.626 338.581,-785.416 336.767,-778.655"/>
</g>
<!-- line -->
<g id="node68" class="node"><title>line</title>

<ellipse fill="white" stroke="black" cx="692.984" cy="-258.959" rx="27" ry="18"/>
<text text-anchor="middle" x="692.984" y="-254.359" font-family="Helvetica,sans-Serif" font-size="14.00">line</text>

</g>
<!-- ???&#45;&gt;line -->
<g id="edge80" class="edge"><title>???&#45;&gt;line</title>
<path fill="none" stroke="black" d="M707.359,-664.479C705.004,-598.063 696.866,-368.48 693.996,-287.506"/>
<polygon fill="black" stroke="black" points="697.479,-286.968 693.627,-277.098 690.484,-287.216 697.479,-286.968"/>
</g>
<!-- investment&#45;&gt;??? -->
<g id="edge8" class="edge"><title>investment&#45;&gt;???</title>
<path fill="none" stroke="black" d="M961.912,-709.154C903.798,-699.576 804.985,-687.379 749.312,-682.986"/>
<polygon fill="black" stroke="black" points="749.337,-679.479 739.108,-682.237 748.824,-686.46 749.337,-679.479"/>
</g>
<!-- make -->
<g id="node5" class="node"><title>make</title>

<ellipse fill="white" stroke="black" cx="1015.17" cy="-550.301" rx="34.8827" ry="18"/>
<text text-anchor="middle" x="1015.17" y="-545.701" font-family="Helvetica,sans-Serif" font-size="14.00">make</text>

</g>
<!-- investment&#45;&gt;make -->
<g id="edge4" class="edge"><title>investment&#45;&gt;make</title>
<path fill="none" stroke="black" d="M1008.94,-701.848C1010.16,-672.246 1012.57,-613.391 1014.01,-578.375"/>
<polygon fill="black" stroke="black" points="1017.51,-578.468 1014.43,-568.332 1010.52,-578.18 1017.51,-578.468"/>
</g>
<!-- research -->
<g id="node7" class="node"><title>research</title>

<ellipse fill="white" stroke="black" cx="1229.55" cy="-659.632" rx="49.1393" ry="18"/>
<text text-anchor="middle" x="1229.55" y="-655.032" font-family="Helvetica,sans-Serif" font-size="14.00">research</text>

</g>
<!-- investment&#45;&gt;research -->
<g id="edge6" class="edge"><title>investment&#45;&gt;research</title>
<path fill="none" stroke="black" d="M1051.93,-708.081C1088.82,-698.018 1141.62,-683.617 1180.06,-673.133"/>
<polygon fill="black" stroke="black" points="1181.27,-676.43 1190,-670.422 1179.43,-669.676 1181.27,-676.43"/>
</g>
<!-- increase -->
<g id="node10" class="node"><title>increase</title>

<ellipse fill="white" stroke="black" cx="1154.57" cy="-555.672" rx="47.1269" ry="18"/>
<text text-anchor="middle" x="1154.57" y="-551.072" font-family="Helvetica,sans-Serif" font-size="14.00">increase</text>

</g>
<!-- investment&#45;&gt;increase -->
<g id="edge10" class="edge"><title>investment&#45;&gt;increase</title>
<path fill="none" stroke="black" d="M1023.86,-702.423C1049.94,-673.14 1102.35,-614.296 1132.28,-580.698"/>
<polygon fill="black" stroke="black" points="1134.98,-582.928 1139.02,-573.133 1129.75,-578.272 1134.98,-582.928"/>
</g>
<!-- manager -->
<g id="node12" class="node"><title>manager</title>
<ellipse fill="white" stroke="black" cx="1030.51" cy="-843.288" rx="49.1393" ry="18"/>
<text text-anchor="middle" x="1030.51" y="-838.688" font-family="Helvetica,sans-Serif" font-size="14.00">manager</text>
</g>
<!-- investment&#45;&gt;manager -->
<g id="edge12" class="edge"><title>investment&#45;&gt;manager</title>
<path fill="none" stroke="black" d="M1011.48,-738.2C1015.14,-758.412 1021.1,-791.306 1025.37,-814.911"/>
<polygon fill="black" stroke="black" points="1021.98,-815.806 1027.2,-825.023 1028.86,-814.559 1021.98,-815.806"/>
</g>
<!-- return -->
<g id="node14" class="node"><title>return</title>

<ellipse fill="white" stroke="black" cx="1220.32" cy="-787.15" rx="37.0651" ry="18"/>
<text text-anchor="middle" x="1220.32" y="-782.55" font-family="Helvetica,sans-Serif" font-size="14.00">return</text>

</g>
<!-- investment&#45;&gt;return -->
<g id="edge14" class="edge"><title>investment&#45;&gt;return</title>
<path fill="none" stroke="black" d="M1049.09,-732.955C1086.67,-744.849 1142.06,-762.381 1179.58,-774.257"/>
<polygon fill="black" stroke="black" points="1178.6,-777.617 1189.19,-777.297 1180.71,-770.943 1178.6,-777.617"/>
</g>
<!-- investment&#45;&gt;Wall -->
<g id="edge16" class="edge"><title>investment&#45;&gt;Wall</title>
<path fill="none" stroke="black" d="M991.662,-737.576C962.095,-775.973 901.489,-867.271 875.333,-912.602"/>
<polygon fill="black" stroke="black" points="872.156,-911.112 870.298,-921.542 878.255,-914.547 872.156,-911.112"/>
</g>
<!-- investment&#45;&gt;Street -->
<g id="edge18" class="edge"><title>investment&#45;&gt;Street</title>
<path fill="none" stroke="black" d="M994.998,-737.571C978.995,-765.638 953.284,-820.711 940.462,-854.044"/>
<polygon fill="black" stroke="black" points="937.101,-853.043 936.922,-863.637 943.668,-855.467 937.101,-853.043"/>
</g>
<!-- Wall&#45;&gt;??? -->
<g id="edge74" class="edge"><title>Wall&#45;&gt;???</title>
<path fill="none" stroke="black" d="M856.419,-921.155C833.927,-876.165 762.919,-758.316 727.79,-707.041"/>
<polygon fill="black" stroke="black" points="730.661,-705.038 722.07,-698.837 724.919,-709.042 730.661,-705.038"/>
</g>
<!-- Wall&#45;&gt;investment -->
<g id="edge68" class="edge"><title>Wall&#45;&gt;investment</title>
<path fill="none" stroke="black" d="M878.272,-923.233C907.159,-886.133 968.886,-793.27 995.652,-747.003"/>
<polygon fill="black" stroke="black" points="998.79,-748.565 1000.66,-738.137 992.696,-745.12 998.79,-748.565"/>
</g>
<!-- Wall&#45;&gt;manager -->
<g id="edge62" class="edge"><title>Wall&#45;&gt;manager</title>
<path fill="none" stroke="black" d="M884.679,-926.677C912.52,-910.757 961.387,-882.813 994.817,-863.697"/>
<polygon fill="black" stroke="black" points="996.863,-866.559 1003.81,-858.556 993.388,-860.482 996.863,-866.559"/>
</g>
<!-- firm -->
<g id="node25" class="node"><title>firm</title>
<ellipse fill="white" stroke="black" cx="834.31" cy="-1043.54" rx="28.1745" ry="18"/>
<text text-anchor="middle" x="834.31" y="-1038.94" font-family="Helvetica,sans-Serif" font-size="14.00">firm</text>
</g>
<!-- Wall&#45;&gt;firm -->
<g id="edge66" class="edge"><title>Wall&#45;&gt;firm</title>
<path fill="none" stroke="black" d="M858.119,-957.203C853.654,-973.393 847.06,-997.305 841.943,-1015.86"/>
<polygon fill="black" stroke="black" points="838.559,-1014.96 839.275,-1025.53 845.307,-1016.82 838.559,-1014.96"/>
</g>
<!-- risk -->
<g id="node27" class="node"><title>risk</title>

<ellipse fill="white" stroke="black" cx="1028.79" cy="-990.715" rx="27" ry="18"/>
<text text-anchor="middle" x="1028.79" y="-986.115" font-family="Helvetica,sans-Serif" font-size="14.00">risk</text>

</g>
<!-- Wall&#45;&gt;risk -->
<g id="edge78" class="edge"><title>Wall&#45;&gt;risk</title>
<path fill="none" stroke="black" d="M889.389,-947.189C917.872,-956.082 963.455,-970.314 994.691,-980.067"/>
<polygon fill="black" stroke="black" points="993.7,-983.424 1004.29,-983.064 995.787,-976.742 993.7,-983.424"/>
</g>
<!-- crisis -->
<g id="node30" class="node"><title>crisis</title>

<ellipse fill="white" stroke="black" cx="965.051" cy="-1076.06" rx="32.8702" ry="18"/>
<text text-anchor="middle" x="965.051" y="-1071.46" font-family="Helvetica,sans-Serif" font-size="14.00">crisis</text>

</g>
<!-- Wall&#45;&gt;crisis -->
<g id="edge70" class="edge"><title>Wall&#45;&gt;crisis</title>
<path fill="none" stroke="black" d="M875.434,-955.527C893.089,-979.274 925.767,-1023.23 946.406,-1050.99"/>
<polygon fill="black" stroke="black" points="943.619,-1053.1 952.395,-1059.04 949.237,-1048.93 943.619,-1053.1"/>
</g>
<!-- company -->
<g id="node32" class="node"><title>company</title>

<ellipse fill="white" stroke="black" cx="776.734" cy="-858.227" rx="49.1393" ry="18"/>
<text text-anchor="middle" x="776.734" y="-853.627" font-family="Helvetica,sans-Serif" font-size="14.00">company</text>

</g>
<!-- Wall&#45;&gt;company -->
<g id="edge64" class="edge"><title>Wall&#45;&gt;company</title>
<path fill="none" stroke="black" d="M846.888,-923.802C834.349,-912.081 816.766,-895.646 802.341,-882.162"/>
<polygon fill="black" stroke="black" points="804.399,-879.295 794.703,-875.023 799.619,-884.409 804.399,-879.295"/>
</g>
<!-- create -->
<g id="node62" class="node"><title>create</title>

<ellipse fill="white" stroke="black" cx="868.184" cy="-1193.08" rx="39.0774" ry="18"/>
<text text-anchor="middle" x="868.184" y="-1188.48" font-family="Helvetica,sans-Serif" font-size="14.00">create</text>

</g>
<!-- Wall&#45;&gt;create -->
<g id="edge72" class="edge"><title>Wall&#45;&gt;create</title>
<path fill="none" stroke="black" d="M863.504,-957.267C864.372,-1001.03 866.577,-1112.13 867.62,-1164.69"/>
<polygon fill="black" stroke="black" points="864.126,-1165.04 867.824,-1174.97 871.125,-1164.91 864.126,-1165.04"/>
</g>
<!-- represent -->
<g id="node65" class="node"><title>represent</title>

<ellipse fill="white" stroke="black" cx="707.047" cy="-1103.08" rx="52.9948" ry="18"/>
<text text-anchor="middle" x="707.047" y="-1098.48" font-family="Helvetica,sans-Serif" font-size="14.00">represent</text>

</g>
<!-- Wall&#45;&gt;represent -->
<g id="edge76" class="edge"><title>Wall&#45;&gt;represent</title>
<path fill="none" stroke="black" d="M848.174,-954.727C820.932,-983.363 763.067,-1044.19 730.528,-1078.4"/>
<polygon fill="black" stroke="black" points="727.96,-1076.02 723.604,-1085.67 733.032,-1080.84 727.96,-1076.02"/>
</g>
<!-- Street&#45;&gt;??? -->
<g id="edge26" class="edge"><title>Street&#45;&gt;???</title>
<path fill="none" stroke="black" d="M919.538,-864.502C883.503,-827.658 786.302,-741.481 737.167,-702.408"/>
<polygon fill="black" stroke="black" points="739.173,-699.533 729.143,-696.118 734.854,-705.042 739.173,-699.533"/>
</g>
<!-- Street&#45;&gt;investment -->
<g id="edge32" class="edge"><title>Street&#45;&gt;investment</title>
<path fill="none" stroke="black" d="M946.308,-864.329C962.278,-836.391 988.09,-781.133 1000.97,-747.666"/>
<polygon fill="black" stroke="black" points="1004.35,-748.627 1004.53,-738.034 997.783,-746.201 1004.35,-748.627"/>
</g>
<!-- Street&#45;&gt;manager -->
<g id="edge24" class="edge"><title>Street&#45;&gt;manager</title>
<path fill="none" stroke="black" d="M962.986,-869.884C970.692,-866.849 979.149,-863.518 987.393,-860.271"/>
<polygon fill="black" stroke="black" points="988.893,-863.441 996.915,-856.52 986.328,-856.929 988.893,-863.441"/>
</g>
<!-- Street&#45;&gt;firm -->
<g id="edge28" class="edge"><title>Street&#45;&gt;firm</title>
<path fill="none" stroke="black" d="M922.696,-898.914C905.283,-927.407 870.513,-984.299 850.159,-1017.6"/>
<polygon fill="black" stroke="black" points="847.055,-1015.97 844.827,-1026.33 853.028,-1019.62 847.055,-1015.97"/>
</g>
<!-- Street&#45;&gt;risk -->
<g id="edge30" class="edge"><title>Street&#45;&gt;risk</title>
<path fill="none" stroke="black" d="M948.212,-898.634C964.329,-917.051 990.118,-946.52 1008.17,-967.146"/>
<polygon fill="black" stroke="black" points="1005.69,-969.626 1014.91,-974.846 1010.96,-965.016 1005.69,-969.626"/>
</g>
<!-- Street&#45;&gt;crisis -->
<g id="edge34" class="edge"><title>Street&#45;&gt;crisis</title>
<path fill="none" stroke="black" d="M936.277,-899.878C941.848,-933.991 953.854,-1007.5 960.46,-1047.96"/>
<polygon fill="black" stroke="black" points="957.028,-1048.65 962.094,-1057.96 963.936,-1047.52 957.028,-1048.65"/>
</g>
<!-- Street&#45;&gt;company -->
<g id="edge36" class="edge"><title>Street&#45;&gt;company</title>
<path fill="none" stroke="black" d="M895.79,-875.988C876.822,-873.158 853.421,-869.667 832.4,-866.532"/>
<polygon fill="black" stroke="black" points="832.709,-863.039 822.302,-865.025 831.676,-869.962 832.709,-863.039"/>
</g>
<!-- foreclosure -->
<g id="node34" class="node"><title>foreclosure</title>

<ellipse fill="white" stroke="black" cx="1160.7" cy="-996.699" rx="59.8749" ry="18"/>
<text text-anchor="middle" x="1160.7" y="-992.099" font-family="Helvetica,sans-Serif" font-size="14.00">foreclosure</text>

</g>
<!-- Street&#45;&gt;foreclosure -->
<g id="edge38" class="edge"><title>Street&#45;&gt;foreclosure</title>
<path fill="none" stroke="black" d="M959.821,-895.013C999.502,-915.099 1074.58,-953.103 1120.87,-976.533"/>
<polygon fill="black" stroke="black" points="1119.5,-979.764 1130,-981.158 1122.66,-973.519 1119.5,-979.764"/>
</g>
<!-- rate -->
<g id="node38" class="node"><title>rate</title>

<ellipse fill="white" stroke="black" cx="30.5" cy="-799.306" rx="29.0158" ry="18"/>
<text text-anchor="middle" x="30.5" y="-794.706" font-family="Helvetica,sans-Serif" font-size="14.00">rate</text>

</g>
<!-- mortgage&#45;&gt;rate -->
<g id="edge42" class="edge"><title>mortgage&#45;&gt;rate</title>
<path fill="none" stroke="black" d="M233.237,-796.557C184.583,-797.217 113.595,-798.179 69.8163,-798.773"/>
<polygon fill="black" stroke="black" points="69.5217,-795.277 59.5702,-798.912 69.6167,-802.276 69.5217,-795.277"/>
</g>
<!-- lender -->
<g id="node40" class="node"><title>lender</title>

<ellipse fill="white" stroke="black" cx="154.639" cy="-808.764" rx="38.2368" ry="18"/>
<text text-anchor="middle" x="154.639" y="-804.164" font-family="Helvetica,sans-Serif" font-size="14.00">lender</text>

</g>
<!-- mortgage&#45;&gt;lender -->
<g id="edge44" class="edge"><title>mortgage&#45;&gt;lender</title>
<path fill="none" stroke="black" d="M234.972,-800.873C224.145,-801.936 212.764,-803.054 202.084,-804.103"/>
<polygon fill="black" stroke="black" points="201.711,-800.623 192.101,-805.084 202.395,-807.59 201.711,-800.623"/>
</g>
<!-- broker -->
<g id="node42" class="node"><title>broker</title>

<ellipse fill="white" stroke="black" cx="85.497" cy="-933.867" rx="38.9076" ry="18"/>
<text text-anchor="middle" x="85.497" y="-929.267" font-family="Helvetica,sans-Serif" font-size="14.00">broker</text>

</g>
<!-- mortgage&#45;&gt;broker -->
<g id="edge46" class="edge"><title>mortgage&#45;&gt;broker</title>
<path fill="none" stroke="black" d="M262.409,-812.214C225.838,-837.362 155.88,-885.468 115.765,-913.053"/>
<polygon fill="black" stroke="black" points="113.698,-910.227 107.441,-918.777 117.664,-915.995 113.698,-910.227"/>
</g>
<!-- industry -->
<g id="node44" class="node"><title>industry</title>

<ellipse fill="white" stroke="black" cx="190.987" cy="-1000.33" rx="44.945" ry="18"/>
<text text-anchor="middle" x="190.987" y="-995.73" font-family="Helvetica,sans-Serif" font-size="14.00">industry</text>

</g>
<!-- mortgage&#45;&gt;industry -->
<g id="edge48" class="edge"><title>mortgage&#45;&gt;industry</title>
<path fill="none" stroke="black" d="M277.938,-813.628C261.228,-849.507 223.398,-930.737 203.601,-973.247"/>
<polygon fill="black" stroke="black" points="200.37,-971.893 199.321,-982.436 206.716,-974.848 200.37,-971.893"/>
</g>
<!-- sub&#45;prime -->
<g id="node46" class="node"><title>sub&#45;prime</title>
<ellipse fill="white" stroke="black" cx="402.926" cy="-887.846" rx="53.1641" ry="18"/>
<text text-anchor="middle" x="402.926" y="-883.246" font-family="Helvetica,sans-Serif" font-size="14.00">sub&#45;prime</text>
</g>
<!-- mortgage&#45;&gt;sub&#45;prime -->
<g id="edge50" class="edge"><title>mortgage&#45;&gt;sub&#45;prime</title>
<path fill="none" stroke="black" d="M307.357,-812.5C325.946,-827.156 353.185,-848.63 373.831,-864.907"/>
<polygon fill="black" stroke="black" points="371.929,-867.865 381.949,-871.308 376.263,-862.368 371.929,-867.865"/>
</g>
<!-- unworkable -->
<g id="node48" class="node"><title>unworkable</title>
<ellipse fill="white" stroke="black" cx="315.614" cy="-1003.09" rx="59.2013" ry="18"/>
<text text-anchor="middle" x="315.614" y="-998.492" font-family="Helvetica,sans-Serif" font-size="14.00">unworkable</text>
</g>
<!-- mortgage&#45;&gt;unworkable -->
<g id="edge52" class="edge"><title>mortgage&#45;&gt;unworkable</title>
<path fill="none" stroke="black" d="M288.78,-813.868C293.904,-850.002 305.464,-931.521 311.605,-974.822"/>
<polygon fill="black" stroke="black" points="308.173,-975.547 313.042,-984.956 315.103,-974.564 308.173,-975.547"/>
</g>
<!-- adjustable -->
<g id="node50" class="node"><title>adjustable</title>
<ellipse fill="white" stroke="black" cx="338.808" cy="-653.599" rx="55.1765" ry="18"/>
<text text-anchor="middle" x="338.808" y="-648.999" font-family="Helvetica,sans-Serif" font-size="14.00">adjustable</text>
</g>
<!-- mortgage&#45;&gt;adjustable -->
<g id="edge54" class="edge"><title>mortgage&#45;&gt;adjustable</title>
<path fill="none" stroke="black" d="M292.883,-777.823C301.882,-753.483 318.009,-709.86 328.558,-681.325"/>
<polygon fill="black" stroke="black" points="331.852,-682.51 332.036,-671.917 325.286,-680.083 331.852,-682.51"/>
</g>
<!-- payment -->
<g id="node52" class="node"><title>payment</title>

<ellipse fill="white" stroke="black" cx="202.635" cy="-604.329" rx="47.8011" ry="18"/>
<text text-anchor="middle" x="202.635" y="-599.729" font-family="Helvetica,sans-Serif" font-size="14.00">payment</text>

</g>
<!-- mortgage&#45;&gt;payment -->
<g id="edge56" class="edge"><title>mortgage&#45;&gt;payment</title>
<path fill="none" stroke="black" d="M278.359,-777.821C263.635,-744.087 231.833,-671.224 214.494,-631.499"/>
<polygon fill="black" stroke="black" points="217.625,-629.923 210.417,-622.158 211.21,-632.723 217.625,-629.923"/>
</g>
<!-- risky -->
<g id="node54" class="node"><title>risky</title>
<ellipse fill="white" stroke="black" cx="89.2453" cy="-669.15" rx="30.1869" ry="18"/>
<text text-anchor="middle" x="89.2453" y="-664.55" font-family="Helvetica,sans-Serif" font-size="14.00">risky</text>
</g>
<!-- mortgage&#45;&gt;risky -->
<g id="edge58" class="edge"><title>mortgage&#45;&gt;risky</title>
<path fill="none" stroke="black" d="M261.276,-779.793C224.856,-756.37 157.267,-712.899 118.536,-687.988"/>
<polygon fill="black" stroke="black" points="120.112,-684.841 109.808,-682.375 116.326,-690.728 120.112,-684.841"/>
</g>
<!-- front -->
<g id="node70" class="node"><title>front</title>
<ellipse fill="white" stroke="black" cx="751.266" cy="-136.382" rx="32.1994" ry="18"/>
<text text-anchor="middle" x="751.266" y="-131.782" font-family="Helvetica,sans-Serif" font-size="14.00">front</text>
</g>
<!-- line&#45;&gt;front -->
<g id="edge82" class="edge"><title>line&#45;&gt;front</title>
<path fill="none" stroke="black" d="M701.211,-241.657C710.918,-221.24 727.17,-187.06 738.513,-163.203"/>
<polygon fill="black" stroke="black" points="741.759,-164.528 742.892,-153.994 735.437,-161.522 741.759,-164.528"/>
</g>
<!-- bottom -->
<g id="node72" class="node"><title>bottom</title>

<ellipse fill="white" stroke="black" cx="636.149" cy="-33.3166" rx="41.7645" ry="18"/>
<text text-anchor="middle" x="636.149" y="-28.7166" font-family="Helvetica,sans-Serif" font-size="14.00">bottom</text>

</g>
<!-- line&#45;&gt;bottom -->
<g id="edge84" class="edge"><title>line&#45;&gt;bottom</title>
<path fill="none" stroke="black" d="M688.429,-240.875C678.535,-201.596 655.023,-108.25 643.197,-61.2996"/>
<polygon fill="black" stroke="black" points="646.562,-60.3288 640.725,-51.4866 639.774,-62.0387 646.562,-60.3288"/>
</g>
<!-- wait -->
<g id="node74" class="node"><title>wait</title>

<ellipse fill="white" stroke="black" cx="775.627" cy="-19" rx="28.8453" ry="18"/>
<text text-anchor="middle" x="775.627" y="-14.4" font-family="Helvetica,sans-Serif" font-size="14.00">wait</text>

</g>
<!-- line&#45;&gt;wait -->
<g id="edge86" class="edge"><title>line&#45;&gt;wait</title>
<path fill="none" stroke="black" d="M699.061,-241.314C713.329,-199.886 749.057,-96.1472 766.183,-46.4202"/>
<polygon fill="black" stroke="black" points="769.594,-47.2653 769.541,-36.6706 762.976,-44.9859 769.594,-47.2653"/>
</g>
<!-- sign -->
<g id="node76" class="node"><title>sign</title>

<ellipse fill="white" stroke="black" cx="490.234" cy="-220.295" rx="28.1745" ry="18"/>
<text text-anchor="middle" x="490.234" y="-215.695" font-family="Helvetica,sans-Serif" font-size="14.00">sign</text>

</g>
<!-- line&#45;&gt;sign -->
<g id="edge88" class="edge"><title>line&#45;&gt;sign</title>
<path fill="none" stroke="black" d="M666.893,-253.984C631.375,-247.21 567.611,-235.051 527.185,-227.341"/>
<polygon fill="black" stroke="black" points="527.671,-223.871 517.193,-225.436 526.36,-230.747 527.671,-223.871"/>
</g>
<!-- poverty -->
<g id="node78" class="node"><title>poverty</title>

<ellipse fill="white" stroke="black" cx="573.382" cy="-339.006" rx="43.1021" ry="18"/>
<text text-anchor="middle" x="573.382" y="-334.406" font-family="Helvetica,sans-Serif" font-size="14.00">poverty</text>

</g>
<!-- line&#45;&gt;poverty -->
<g id="edge90" class="edge"><title>line&#45;&gt;poverty</title>
<path fill="none" stroke="black" d="M673.768,-271.82C655.114,-284.305 626.483,-303.466 604.565,-318.136"/>
<polygon fill="black" stroke="black" points="602.594,-315.244 596.23,-323.714 606.487,-321.061 602.594,-315.244"/>
</g>
<!-- worker -->
<g id="node80" class="node"><title>worker</title>

<ellipse fill="white" stroke="black" cx="534.062" cy="-101.304" rx="40.2492" ry="18"/>
<text text-anchor="middle" x="534.062" y="-96.7044" font-family="Helvetica,sans-Serif" font-size="14.00">worker</text>

</g>
<!-- line&#45;&gt;worker -->
<g id="edge92" class="edge"><title>line&#45;&gt;worker</title>
<path fill="none" stroke="black" d="M677.746,-243.843C650.127,-216.444 591.591,-158.375 558.387,-125.436"/>
<polygon fill="black" stroke="black" points="560.483,-122.585 550.919,-118.027 555.553,-127.554 560.483,-122.585"/>
</g>
<!-- long -->
<g id="node82" class="node"><title>long</title>

<ellipse fill="white" stroke="black" cx="854.363" cy="-293.925" rx="29.0158" ry="18"/>
<text text-anchor="middle" x="854.363" y="-289.325" font-family="Helvetica,sans-Serif" font-size="14.00">long</text>

</g>
<!-- line&#45;&gt;long -->
<g id="edge94" class="edge"><title>line&#45;&gt;long</title>
<path fill="none" stroke="black" d="M718.912,-264.577C745.373,-270.31 786.71,-279.267 816.762,-285.778"/>
<polygon fill="black" stroke="black" points="816.364,-289.273 826.878,-287.97 817.846,-282.432 816.364,-289.273"/>
</g>
<!-- emergency -->
<g id="node84" class="node"><title>emergency</title>

<ellipse fill="white" stroke="black" cx="893.333" cy="-146.195" rx="59.2013" ry="18"/>
<text text-anchor="middle" x="893.333" y="-141.595" font-family="Helvetica,sans-Serif" font-size="14.00">emergency</text>

</g>
<!-- line&#45;&gt;emergency -->
<g id="edge96" class="edge"><title>line&#45;&gt;emergency</title>
<path fill="none" stroke="black" d="M713.67,-247.316C747.295,-228.391 814.268,-190.696 856.269,-167.056"/>
<polygon fill="black" stroke="black" points="858.09,-170.048 865.088,-162.093 854.657,-163.948 858.09,-170.048"/>
</g>
</g>
</svg>
