<?xml version="1.0" encoding="UTF-8" standalone="no"?>
<!DOCTYPE svg PUBLIC "-//W3C//DTD SVG 1.1//EN"
 "http://www.w3.org/Graphics/SVG/1.1/DTD/svg11.dtd">
<!-- Generated by graphviz version 2.26.3 (20100126.1600)
 -->
<!-- Title: ??? Pages: 1 -->
<svg width="852.6pt" height="559.3pt"
 viewBox="0.00 0.00 1217.93 798.88" xmlns="http://www.w3.org/2000/svg" xmlns:xlink="http://www.w3.org/1999/xlink">
<g id="graph1" class="graph" transform="scale(1 1) rotate(0) translate(4 794.876)">
<title>???</title>
<polygon fill="white" stroke="white" points="-4,5 -4,-794.876 1214.93,-794.876 1214.93,5 -4,5"/>
<!-- ??? -->
<g id="node1" class="node"><title>green</title>

<ellipse fill="brown" stroke="black" cx="660.573" cy="-393.014" rx="36.2243" ry="18"/>
<text text-anchor="middle" x="660.573" y="-388.414" font-family="Helvetica,sans-Serif" font-size="14.00" fill="white">???</text>

</g>
<!-- collar -->
<g id="node3" class="node"><title>collar</title>

<ellipse fill="white" stroke="black" cx="677.65" cy="-250.593" rx="34.8827" ry="18"/>
<text text-anchor="middle" x="677.65" y="-245.993" font-family="Helvetica,sans-Serif" font-size="14.00">collar</text>

</g>
<!-- ???&#45;&gt;collar -->
<g id="edge2" class="edge"><title>???&#45;&gt;collar</title>
<path fill="none" stroke="black" d="M667.44,-375.247C672.782,-351.155 678.238,-307.855 679.753,-279.165"/>
<polygon fill="black" stroke="black" points="683.258,-279.079 680.132,-268.956 676.263,-278.819 683.258,-279.079"/>
</g>
<!-- job -->
<g id="node6" class="node"><title>job</title>

<ellipse fill="white" stroke="black" cx="908.596" cy="-369.86" rx="27" ry="18"/>
<text text-anchor="middle" x="908.596" y="-365.26" font-family="Helvetica,sans-Serif" font-size="14.00">job</text>

</g>
<!-- ???&#45;&gt;job -->
<g id="edge22" class="edge"><title>???&#45;&gt;job</title>
<path fill="none" stroke="black" d="M696.564,-394.576C743.865,-392.634 826.424,-384.93 873.35,-378.081"/>
<polygon fill="black" stroke="black" points="874.003,-381.522 883.356,-376.545 872.94,-374.603 874.003,-381.522"/>
</g>
<!-- create -->
<g id="node8" class="node"><title>create</title>

<ellipse fill="white" stroke="black" cx="813.333" cy="-305.848" rx="39.0774" ry="18"/>
<text text-anchor="middle" x="813.333" y="-301.248" font-family="Helvetica,sans-Serif" font-size="14.00">create</text>

</g>
<!-- ???&#45;&gt;create -->
<g id="edge58" class="edge"><title>???&#45;&gt;create</title>
<path fill="none" stroke="black" d="M689.792,-382.406C717.615,-368.72 759.098,-345.133 786.208,-327.639"/>
<polygon fill="black" stroke="black" points="788.391,-330.392 794.81,-321.963 784.535,-324.549 788.391,-330.392"/>
</g>
<!-- renewable -->
<g id="node14" class="node"><title>renewable</title>

<ellipse fill="white" stroke="black" cx="672.168" cy="-532.55" rx="55.1765" ry="18"/>
<text text-anchor="middle" x="672.168" y="-527.95" font-family="Helvetica,sans-Serif" font-size="14.00">renewable</text>

</g>
<!-- ???&#45;&gt;renewable -->
<g id="edge78" class="edge"><title>???&#45;&gt;renewable</title>
<path fill="none" stroke="black" d="M657.385,-411.074C656.916,-434.815 660.105,-476.761 664.268,-504.612"/>
<polygon fill="black" stroke="black" points="660.823,-505.232 665.906,-514.528 667.73,-504.092 660.823,-505.232"/>
</g>
<!-- building -->
<g id="node36" class="node"><title>building</title>

<ellipse fill="white" stroke="black" cx="292.708" cy="-391.67" rx="43.1021" ry="18"/>
<text text-anchor="middle" x="292.708" y="-387.07" font-family="Helvetica,sans-Serif" font-size="14.00">building</text>

</g>
<!-- ???&#45;&gt;building -->
<g id="edge40" class="edge"><title>???&#45;&gt;building</title>
<path fill="none" stroke="black" d="M625.316,-388.707C560.233,-385.293 420.944,-384.55 344.893,-386.979"/>
<polygon fill="black" stroke="black" points="344.466,-383.492 334.596,-387.343 344.714,-390.488 344.466,-383.492"/>
</g>
<!-- clean -->
<g id="node66" class="node"><title>clean</title>

<ellipse fill="white" stroke="black" cx="813.219" cy="-520.553" rx="34.2118" ry="18"/>
<text text-anchor="middle" x="813.219" y="-515.953" font-family="Helvetica,sans-Serif" font-size="14.00">clean</text>

</g>
<!-- ???&#45;&gt;clean -->
<g id="edge98" class="edge"><title>???&#45;&gt;clean</title>
<path fill="none" stroke="black" d="M673.838,-409.752C697.748,-433.403 748.311,-476.102 781.555,-501.106"/>
<polygon fill="black" stroke="black" points="779.897,-504.233 790.02,-507.36 784.056,-498.603 779.897,-504.233"/>
</g>
<!-- collar&#45;&gt;??? -->
<g id="edge4" class="edge"><title>collar&#45;&gt;???</title>
<path fill="none" stroke="black" d="M670.784,-268.361C665.441,-292.453 659.985,-335.753 658.471,-364.442"/>
<polygon fill="black" stroke="black" points="654.965,-364.529 658.092,-374.652 661.96,-364.788 654.965,-364.529"/>
</g>
<!-- collar&#45;&gt;job -->
<g id="edge6" class="edge"><title>collar&#45;&gt;job</title>
<path fill="none" stroke="black" d="M702.365,-263.357C744.931,-285.339 831.943,-330.274 878.165,-354.145"/>
<polygon fill="black" stroke="black" points="876.618,-357.285 887.109,-358.764 879.83,-351.065 876.618,-357.285"/>
</g>
<!-- collar&#45;&gt;create -->
<g id="edge8" class="edge"><title>collar&#45;&gt;create</title>
<path fill="none" stroke="black" d="M698.998,-264.946C717.657,-274.223 745.328,-285.873 768.781,-294.508"/>
<polygon fill="black" stroke="black" points="767.606,-297.805 778.2,-297.892 769.972,-291.217 767.606,-297.805"/>
</g>
<!-- blue -->
<g id="node10" class="node"><title>blue</title>
<ellipse fill="white" stroke="black" cx="571.59" cy="-39.5238" rx="28.8453" ry="18"/>
<text text-anchor="middle" x="571.59" y="-34.9238" font-family="Helvetica,sans-Serif" font-size="14.00">blue</text>
</g>
<!-- collar&#45;&gt;blue -->
<g id="edge10" class="edge"><title>collar&#45;&gt;blue</title>
<path fill="none" stroke="black" d="M668.79,-232.96C650.183,-195.931 606.95,-109.893 584.956,-66.1237"/>
<polygon fill="black" stroke="black" points="587.968,-64.3216 580.35,-56.9578 581.713,-67.4646 587.968,-64.3216"/>
</g>
<!-- You&#39;ve -->
<g id="node12" class="node"><title>You&#39;ve</title>
<ellipse fill="white" stroke="black" cx="489.343" cy="-149.93" rx="39.0774" ry="18"/>
<text text-anchor="middle" x="489.343" y="-145.33" font-family="Helvetica,sans-Serif" font-size="14.00">You&#39;ve</text>
</g>
<!-- collar&#45;&gt;You&#39;ve -->
<g id="edge12" class="edge"><title>collar&#45;&gt;You&#39;ve</title>
<path fill="none" stroke="black" d="M653.032,-237.433C620.039,-219.796 561.306,-188.399 523.894,-168.4"/>
<polygon fill="black" stroke="black" points="525.34,-165.204 514.871,-163.576 522.04,-171.377 525.34,-165.204"/>
</g>
<!-- collar&#45;&gt;renewable -->
<g id="edge14" class="edge"><title>collar&#45;&gt;renewable</title>
<path fill="none" stroke="black" d="M673.776,-268.591C668.801,-316.356 666.027,-446.607 668.469,-504.346"/>
<polygon fill="black" stroke="black" points="664.986,-504.763 669.007,-514.565 671.976,-504.395 664.986,-504.763"/>
</g>
<!-- million -->
<g id="node16" class="node"><title>million</title>

<ellipse fill="white" stroke="black" cx="850.467" cy="-202.971" rx="37.0651" ry="18"/>
<text text-anchor="middle" x="850.467" y="-198.371" font-family="Helvetica,sans-Serif" font-size="14.00">million</text>

</g>
<!-- collar&#45;&gt;million -->
<g id="edge16" class="edge"><title>collar&#45;&gt;million</title>
<path fill="none" stroke="black" d="M708.546,-242.079C736.284,-234.435 777.257,-223.145 808.058,-214.657"/>
<polygon fill="black" stroke="black" points="809.368,-217.927 818.079,-211.896 807.509,-211.178 809.368,-217.927"/>
</g>
<!-- hear -->
<g id="node18" class="node"><title>hear</title>

<ellipse fill="white" stroke="black" cx="707.655" cy="-19" rx="30.8577" ry="18"/>
<text text-anchor="middle" x="707.655" y="-14.4" font-family="Helvetica,sans-Serif" font-size="14.00">hear</text>

</g>
<!-- collar&#45;&gt;hear -->
<g id="edge18" class="edge"><title>collar&#45;&gt;hear</title>
<path fill="none" stroke="black" d="M680.005,-232.42C685.219,-192.171 697.773,-95.2762 704.01,-47.1301"/>
<polygon fill="black" stroke="black" points="707.497,-47.4551 705.311,-37.0883 700.555,-46.5557 707.497,-47.4551"/>
</g>
<!-- energy -->
<g id="node20" class="node"><title>energy</title>

<ellipse fill="white" stroke="black" cx="575.429" cy="-400.236" rx="40.92" ry="18"/>
<text text-anchor="middle" x="575.429" y="-395.636" font-family="Helvetica,sans-Serif" font-size="14.00">energy</text>

</g>
<!-- collar&#45;&gt;energy -->
<g id="edge20" class="edge"><title>collar&#45;&gt;energy</title>
<path fill="none" stroke="black" d="M665.924,-267.759C648.073,-293.891 613.958,-343.832 593.095,-374.373"/>
<polygon fill="black" stroke="black" points="590.084,-372.578 587.333,-382.809 595.864,-376.526 590.084,-372.578"/>
</g>
<!-- job&#45;&gt;??? -->
<g id="edge34" class="edge"><title>job&#45;&gt;???</title>
<path fill="none" stroke="black" d="M881.647,-367.987C838.71,-369.143 754.413,-376.713 703.222,-383.746"/>
<polygon fill="black" stroke="black" points="702.541,-380.308 693.138,-385.19 703.533,-387.237 702.541,-380.308"/>
</g>
<!-- job&#45;&gt;create -->
<g id="edge24" class="edge"><title>job&#45;&gt;create</title>
<path fill="none" stroke="black" d="M894.53,-354.004C883.028,-344.642 866.301,-332.927 850.998,-323.326"/>
<polygon fill="black" stroke="black" points="852.56,-320.179 842.202,-317.952 848.91,-326.152 852.56,-320.179"/>
</g>
<!-- job&#45;&gt;million -->
<g id="edge38" class="edge"><title>job&#45;&gt;million</title>
<path fill="none" stroke="black" d="M902.485,-352.316C892.351,-323.219 871.993,-264.773 859.97,-230.254"/>
<polygon fill="black" stroke="black" points="863.266,-229.075 856.671,-220.783 856.655,-231.378 863.266,-229.075"/>
</g>
<!-- new -->
<g id="node24" class="node"><title>new</title>

<ellipse fill="white" stroke="black" cx="941.807" cy="-471.665" rx="28.1745" ry="18"/>
<text text-anchor="middle" x="941.807" y="-467.065" font-family="Helvetica,sans-Serif" font-size="14.00">new</text>

</g>
<!-- job&#45;&gt;new -->
<g id="edge26" class="edge"><title>job&#45;&gt;new</title>
<path fill="none" stroke="black" d="M914.381,-387.593C919.469,-403.191 926.958,-426.147 932.825,-444.132"/>
<polygon fill="black" stroke="black" points="929.548,-445.372 935.977,-453.794 936.203,-443.201 929.548,-445.372"/>
</g>
<!-- good -->
<g id="node26" class="node"><title>good</title>

<ellipse fill="white" stroke="black" cx="1011.98" cy="-212.056" rx="33.0404" ry="18"/>
<text text-anchor="middle" x="1011.98" y="-207.456" font-family="Helvetica,sans-Serif" font-size="14.00">good</text>

</g>
<!-- job&#45;&gt;good -->
<g id="edge28" class="edge"><title>job&#45;&gt;good</title>
<path fill="none" stroke="black" d="M919.464,-353.271C937.471,-325.785 973.623,-270.6 995.013,-237.949"/>
<polygon fill="black" stroke="black" points="998.076,-239.662 1000.63,-229.379 992.22,-235.826 998.076,-239.662"/>
</g>
<!-- lose -->
<g id="node28" class="node"><title>lose</title>

<ellipse fill="white" stroke="black" cx="1097.06" cy="-286.88" rx="28.8453" ry="18"/>
<text text-anchor="middle" x="1097.06" y="-282.28" font-family="Helvetica,sans-Serif" font-size="14.00">lose</text>

</g>
<!-- job&#45;&gt;lose -->
<g id="edge30" class="edge"><title>job&#45;&gt;lose</title>
<path fill="none" stroke="black" d="M931.33,-359.851C964.312,-345.329 1025.64,-318.324 1063.74,-301.551"/>
<polygon fill="black" stroke="black" points="1065.62,-304.549 1073.36,-297.316 1062.8,-298.143 1065.62,-304.549"/>
</g>
<!-- outsourced -->
<g id="node30" class="node"><title>outsourced</title>
<ellipse fill="white" stroke="black" cx="1127.61" cy="-495.916" rx="59.2013" ry="18"/>
<text text-anchor="middle" x="1127.61" y="-491.316" font-family="Helvetica,sans-Serif" font-size="14.00">outsourced</text>
</g>
<!-- job&#45;&gt;outsourced -->
<g id="edge32" class="edge"><title>job&#45;&gt;outsourced</title>
<path fill="none" stroke="black" d="M929.2,-381.719C966.236,-403.036 1044.51,-448.09 1090.91,-474.794"/>
<polygon fill="black" stroke="black" points="1089.33,-477.922 1099.74,-479.877 1092.82,-471.856 1089.33,-477.922"/>
</g>
<!-- ship -->
<g id="node33" class="node"><title>ship</title>

<ellipse fill="white" stroke="black" cx="1181.43" cy="-356.537" rx="27.0036" ry="18"/>
<text text-anchor="middle" x="1181.43" y="-351.937" font-family="Helvetica,sans-Serif" font-size="14.00">ship</text>

</g>
<!-- job&#45;&gt;ship -->
<g id="edge36" class="edge"><title>job&#45;&gt;ship</title>
<path fill="none" stroke="black" d="M935.754,-368.534C984.885,-366.135 1088.58,-361.071 1144.25,-358.353"/>
<polygon fill="black" stroke="black" points="1144.57,-361.841 1154.38,-357.858 1144.22,-354.85 1144.57,-361.841"/>
</g>
<!-- create&#45;&gt;??? -->
<g id="edge68" class="edge"><title>create&#45;&gt;???</title>
<path fill="none" stroke="black" d="M782.656,-317.177C754.669,-331.051 713.788,-354.347 687.157,-371.574"/>
<polygon fill="black" stroke="black" points="685.121,-368.724 678.712,-377.161 688.983,-374.562 685.121,-368.724"/>
</g>
<!-- create&#45;&gt;collar -->
<g id="edge72" class="edge"><title>create&#45;&gt;collar</title>
<path fill="none" stroke="black" d="M791.081,-291.046C771.701,-281.48 743.115,-269.522 719.48,-260.937"/>
<polygon fill="black" stroke="black" points="720.625,-257.63 710.031,-257.596 718.292,-264.229 720.625,-257.63"/>
</g>
<!-- create&#45;&gt;job -->
<g id="edge60" class="edge"><title>create&#45;&gt;job</title>
<path fill="none" stroke="black" d="M828.657,-322.721C841.562,-333.078 860.364,-346.029 876.513,-355.828"/>
<polygon fill="black" stroke="black" points="874.764,-358.859 885.158,-360.911 878.312,-352.825 874.764,-358.859"/>
</g>
<!-- create&#45;&gt;million -->
<g id="edge64" class="edge"><title>create&#45;&gt;million</title>
<path fill="none" stroke="black" d="M819.802,-287.928C825.517,-272.093 833.942,-248.752 840.516,-230.54"/>
<polygon fill="black" stroke="black" points="843.846,-231.625 843.949,-221.031 837.261,-229.248 843.846,-231.625"/>
</g>
<!-- create&#45;&gt;energy -->
<g id="edge70" class="edge"><title>create&#45;&gt;energy</title>
<path fill="none" stroke="black" d="M783.684,-317.612C741.266,-334.441 663.146,-365.434 615.581,-384.306"/>
<polygon fill="black" stroke="black" points="614.211,-381.084 606.207,-388.025 616.793,-387.59 614.211,-381.084"/>
</g>
<!-- create&#45;&gt;new -->
<g id="edge62" class="edge"><title>create&#45;&gt;new</title>
<path fill="none" stroke="black" d="M826.598,-322.969C849.53,-352.566 896.649,-413.381 922.968,-447.351"/>
<polygon fill="black" stroke="black" points="920.293,-449.612 929.184,-455.374 925.826,-445.325 920.293,-449.612"/>
</g>
<!-- create&#45;&gt;good -->
<g id="edge66" class="edge"><title>create&#45;&gt;good</title>
<path fill="none" stroke="black" d="M840.954,-292.807C876.628,-275.963 938.728,-246.641 977.47,-228.349"/>
<polygon fill="black" stroke="black" points="979.238,-231.384 986.786,-223.95 976.249,-225.055 979.238,-231.384"/>
</g>
<!-- economy -->
<g id="node60" class="node"><title>economy</title>

<ellipse fill="white" stroke="black" cx="958.289" cy="-106.466" rx="49.8134" ry="18"/>
<text text-anchor="middle" x="958.289" y="-101.866" font-family="Helvetica,sans-Serif" font-size="14.00">economy</text>

</g>
<!-- create&#45;&gt;economy -->
<g id="edge74" class="edge"><title>create&#45;&gt;economy</title>
<path fill="none" stroke="black" d="M825.944,-288.503C851.538,-253.3 909.686,-173.318 939.659,-132.092"/>
<polygon fill="black" stroke="black" points="942.555,-134.06 945.605,-123.913 936.893,-129.944 942.555,-134.06"/>
</g>
<!-- Program -->
<g id="node62" class="node"><title>Program</title>
<ellipse fill="white" stroke="black" cx="776.309" cy="-107.605" rx="49.1393" ry="18"/>
<text text-anchor="middle" x="776.309" y="-103.005" font-family="Helvetica,sans-Serif" font-size="14.00">Program</text>
</g>
<!-- create&#45;&gt;Program -->
<g id="edge76" class="edge"><title>create&#45;&gt;Program</title>
<path fill="none" stroke="black" d="M809.982,-287.906C803.514,-253.273 789.266,-176.984 781.539,-135.61"/>
<polygon fill="black" stroke="black" points="784.955,-134.837 779.679,-125.65 778.074,-136.122 784.955,-134.837"/>
</g>
<!-- renewable&#45;&gt;??? -->
<g id="edge86" class="edge"><title>renewable&#45;&gt;???</title>
<path fill="none" stroke="black" d="M675.357,-514.49C675.825,-490.749 672.636,-448.803 668.473,-420.952"/>
<polygon fill="black" stroke="black" points="671.918,-420.332 666.836,-411.036 665.012,-421.472 671.918,-420.332"/>
</g>
<!-- renewable&#45;&gt;collar -->
<g id="edge90" class="edge"><title>renewable&#45;&gt;collar</title>
<path fill="none" stroke="black" d="M676.042,-514.551C681.017,-466.786 683.791,-336.536 681.35,-278.796"/>
<polygon fill="black" stroke="black" points="684.833,-278.379 680.812,-268.577 677.842,-278.747 684.833,-278.379"/>
</g>
<!-- renewable&#45;&gt;job -->
<g id="edge88" class="edge"><title>renewable&#45;&gt;job</title>
<path fill="none" stroke="black" d="M696.139,-516.055C740.365,-485.623 834.529,-420.827 881.201,-388.712"/>
<polygon fill="black" stroke="black" points="883.353,-391.479 889.607,-382.927 879.385,-385.713 883.353,-391.479"/>
</g>
<!-- renewable&#45;&gt;energy -->
<g id="edge80" class="edge"><title>renewable&#45;&gt;energy</title>
<path fill="none" stroke="black" d="M659.322,-514.979C642.606,-492.116 613.275,-452 594.101,-425.774"/>
<polygon fill="black" stroke="black" points="596.748,-423.465 588.021,-417.458 591.098,-427.596 596.748,-423.465"/>
</g>
<!-- renewable&#45;&gt;clean -->
<g id="edge82" class="edge"><title>renewable&#45;&gt;clean</title>
<path fill="none" stroke="black" d="M726.857,-534.507C742.137,-533.521 758.463,-532.001 772.761,-530.21"/>
<polygon fill="black" stroke="black" points="773.326,-533.666 782.769,-528.862 772.392,-526.728 773.326,-533.666"/>
</g>
<!-- source -->
<g id="node68" class="node"><title>source</title>

<ellipse fill="white" stroke="black" cx="541.394" cy="-721.897" rx="40.2492" ry="18"/>
<text text-anchor="middle" x="541.394" y="-717.297" font-family="Helvetica,sans-Serif" font-size="14.00">source</text>

</g>
<!-- renewable&#45;&gt;source -->
<g id="edge84" class="edge"><title>renewable&#45;&gt;source</title>
<path fill="none" stroke="black" d="M659.865,-550.363C636.673,-583.943 586.397,-656.737 559.398,-695.829"/>
<polygon fill="black" stroke="black" points="556.183,-694.326 553.38,-704.543 561.943,-698.304 556.183,-694.326"/>
</g>
<!-- technology -->
<g id="node73" class="node"><title>technology</title>

<ellipse fill="white" stroke="black" cx="763.043" cy="-670.604" rx="57.8626" ry="18"/>
<text text-anchor="middle" x="763.043" y="-666.004" font-family="Helvetica,sans-Serif" font-size="14.00">technology</text>

</g>
<!-- renewable&#45;&gt;technology -->
<g id="edge92" class="edge"><title>renewable&#45;&gt;technology</title>
<path fill="none" stroke="black" d="M683.862,-550.315C699.607,-574.235 727.737,-616.968 745.882,-644.533"/>
<polygon fill="black" stroke="black" points="742.972,-646.478 751.393,-652.907 748.819,-642.629 742.972,-646.478"/>
</g>
<!-- invest -->
<g id="node75" class="node"><title>invest</title>

<ellipse fill="white" stroke="black" cx="487.606" cy="-594.38" rx="36.2243" ry="18"/>
<text text-anchor="middle" x="487.606" y="-589.78" font-family="Helvetica,sans-Serif" font-size="14.00">invest</text>

</g>
<!-- renewable&#45;&gt;invest -->
<g id="edge94" class="edge"><title>renewable&#45;&gt;invest</title>
<path fill="none" stroke="black" d="M633.478,-545.511C602.384,-555.928 558.868,-570.506 527.467,-581.026"/>
<polygon fill="black" stroke="black" points="526.099,-577.793 517.729,-584.288 528.323,-584.43 526.099,-577.793"/>
</g>
<!-- use -->
<g id="node77" class="node"><title>use</title>

<ellipse fill="white" stroke="black" cx="666.386" cy="-771.876" rx="27" ry="18"/>
<text text-anchor="middle" x="666.386" y="-767.276" font-family="Helvetica,sans-Serif" font-size="14.00">use</text>

</g>
<!-- renewable&#45;&gt;use -->
<g id="edge96" class="edge"><title>renewable&#45;&gt;use</title>
<path fill="none" stroke="black" d="M671.724,-550.932C670.719,-592.537 668.264,-694.142 667.066,-743.728"/>
<polygon fill="black" stroke="black" points="663.567,-743.677 666.824,-753.759 670.565,-743.846 663.567,-743.677"/>
</g>
<!-- building&#45;&gt;??? -->
<g id="edge46" class="edge"><title>building&#45;&gt;???</title>
<path fill="none" stroke="black" d="M334.533,-396.301C404.163,-399.535 543.289,-400.092 615.203,-397.473"/>
<polygon fill="black" stroke="black" points="615.459,-400.965 625.309,-397.063 615.175,-393.971 615.459,-400.965"/>
</g>
<!-- building&#45;&gt;energy -->
<g id="edge44" class="edge"><title>building&#45;&gt;energy</title>
<path fill="none" stroke="black" d="M335.648,-392.971C386.295,-394.505 470.404,-397.054 524.35,-398.688"/>
<polygon fill="black" stroke="black" points="524.286,-402.188 534.387,-398.992 524.498,-395.191 524.286,-402.188"/>
</g>
<!-- efficient -->
<g id="node38" class="node"><title>efficient</title>

<ellipse fill="white" stroke="black" cx="219.418" cy="-177.045" rx="46.9574" ry="18"/>
<text text-anchor="middle" x="219.418" y="-172.445" font-family="Helvetica,sans-Serif" font-size="14.00">efficient</text>

</g>
<!-- building&#45;&gt;efficient -->
<g id="edge42" class="edge"><title>building&#45;&gt;efficient</title>
<path fill="none" stroke="black" d="M286.586,-373.74C273.787,-336.26 244.126,-249.4 228.865,-204.707"/>
<polygon fill="black" stroke="black" points="232.119,-203.407 225.575,-195.074 225.495,-205.669 232.119,-203.407"/>
</g>
<!-- build -->
<g id="node42" class="node"><title>build</title>

<ellipse fill="white" stroke="black" cx="170.046" cy="-315.07" rx="30.8577" ry="18"/>
<text text-anchor="middle" x="170.046" y="-310.47" font-family="Helvetica,sans-Serif" font-size="14.00">build</text>

</g>
<!-- building&#45;&gt;build -->
<g id="edge48" class="edge"><title>building&#45;&gt;build</title>
<path fill="none" stroke="black" d="M268.474,-376.536C248.803,-364.252 220.975,-346.874 199.925,-333.728"/>
<polygon fill="black" stroke="black" points="201.698,-330.709 191.362,-328.381 197.99,-336.647 201.698,-330.709"/>
</g>
<!-- renovate -->
<g id="node44" class="node"><title>renovate</title>
<ellipse fill="white" stroke="black" cx="54.1931" cy="-270.091" rx="49.1393" ry="18"/>
<text text-anchor="middle" x="54.1931" y="-265.491" font-family="Helvetica,sans-Serif" font-size="14.00">renovate</text>
</g>
<!-- building&#45;&gt;renovate -->
<g id="edge50" class="edge"><title>building&#45;&gt;renovate</title>
<path fill="none" stroke="black" d="M265.348,-377.723C222.788,-356.029 140.609,-314.14 92.279,-289.504"/>
<polygon fill="black" stroke="black" points="93.5849,-286.242 83.0861,-284.818 90.4059,-292.478 93.5849,-286.242"/>
</g>
<!-- municipal -->
<g id="node46" class="node"><title>municipal</title>
<ellipse fill="white" stroke="black" cx="52" cy="-426.519" rx="50.9823" ry="18"/>
<text text-anchor="middle" x="52" y="-421.919" font-family="Helvetica,sans-Serif" font-size="14.00">municipal</text>
</g>
<!-- building&#45;&gt;municipal -->
<g id="edge52" class="edge"><title>building&#45;&gt;municipal</title>
<path fill="none" stroke="black" d="M251.876,-397.581C212.678,-403.256 153.11,-411.88 109.196,-418.238"/>
<polygon fill="black" stroke="black" points="108.631,-414.783 99.2354,-419.68 109.634,-421.711 108.631,-414.783"/>
</g>
<!-- public -->
<g id="node48" class="node"><title>public</title>

<ellipse fill="white" stroke="black" cx="238.639" cy="-586.147" rx="35.0527" ry="18"/>
<text text-anchor="middle" x="238.639" y="-581.547" font-family="Helvetica,sans-Serif" font-size="14.00">public</text>

</g>
<!-- building&#45;&gt;public -->
<g id="edge54" class="edge"><title>building&#45;&gt;public</title>
<path fill="none" stroke="black" d="M287.719,-409.617C278.243,-443.699 257.587,-517.992 246.329,-558.485"/>
<polygon fill="black" stroke="black" points="242.923,-557.67 243.616,-568.243 249.667,-559.546 242.923,-557.67"/>
</g>
<!-- design -->
<g id="node50" class="node"><title>design</title>
<ellipse fill="white" stroke="black" cx="108.985" cy="-548.244" rx="39.0774" ry="18"/>
<text text-anchor="middle" x="108.985" y="-543.644" font-family="Helvetica,sans-Serif" font-size="14.00">design</text>
</g>
<!-- building&#45;&gt;design -->
<g id="edge56" class="edge"><title>building&#45;&gt;design</title>
<path fill="none" stroke="black" d="M273.739,-407.836C240.838,-435.875 173.121,-493.586 135.555,-525.6"/>
<polygon fill="black" stroke="black" points="132.918,-523.249 127.578,-532.399 137.459,-528.577 132.918,-523.249"/>
</g>
<!-- clean&#45;&gt;??? -->
<g id="edge114" class="edge"><title>clean&#45;&gt;???</title>
<path fill="none" stroke="black" d="M799.954,-503.816C776.074,-480.194 725.605,-437.571 692.36,-412.554"/>
<polygon fill="black" stroke="black" points="694.427,-409.729 684.306,-406.595 690.264,-415.357 694.427,-409.729"/>
</g>
<!-- clean&#45;&gt;job -->
<g id="edge106" class="edge"><title>clean&#45;&gt;job</title>
<path fill="none" stroke="black" d="M824.16,-503.267C840.922,-476.784 873.052,-426.019 892.482,-395.32"/>
<polygon fill="black" stroke="black" points="895.683,-396.808 898.074,-386.486 889.768,-393.064 895.683,-396.808"/>
</g>
<!-- clean&#45;&gt;create -->
<g id="edge116" class="edge"><title>clean&#45;&gt;create</title>
<path fill="none" stroke="black" d="M813.229,-502.248C813.249,-464.774 813.294,-379.086 813.318,-334.301"/>
<polygon fill="black" stroke="black" points="816.818,-334.109 813.324,-324.108 809.818,-334.106 816.818,-334.109"/>
</g>
<!-- clean&#45;&gt;renewable -->
<g id="edge102" class="edge"><title>clean&#45;&gt;renewable</title>
<path fill="none" stroke="black" d="M779.655,-517.566C764.132,-518.035 745.279,-519.37 727.723,-521.178"/>
<polygon fill="black" stroke="black" points="727.129,-517.722 717.572,-522.294 727.894,-524.68 727.129,-517.722"/>
</g>
<!-- clean&#45;&gt;energy -->
<g id="edge100" class="edge"><title>clean&#45;&gt;energy</title>
<path fill="none" stroke="black" d="M788.221,-507.905C745.988,-486.536 660.361,-443.21 611.583,-418.529"/>
<polygon fill="black" stroke="black" points="613.136,-415.392 602.633,-414.001 609.976,-421.638 613.136,-415.392"/>
</g>
<!-- clean&#45;&gt;new -->
<g id="edge112" class="edge"><title>clean&#45;&gt;new</title>
<path fill="none" stroke="black" d="M841.12,-509.945C860.76,-502.478 887.156,-492.443 907.993,-484.521"/>
<polygon fill="black" stroke="black" points="909.323,-487.759 917.426,-480.934 906.835,-481.216 909.323,-487.759"/>
</g>
<!-- clean&#45;&gt;technology -->
<g id="edge104" class="edge"><title>clean&#45;&gt;technology</title>
<path fill="none" stroke="black" d="M807.266,-538.355C798.637,-564.162 782.571,-612.206 772.363,-642.733"/>
<polygon fill="black" stroke="black" points="768.997,-641.763 769.144,-652.357 775.635,-643.983 768.997,-641.763"/>
</g>
<!-- future -->
<g id="node84" class="node"><title>future</title>

<ellipse fill="white" stroke="black" cx="1022.71" cy="-673.028" rx="37.0651" ry="18"/>
<text text-anchor="middle" x="1022.71" y="-668.428" font-family="Helvetica,sans-Serif" font-size="14.00">future</text>

</g>
<!-- clean&#45;&gt;future -->
<g id="edge108" class="edge"><title>clean&#45;&gt;future</title>
<path fill="none" stroke="black" d="M833.306,-535.173C870.654,-562.356 950.892,-620.755 993.972,-652.11"/>
<polygon fill="black" stroke="black" points="991.924,-654.948 1002.07,-658.003 996.043,-649.288 991.924,-654.948"/>
</g>
<!-- sock -->
<g id="node86" class="node"><title>sock</title>
<ellipse fill="white" stroke="black" cx="903.719" cy="-722.121" rx="30.8577" ry="18"/>
<text text-anchor="middle" x="903.719" y="-717.521" font-family="Helvetica,sans-Serif" font-size="14.00">sock</text>
</g>
<!-- clean&#45;&gt;sock -->
<g id="edge110" class="edge"><title>clean&#45;&gt;sock</title>
<path fill="none" stroke="black" d="M821.092,-538.089C836.937,-573.38 872.769,-653.187 891.614,-695.16"/>
<polygon fill="black" stroke="black" points="888.511,-696.794 895.8,-704.483 894.897,-693.927 888.511,-696.794"/>
</g>
</g>
</svg>
