<?xml version="1.0" encoding="UTF-8" standalone="no"?>
<!DOCTYPE svg PUBLIC "-//W3C//DTD SVG 1.1//EN"
 "http://www.w3.org/Graphics/SVG/1.1/DTD/svg11.dtd">
<!-- Generated by graphviz version 2.26.3 (20100126.1600)
 -->
<!-- Title: ??? Pages: 1 -->
<svg width="654.5pt" height="542.5pt"
 viewBox="0.00 0.00 935.48 775.11" xmlns="http://www.w3.org/2000/svg" xmlns:xlink="http://www.w3.org/1999/xlink">
<g id="graph1" class="graph" transform="scale(1 1) rotate(0) translate(4 771.113)">
<title>???</title>
<polygon fill="white" stroke="white" points="-4,5 -4,-771.113 932.476,-771.113 932.476,5 -4,5"/>
<!-- ??? -->
<g id="node1" class="node"><title>car</title>

<ellipse fill="brown" stroke="black" cx="479.549" cy="-336.965" rx="27" ry="18"/>
<text text-anchor="middle" x="479.549" y="-332.365" font-family="Helvetica,sans-Serif" font-size="14.00" fill="white">???</text>

</g>
<!-- truck -->
<g id="node3" class="node"><title>truck</title>
<ellipse fill="white" stroke="black" cx="415.564" cy="-410.089" rx="32.8702" ry="18"/>
<text text-anchor="middle" x="415.564" y="-405.489" font-family="Helvetica,sans-Serif" font-size="14.00">truck</text>
</g>
<!-- ???&#45;&gt;truck -->
<g id="edge2" class="edge"><title>???&#45;&gt;truck</title>
<path fill="none" stroke="black" d="M465.665,-352.832C457.147,-362.566 446.076,-375.219 436.507,-386.154"/>
<polygon fill="black" stroke="black" points="433.815,-383.916 429.864,-393.746 439.083,-388.526 433.815,-383.916"/>
</g>
<!-- fuel -->
<g id="node5" class="node"><title>fuel</title>
<ellipse fill="white" stroke="black" cx="494.881" cy="-183.699" rx="27.0036" ry="18"/>
<text text-anchor="middle" x="494.881" y="-179.099" font-family="Helvetica,sans-Serif" font-size="14.00">fuel</text>
</g>
<!-- ???&#45;&gt;fuel -->
<g id="edge4" class="edge"><title>???&#45;&gt;fuel</title>
<path fill="none" stroke="black" d="M485.9,-319.235C491.174,-292.969 496.392,-243.46 497.414,-212.101"/>
<polygon fill="black" stroke="black" points="500.918,-211.894 497.594,-201.834 493.919,-211.772 500.918,-211.894"/>
</g>
<!-- produce -->
<g id="node12" class="node"><title>produce</title>

<ellipse fill="white" stroke="black" cx="693.147" cy="-482.914" rx="45.7889" ry="18"/>
<text text-anchor="middle" x="693.147" y="-478.314" font-family="Helvetica,sans-Serif" font-size="14.00">produce</text>

</g>
<!-- ???&#45;&gt;produce -->
<g id="edge12" class="edge"><title>???&#45;&gt;produce</title>
<path fill="none" stroke="black" d="M494.821,-352.138C528.144,-378.927 607.894,-433.913 655.523,-463.428"/>
<polygon fill="black" stroke="black" points="653.954,-466.571 664.311,-468.803 657.606,-460.599 653.954,-466.571"/>
</g>
<!-- drive -->
<g id="node27" class="node"><title>drive</title>

<ellipse fill="white" stroke="black" cx="339.47" cy="-584.99" rx="32.1994" ry="18"/>
<text text-anchor="middle" x="339.47" y="-580.39" font-family="Helvetica,sans-Serif" font-size="14.00">drive</text>

</g>
<!-- ???&#45;&gt;drive -->
<g id="edge28" class="edge"><title>???&#45;&gt;drive</title>
<path fill="none" stroke="black" d="M466.25,-352.981C438.307,-394.593 375.067,-506.188 349.838,-557.969"/>
<polygon fill="black" stroke="black" points="346.582,-556.666 345.453,-567.2 352.905,-559.669 346.582,-556.666"/>
</g>
<!-- efficient -->
<g id="node42" class="node"><title>efficient</title>

<ellipse fill="white" stroke="black" cx="717.115" cy="-183.68" rx="46.9574" ry="18"/>
<text text-anchor="middle" x="717.115" y="-179.08" font-family="Helvetica,sans-Serif" font-size="14.00">efficient</text>

</g>
<!-- ???&#45;&gt;efficient -->
<g id="edge44" class="edge"><title>???&#45;&gt;efficient</title>
<path fill="none" stroke="black" d="M502.392,-327.002C546.549,-302.595 643.206,-240.472 690.313,-206.478"/>
<polygon fill="black" stroke="black" points="692.51,-209.207 698.508,-200.474 688.373,-203.561 692.51,-209.207"/>
</g>
<!-- fill -->
<g id="node59" class="node"><title>fill</title>

<ellipse fill="white" stroke="black" cx="213.857" cy="-183.761" rx="27" ry="18"/>
<text text-anchor="middle" x="213.857" y="-179.161" font-family="Helvetica,sans-Serif" font-size="14.00">fill</text>

</g>
<!-- ???&#45;&gt;fill -->
<g id="edge64" class="edge"><title>???&#45;&gt;fill</title>
<path fill="none" stroke="black" d="M462.291,-322.739C418.625,-293.197 303.454,-226.483 246.559,-197.431"/>
<polygon fill="black" stroke="black" points="247.802,-194.139 237.295,-192.782 244.662,-200.396 247.802,-194.139"/>
</g>
<!-- fuel&#45;&gt;??? -->
<g id="edge6" class="edge"><title>fuel&#45;&gt;???</title>
<path fill="none" stroke="black" d="M488.53,-201.429C483.256,-227.695 478.038,-277.204 477.016,-308.563"/>
<polygon fill="black" stroke="black" points="473.511,-308.77 476.836,-318.83 480.51,-308.893 473.511,-308.77"/>
</g>
<!-- electricity -->
<g id="node8" class="node"><title>electricity</title>
<ellipse fill="white" stroke="black" cx="476.07" cy="-48.757" rx="53.1641" ry="18"/>
<text text-anchor="middle" x="476.07" y="-44.157" font-family="Helvetica,sans-Serif" font-size="14.00">electricity</text>
</g>
<!-- fuel&#45;&gt;electricity -->
<g id="edge8" class="edge"><title>fuel&#45;&gt;electricity</title>
<path fill="none" stroke="black" d="M492.344,-165.5C489.189,-142.864 483.765,-103.96 480.053,-77.3313"/>
<polygon fill="black" stroke="black" points="483.474,-76.5195 478.627,-67.0985 476.541,-77.486 483.474,-76.5195"/>
</g>
<!-- more -->
<g id="node10" class="node"><title>more</title>

<ellipse fill="white" stroke="black" cx="602.222" cy="-162.994" rx="33.0404" ry="18"/>
<text text-anchor="middle" x="602.222" y="-158.394" font-family="Helvetica,sans-Serif" font-size="14.00">more</text>

</g>
<!-- fuel&#45;&gt;more -->
<g id="edge10" class="edge"><title>fuel&#45;&gt;more</title>
<path fill="none" stroke="black" d="M520.865,-178.687C532.831,-176.379 547.324,-173.583 560.744,-170.995"/>
<polygon fill="black" stroke="black" points="561.581,-174.398 570.737,-169.067 560.255,-167.525 561.581,-174.398"/>
</g>
<!-- produce&#45;&gt;??? -->
<g id="edge16" class="edge"><title>produce&#45;&gt;???</title>
<path fill="none" stroke="black" d="M675.756,-466.049C639.635,-437.393 556.34,-380.214 510.721,-352.49"/>
<polygon fill="black" stroke="black" points="512.237,-349.319 501.857,-347.199 508.649,-355.33 512.237,-349.319"/>
</g>
<!-- oil -->
<g id="node14" class="node"><title>oil</title>

<ellipse fill="white" stroke="black" cx="788.635" cy="-608.088" rx="27" ry="18"/>
<text text-anchor="middle" x="788.635" y="-603.488" font-family="Helvetica,sans-Serif" font-size="14.00">oil</text>

</g>
<!-- produce&#45;&gt;oil -->
<g id="edge14" class="edge"><title>produce&#45;&gt;oil</title>
<path fill="none" stroke="black" d="M706.424,-500.319C723.018,-522.072 751.507,-559.418 770.207,-583.931"/>
<polygon fill="black" stroke="black" points="767.53,-586.192 776.378,-592.02 773.095,-581.946 767.53,-586.192"/>
</g>
<!-- result -->
<g id="node17" class="node"><title>result</title>

<ellipse fill="white" stroke="black" cx="623.654" cy="-568.85" rx="35.0527" ry="18"/>
<text text-anchor="middle" x="623.654" y="-564.25" font-family="Helvetica,sans-Serif" font-size="14.00">result</text>

</g>
<!-- produce&#45;&gt;result -->
<g id="edge18" class="edge"><title>produce&#45;&gt;result</title>
<path fill="none" stroke="black" d="M679.084,-500.305C668.873,-512.932 654.915,-530.193 643.56,-544.234"/>
<polygon fill="black" stroke="black" points="640.79,-542.094 637.223,-552.07 646.233,-546.495 640.79,-542.094"/>
</g>
<!-- company -->
<g id="node19" class="node"><title>company</title>

<ellipse fill="white" stroke="black" cx="700.946" cy="-638.914" rx="49.1393" ry="18"/>
<text text-anchor="middle" x="700.946" y="-634.314" font-family="Helvetica,sans-Serif" font-size="14.00">company</text>

</g>
<!-- produce&#45;&gt;company -->
<g id="edge20" class="edge"><title>produce&#45;&gt;company</title>
<path fill="none" stroke="black" d="M694.057,-501.115C695.407,-528.121 697.952,-579.031 699.542,-610.837"/>
<polygon fill="black" stroke="black" points="696.047,-611.017 700.042,-620.83 703.038,-610.667 696.047,-611.017"/>
</g>
<!-- country -->
<g id="node21" class="node"><title>country</title>

<ellipse fill="white" stroke="black" cx="849.803" cy="-538.857" rx="43.1021" ry="18"/>
<text text-anchor="middle" x="849.803" y="-534.257" font-family="Helvetica,sans-Serif" font-size="14.00">country</text>

</g>
<!-- produce&#45;&gt;country -->
<g id="edge22" class="edge"><title>produce&#45;&gt;country</title>
<path fill="none" stroke="black" d="M727.139,-495.053C750.654,-503.45 782.118,-514.686 807.292,-523.676"/>
<polygon fill="black" stroke="black" points="806.357,-527.058 816.951,-527.125 808.711,-520.466 806.357,-527.058"/>
</g>
<!-- last -->
<g id="node23" class="node"><title>last</title>

<ellipse fill="white" stroke="black" cx="818.757" cy="-449.905" rx="27" ry="18"/>
<text text-anchor="middle" x="818.757" y="-445.305" font-family="Helvetica,sans-Serif" font-size="14.00">last</text>

</g>
<!-- produce&#45;&gt;last -->
<g id="edge24" class="edge"><title>produce&#45;&gt;last</title>
<path fill="none" stroke="black" d="M731.517,-472.831C747.97,-468.507 767.073,-463.487 783.202,-459.248"/>
<polygon fill="black" stroke="black" points="784.532,-462.518 793.314,-456.591 782.753,-455.747 784.532,-462.518"/>
</g>
<!-- energy -->
<g id="node25" class="node"><title>energy</title>

<ellipse fill="white" stroke="black" cx="713.088" cy="-337.63" rx="40.92" ry="18"/>
<text text-anchor="middle" x="713.088" y="-333.03" font-family="Helvetica,sans-Serif" font-size="14.00">energy</text>

</g>
<!-- produce&#45;&gt;energy -->
<g id="edge26" class="edge"><title>produce&#45;&gt;energy</title>
<path fill="none" stroke="black" d="M695.632,-464.808C699.036,-440.013 705.181,-395.24 709.197,-365.978"/>
<polygon fill="black" stroke="black" points="712.679,-366.348 710.572,-355.965 705.744,-365.396 712.679,-366.348"/>
</g>
<!-- drive&#45;&gt;??? -->
<g id="edge34" class="edge"><title>drive&#45;&gt;???</title>
<path fill="none" stroke="black" d="M353.025,-568.591C381.117,-526.651 444.119,-415.449 469.235,-363.875"/>
<polygon fill="black" stroke="black" points="472.472,-365.216 473.599,-354.681 466.149,-362.214 472.472,-365.216"/>
</g>
<!-- mile -->
<g id="node29" class="node"><title>mile</title>

<ellipse fill="white" stroke="black" cx="188.83" cy="-620.757" rx="28.8453" ry="18"/>
<text text-anchor="middle" x="188.83" y="-616.157" font-family="Helvetica,sans-Serif" font-size="14.00">mile</text>

</g>
<!-- drive&#45;&gt;mile -->
<g id="edge30" class="edge"><title>drive&#45;&gt;mile</title>
<path fill="none" stroke="black" d="M309.708,-592.057C285.637,-597.772 251.621,-605.848 225.804,-611.978"/>
<polygon fill="black" stroke="black" points="224.919,-608.591 215.998,-614.307 226.536,-615.402 224.919,-608.591"/>
</g>
<!-- foreign -->
<g id="node31" class="node"><title>foreign</title>

<ellipse fill="white" stroke="black" cx="222.688" cy="-716.896" rx="41.0898" ry="18"/>
<text text-anchor="middle" x="222.688" y="-712.296" font-family="Helvetica,sans-Serif" font-size="14.00">foreign</text>

</g>
<!-- drive&#45;&gt;foreign -->
<g id="edge32" class="edge"><title>drive&#45;&gt;foreign</title>
<path fill="none" stroke="black" d="M325.15,-601.164C305.059,-623.858 268.324,-665.35 244.732,-691.997"/>
<polygon fill="black" stroke="black" points="241.874,-689.946 237.866,-699.753 247.115,-694.586 241.874,-689.946"/>
</g>
<!-- wait -->
<g id="node34" class="node"><title>wait</title>

<ellipse fill="white" stroke="black" cx="235.532" cy="-529.736" rx="28.8453" ry="18"/>
<text text-anchor="middle" x="235.532" y="-525.136" font-family="Helvetica,sans-Serif" font-size="14.00">wait</text>

</g>
<!-- drive&#45;&gt;wait -->
<g id="edge36" class="edge"><title>drive&#45;&gt;wait</title>
<path fill="none" stroke="black" d="M316.144,-572.59C301.535,-564.824 282.533,-554.722 266.648,-546.277"/>
<polygon fill="black" stroke="black" points="268.184,-543.131 257.712,-541.527 264.899,-549.311 268.184,-543.131"/>
</g>
<!-- cost -->
<g id="node36" class="node"><title>cost</title>

<ellipse fill="white" stroke="black" cx="385.454" cy="-748.113" rx="29.0158" ry="18"/>
<text text-anchor="middle" x="385.454" y="-743.513" font-family="Helvetica,sans-Serif" font-size="14.00">cost</text>

</g>
<!-- drive&#45;&gt;cost -->
<g id="edge38" class="edge"><title>drive&#45;&gt;cost</title>
<path fill="none" stroke="black" d="M344.567,-603.07C352.577,-631.486 368.171,-686.806 377.616,-720.309"/>
<polygon fill="black" stroke="black" points="374.252,-721.276 380.334,-729.951 380.989,-719.377 374.252,-721.276"/>
</g>
<!-- policy -->
<g id="node38" class="node"><title>policy</title>

<ellipse fill="white" stroke="black" cx="307.833" cy="-701.46" rx="35.0527" ry="18"/>
<text text-anchor="middle" x="307.833" y="-696.86" font-family="Helvetica,sans-Serif" font-size="14.00">policy</text>

</g>
<!-- drive&#45;&gt;policy -->
<g id="edge40" class="edge"><title>drive&#45;&gt;policy</title>
<path fill="none" stroke="black" d="M334.596,-602.933C329.478,-621.773 321.364,-651.647 315.41,-673.565"/>
<polygon fill="black" stroke="black" points="312.008,-672.736 312.764,-683.304 318.763,-674.571 312.008,-672.736"/>
</g>
<!-- price -->
<g id="node40" class="node"><title>price</title>

<ellipse fill="white" stroke="black" cx="438.118" cy="-651.38" rx="32.1994" ry="18"/>
<text text-anchor="middle" x="438.118" y="-646.78" font-family="Helvetica,sans-Serif" font-size="14.00">price</text>

</g>
<!-- drive&#45;&gt;price -->
<g id="edge42" class="edge"><title>drive&#45;&gt;price</title>
<path fill="none" stroke="black" d="M360.391,-599.07C374.611,-608.64 393.61,-621.426 409.265,-631.962"/>
<polygon fill="black" stroke="black" points="407.316,-634.869 417.566,-637.548 411.224,-629.061 407.316,-634.869"/>
</g>
<!-- efficient&#45;&gt;??? -->
<g id="edge58" class="edge"><title>efficient&#45;&gt;???</title>
<path fill="none" stroke="black" d="M686.945,-197.762C639.174,-225.02 547.214,-284.389 503.583,-316.174"/>
<polygon fill="black" stroke="black" points="501.229,-313.561 495.283,-322.33 505.4,-319.183 501.229,-313.561"/>
</g>
<!-- efficient&#45;&gt;more -->
<g id="edge50" class="edge"><title>efficient&#45;&gt;more</title>
<path fill="none" stroke="black" d="M674.333,-175.977C664.389,-174.187 653.817,-172.284 643.921,-170.502"/>
<polygon fill="black" stroke="black" points="644.369,-167.026 633.907,-168.699 643.129,-173.916 644.369,-167.026"/>
</g>
<!-- efficient&#45;&gt;energy -->
<g id="edge46" class="edge"><title>efficient&#45;&gt;energy</title>
<path fill="none" stroke="black" d="M716.637,-201.945C715.944,-228.449 714.653,-277.817 713.834,-309.133"/>
<polygon fill="black" stroke="black" points="710.328,-309.301 713.565,-319.389 717.326,-309.484 710.328,-309.301"/>
</g>
<!-- building -->
<g id="node45" class="node"><title>building</title>

<ellipse fill="white" stroke="black" cx="798.457" cy="-127.213" rx="43.1021" ry="18"/>
<text text-anchor="middle" x="798.457" y="-122.613" font-family="Helvetica,sans-Serif" font-size="14.00">building</text>

</g>
<!-- efficient&#45;&gt;building -->
<g id="edge48" class="edge"><title>efficient&#45;&gt;building</title>
<path fill="none" stroke="black" d="M740.207,-167.65C748.749,-161.72 758.573,-154.9 767.69,-148.571"/>
<polygon fill="black" stroke="black" points="769.931,-151.276 776.149,-142.699 765.939,-145.526 769.931,-151.276"/>
</g>
<!-- make -->
<g id="node48" class="node"><title>make</title>

<ellipse fill="white" stroke="black" cx="891.476" cy="-177.767" rx="34.8827" ry="18"/>
<text text-anchor="middle" x="891.476" y="-173.167" font-family="Helvetica,sans-Serif" font-size="14.00">make</text>

</g>
<!-- efficient&#45;&gt;make -->
<g id="edge52" class="edge"><title>efficient&#45;&gt;make</title>
<path fill="none" stroke="black" d="M764.299,-182.08C789.828,-181.214 821.199,-180.15 846.396,-179.296"/>
<polygon fill="black" stroke="black" points="846.552,-182.792 856.428,-178.955 846.315,-175.796 846.552,-182.792"/>
</g>
<!-- clean -->
<g id="node50" class="node"><title>clean</title>

<ellipse fill="white" stroke="black" cx="831.465" cy="-257.624" rx="34.2118" ry="18"/>
<text text-anchor="middle" x="831.465" y="-253.024" font-family="Helvetica,sans-Serif" font-size="14.00">clean</text>

</g>
<!-- efficient&#45;&gt;clean -->
<g id="edge54" class="edge"><title>efficient&#45;&gt;clean</title>
<path fill="none" stroke="black" d="M741.086,-199.181C758.613,-210.514 782.509,-225.967 801.328,-238.136"/>
<polygon fill="black" stroke="black" points="799.544,-241.15 809.842,-243.641 803.345,-235.272 799.544,-241.15"/>
</g>
<!-- green -->
<g id="node52" class="node"><title>green</title>

<ellipse fill="white" stroke="black" cx="859.778" cy="-64.664" rx="36.2243" ry="18"/>
<text text-anchor="middle" x="859.778" y="-60.064" font-family="Helvetica,sans-Serif" font-size="14.00">green</text>

</g>
<!-- efficient&#45;&gt;green -->
<g id="edge56" class="edge"><title>efficient&#45;&gt;green</title>
<path fill="none" stroke="black" d="M736.951,-167.131C762.038,-146.203 805.318,-110.097 833.232,-86.8096"/>
<polygon fill="black" stroke="black" points="835.581,-89.4086 841.017,-80.315 831.096,-84.0335 835.581,-89.4086"/>
</g>
<!-- become -->
<g id="node55" class="node"><title>become</title>

<ellipse fill="white" stroke="black" cx="669.332" cy="-47.7651" rx="45.1145" ry="18"/>
<text text-anchor="middle" x="669.332" y="-43.1651" font-family="Helvetica,sans-Serif" font-size="14.00">become</text>

</g>
<!-- efficient&#45;&gt;become -->
<g id="edge60" class="edge"><title>efficient&#45;&gt;become</title>
<path fill="none" stroke="black" d="M710.77,-165.632C702.666,-142.581 688.559,-102.456 679.085,-75.5081"/>
<polygon fill="black" stroke="black" points="682.322,-74.1613 675.703,-65.8882 675.718,-76.483 682.322,-74.1613"/>
</g>
<!-- save -->
<g id="node57" class="node"><title>save</title>

<ellipse fill="white" stroke="black" cx="760.997" cy="-19" rx="31.0281" ry="18"/>
<text text-anchor="middle" x="760.997" y="-14.4" font-family="Helvetica,sans-Serif" font-size="14.00">save</text>

</g>
<!-- efficient&#45;&gt;save -->
<g id="edge62" class="edge"><title>efficient&#45;&gt;save</title>
<path fill="none" stroke="black" d="M721.894,-165.743C729.544,-137.035 744.593,-80.5588 753.627,-46.6561"/>
<polygon fill="black" stroke="black" points="757.03,-47.4791 756.223,-36.915 750.266,-45.6766 757.03,-47.4791"/>
</g>
<!-- fill&#45;&gt;??? -->
<g id="edge80" class="edge"><title>fill&#45;&gt;???</title>
<path fill="none" stroke="black" d="M231.115,-197.987C274.781,-227.529 389.952,-294.243 446.847,-323.294"/>
<polygon fill="black" stroke="black" points="445.604,-326.586 456.111,-327.944 448.743,-320.33 445.604,-326.586"/>
</g>
<!-- tank -->
<g id="node61" class="node"><title>tank</title>
<ellipse fill="white" stroke="black" cx="124.352" cy="-27.4225" rx="29.0158" ry="18"/>
<text text-anchor="middle" x="124.352" y="-22.8225" font-family="Helvetica,sans-Serif" font-size="14.00">tank</text>
</g>
<!-- fill&#45;&gt;tank -->
<g id="edge66" class="edge"><title>fill&#45;&gt;tank</title>
<path fill="none" stroke="black" d="M204.108,-166.732C188.438,-139.361 157.545,-85.4005 139.145,-53.2627"/>
<polygon fill="black" stroke="black" points="142.095,-51.3695 134.089,-44.43 136.02,-54.8474 142.095,-51.3695"/>
</g>
<!-- mechanic -->
<g id="node63" class="node"><title>mechanic</title>
<ellipse fill="white" stroke="black" cx="53.5" cy="-216.787" rx="51.8257" ry="18"/>
<text text-anchor="middle" x="53.5" y="-212.187" font-family="Helvetica,sans-Serif" font-size="14.00">mechanic</text>
</g>
<!-- fill&#45;&gt;mechanic -->
<g id="edge68" class="edge"><title>fill&#45;&gt;mechanic</title>
<path fill="none" stroke="black" d="M187.736,-189.141C166.331,-193.549 135.305,-199.939 108.472,-205.465"/>
<polygon fill="black" stroke="black" points="107.51,-202.09 98.4216,-207.535 108.922,-208.946 107.51,-202.09"/>
</g>
<!-- can&#39;t -->
<g id="node65" class="node"><title>can&#39;t</title>

<ellipse fill="white" stroke="black" cx="45.5033" cy="-118.378" rx="32.1994" ry="18"/>
<text text-anchor="middle" x="45.5033" y="-113.778" font-family="Helvetica,sans-Serif" font-size="14.00">can&#39;t</text>

</g>
<!-- fill&#45;&gt;can&#39;t -->
<g id="edge70" class="edge"><title>fill&#45;&gt;can&#39;t</title>
<path fill="none" stroke="black" d="M190.448,-174.67C162.282,-163.731 114.678,-145.243 81.7502,-132.455"/>
<polygon fill="black" stroke="black" points="82.6289,-129.041 72.0401,-128.684 80.0947,-135.567 82.6289,-129.041"/>
</g>
<!-- job -->
<g id="node67" class="node"><title>job</title>

<ellipse fill="white" stroke="black" cx="138.92" cy="-119.035" rx="27" ry="18"/>
<text text-anchor="middle" x="138.92" y="-114.435" font-family="Helvetica,sans-Serif" font-size="14.00">job</text>

</g>
<!-- fill&#45;&gt;job -->
<g id="edge72" class="edge"><title>fill&#45;&gt;job</title>
<path fill="none" stroke="black" d="M197.226,-169.396C187.233,-160.765 174.341,-149.629 163.221,-140.025"/>
<polygon fill="black" stroke="black" points="165.36,-137.248 155.504,-133.36 160.785,-142.545 165.36,-137.248"/>
</g>
<!-- gas -->
<g id="node69" class="node"><title>gas</title>

<ellipse fill="white" stroke="black" cx="229.379" cy="-25.3423" rx="27" ry="18"/>
<text text-anchor="middle" x="229.379" y="-20.7423" font-family="Helvetica,sans-Serif" font-size="14.00">gas</text>

</g>
<!-- fill&#45;&gt;gas -->
<g id="edge74" class="edge"><title>fill&#45;&gt;gas</title>
<path fill="none" stroke="black" d="M215.637,-165.588C218.313,-138.28 223.395,-86.4107 226.573,-53.9803"/>
<polygon fill="black" stroke="black" points="230.079,-54.0846 227.571,-43.791 223.112,-53.402 230.079,-54.0846"/>
</g>
<!-- auto -->
<g id="node71" class="node"><title>auto</title>

<ellipse fill="white" stroke="black" cx="296.531" cy="-106.364" rx="30.8577" ry="18"/>
<text text-anchor="middle" x="296.531" y="-101.764" font-family="Helvetica,sans-Serif" font-size="14.00">auto</text>

</g>
<!-- fill&#45;&gt;auto -->
<g id="edge76" class="edge"><title>fill&#45;&gt;auto</title>
<path fill="none" stroke="black" d="M229.797,-168.838C241.878,-157.528 258.684,-141.795 272.408,-128.947"/>
<polygon fill="black" stroke="black" points="275.165,-131.16 280.073,-121.771 270.381,-126.05 275.165,-131.16"/>
</g>
<!-- gap -->
<g id="node73" class="node"><title>gap</title>

<ellipse fill="white" stroke="black" cx="222.14" cy="-289.991" rx="27.0036" ry="18"/>
<text text-anchor="middle" x="222.14" y="-285.391" font-family="Helvetica,sans-Serif" font-size="14.00">gap</text>

</g>
<!-- fill&#45;&gt;gap -->
<g id="edge78" class="edge"><title>fill&#45;&gt;gap</title>
<path fill="none" stroke="black" d="M215.262,-201.781C216.541,-218.187 218.451,-242.678 219.934,-261.694"/>
<polygon fill="black" stroke="black" points="216.461,-262.184 220.728,-271.882 223.44,-261.64 216.461,-262.184"/>
</g>
<!-- heart -->
<g id="node76" class="node"><title>heart</title>

<ellipse fill="white" stroke="black" cx="111.568" cy="-291.12" rx="34.2118" ry="18"/>
<text text-anchor="middle" x="111.568" y="-286.52" font-family="Helvetica,sans-Serif" font-size="14.00">heart</text>

</g>
<!-- fill&#45;&gt;heart -->
<g id="edge82" class="edge"><title>fill&#45;&gt;heart</title>
<path fill="none" stroke="black" d="M199.201,-199.143C182.253,-216.932 154.15,-246.428 134.346,-267.213"/>
<polygon fill="black" stroke="black" points="131.567,-265.056 127.203,-274.711 136.635,-269.885 131.567,-265.056"/>
</g>
</g>
</svg>
